solid OpenSCAD_Model
  facet normal -1 0 0
    outer loop
      vertex 0 0 0
      vertex 0 0 14
      vertex 0 10 0
    endloop
  endfacet
  facet normal -1 0 0
    outer loop
      vertex 0 10 0
      vertex 0 0 14
      vertex 0 10 14
    endloop
  endfacet
  facet normal 0 -1 0
    outer loop
      vertex 7.4 0 2
      vertex 0 0 0
      vertex 9.8 0 0
    endloop
  endfacet
  facet normal 0 -1 0
    outer loop
      vertex 2.4 0 2
      vertex 2.4 0 14
      vertex 0 0 14
    endloop
  endfacet
  facet normal 0 -1 0
    outer loop
      vertex 9.8 0 14
      vertex 7.4 0 14
      vertex 9.8 0 0
    endloop
  endfacet
  facet normal 0 -1 0
    outer loop
      vertex 2.4 0 2
      vertex 0 0 0
      vertex 7.4 0 2
    endloop
  endfacet
  facet normal 0 -1 0
    outer loop
      vertex 0 0 14
      vertex 0 0 0
      vertex 2.4 0 2
    endloop
  endfacet
  facet normal 0 -1 0
    outer loop
      vertex 7.4 0 14
      vertex 7.4 0 2
      vertex 9.8 0 0
    endloop
  endfacet
  facet normal 0 0 -1
    outer loop
      vertex 6.01679 6.53713 0
      vertex 0 10 0
      vertex 9.8 10 0
    endloop
  endfacet
  facet normal 0 0 -1
    outer loop
      vertex 0 0 0
      vertex 0 10 0
      vertex 3 5 0
    endloop
  endfacet
  facet normal 0 0 -1
    outer loop
      vertex 0 0 0
      vertex 3 5 0
      vertex 3.09299 4.41287 0
    endloop
  endfacet
  facet normal 0 0 -1
    outer loop
      vertex 0 0 0
      vertex 3.09299 4.41287 0
      vertex 3.36287 3.88321 0
    endloop
  endfacet
  facet normal 0 0 -1
    outer loop
      vertex 0 0 0
      vertex 3.36287 3.88321 0
      vertex 3.78321 3.46287 0
    endloop
  endfacet
  facet normal 0 0 -1
    outer loop
      vertex 0 0 0
      vertex 3.78321 3.46287 0
      vertex 9.8 0 0
    endloop
  endfacet
  facet normal 0 0 -1
    outer loop
      vertex 3.78321 3.46287 0
      vertex 4.31287 3.19299 0
      vertex 9.8 0 0
    endloop
  endfacet
  facet normal 0 0 -1
    outer loop
      vertex 5.48713 3.19299 0
      vertex 9.8 0 0
      vertex 4.9 3.1 0
    endloop
  endfacet
  facet normal 0 0 -1
    outer loop
      vertex 6.43713 3.88321 0
      vertex 9.8 0 0
      vertex 6.01679 3.46287 0
    endloop
  endfacet
  facet normal 0 0 -1
    outer loop
      vertex 3.09299 5.58713 0
      vertex 0 10 0
      vertex 3.36287 6.11679 0
    endloop
  endfacet
  facet normal 0 0 -1
    outer loop
      vertex 5.48713 3.19299 0
      vertex 6.01679 3.46287 0
      vertex 9.8 0 0
    endloop
  endfacet
  facet normal 0 0 -1
    outer loop
      vertex 4.9 6.9 0
      vertex 0 10 0
      vertex 5.48713 6.80701 0
    endloop
  endfacet
  facet normal 0 0 -1
    outer loop
      vertex 9.8 0 0
      vertex 6.43713 3.88321 0
      vertex 9.8 10 0
    endloop
  endfacet
  facet normal 0 0 -1
    outer loop
      vertex 3.36287 6.11679 0
      vertex 0 10 0
      vertex 3.78321 6.53713 0
    endloop
  endfacet
  facet normal 0 0 -1
    outer loop
      vertex 6.43713 3.88321 0
      vertex 6.70701 4.41287 0
      vertex 9.8 10 0
    endloop
  endfacet
  facet normal 0 0 -1
    outer loop
      vertex 3.78321 6.53713 0
      vertex 0 10 0
      vertex 4.31287 6.80701 0
    endloop
  endfacet
  facet normal 0 0 -1
    outer loop
      vertex 6.70701 4.41287 0
      vertex 6.8 5 0
      vertex 9.8 10 0
    endloop
  endfacet
  facet normal 0 0 -1
    outer loop
      vertex 6.8 5 0
      vertex 6.70701 5.58713 0
      vertex 9.8 10 0
    endloop
  endfacet
  facet normal 0 0 -1
    outer loop
      vertex 4.31287 6.80701 0
      vertex 0 10 0
      vertex 4.9 6.9 0
    endloop
  endfacet
  facet normal 0 0 -1
    outer loop
      vertex 6.70701 5.58713 0
      vertex 6.43713 6.11679 0
      vertex 9.8 10 0
    endloop
  endfacet
  facet normal 0 0 -1
    outer loop
      vertex 5.48713 6.80701 0
      vertex 0 10 0
      vertex 6.01679 6.53713 0
    endloop
  endfacet
  facet normal 0 0 -1
    outer loop
      vertex 6.43713 6.11679 0
      vertex 6.01679 6.53713 0
      vertex 9.8 10 0
    endloop
  endfacet
  facet normal 0 0 -1
    outer loop
      vertex 3 5 0
      vertex 0 10 0
      vertex 3.09299 5.58713 0
    endloop
  endfacet
  facet normal 0 0 -1
    outer loop
      vertex 4.9 3.1 0
      vertex 9.8 0 0
      vertex 4.31287 3.19299 0
    endloop
  endfacet
  facet normal 0 1 0
    outer loop
      vertex 0 10 0
      vertex 0 10 14
      vertex 2.4 10 2
    endloop
  endfacet
  facet normal 0 1 0
    outer loop
      vertex 0 10 0
      vertex 2.4 10 2
      vertex 9.8 10 0
    endloop
  endfacet
  facet normal 0 1 0
    outer loop
      vertex 7.4 10 14
      vertex 9.8 10 0
      vertex 7.4 10 2
    endloop
  endfacet
  facet normal 0 1 0
    outer loop
      vertex 2.4 10 2
      vertex 7.4 10 2
      vertex 9.8 10 0
    endloop
  endfacet
  facet normal 0 1 0
    outer loop
      vertex 9.8 10 0
      vertex 7.4 10 14
      vertex 9.8 10 14
    endloop
  endfacet
  facet normal 0 1 0
    outer loop
      vertex 2.4 10 2
      vertex 0 10 14
      vertex 2.4 10 14
    endloop
  endfacet
  facet normal 0 0 1
    outer loop
      vertex 0 10 14
      vertex 0 0 14
      vertex 2.4 0 14
    endloop
  endfacet
  facet normal 0 0 1
    outer loop
      vertex 2.4 10 14
      vertex 0 10 14
      vertex 2.4 0 14
    endloop
  endfacet
  facet normal 1 0 0
    outer loop
      vertex 2.4 10 14
      vertex 2.4 3.26795 9
      vertex 2.4 6.73205 9
    endloop
  endfacet
  facet normal 1 0 0
    outer loop
      vertex 2.4 3.26795 2
      vertex 2.4 3.26795 9
      vertex 2.4 0 14
    endloop
  endfacet
  facet normal 1 0 0
    outer loop
      vertex 2.4 6.73205 2
      vertex 2.4 10 2
      vertex 2.4 6.73205 9
    endloop
  endfacet
  facet normal 1 0 0
    outer loop
      vertex 2.4 10 2
      vertex 2.4 10 14
      vertex 2.4 6.73205 9
    endloop
  endfacet
  facet normal 1 0 0
    outer loop
      vertex 2.4 10 14
      vertex 2.4 0 14
      vertex 2.4 3.26795 9
    endloop
  endfacet
  facet normal 1 0 0
    outer loop
      vertex 2.4 0 14
      vertex 2.4 0 2
      vertex 2.4 3.26795 2
    endloop
  endfacet
  facet normal 0 0 1
    outer loop
      vertex 2.4 3.26795 2
      vertex 2.4 0 2
      vertex 7.4 0 2
    endloop
  endfacet
  facet normal 0 0 1
    outer loop
      vertex 4.9 3.1 2
      vertex 2.4 3.26795 2
      vertex 7.4 0 2
    endloop
  endfacet
  facet normal 0 0 1
    outer loop
      vertex 6.01679 3.46287 2
      vertex 5.48713 3.19299 2
      vertex 7.4 3.26795 2
    endloop
  endfacet
  facet normal 0 0 1
    outer loop
      vertex 4.31287 3.19299 2
      vertex 3.78321 3.46287 2
      vertex 2.4 3.26795 2
    endloop
  endfacet
  facet normal 0 0 1
    outer loop
      vertex 1.4 5 2
      vertex 2.4 3.26795 2
      vertex 2.4 6.73205 2
    endloop
  endfacet
  facet normal 0 0 1
    outer loop
      vertex 2.4 10 2
      vertex 2.4 6.73205 2
      vertex 7.4 10 2
    endloop
  endfacet
  facet normal 0 0 1
    outer loop
      vertex 4.9 6.9 2
      vertex 5.48713 6.80701 2
      vertex 7.4 10 2
    endloop
  endfacet
  facet normal 0 0 1
    outer loop
      vertex 2.4 6.73205 2
      vertex 2.4 3.26795 2
      vertex 3 5 2
    endloop
  endfacet
  facet normal 0 0 1
    outer loop
      vertex 4.31287 6.80701 2
      vertex 4.9 6.9 2
      vertex 7.4 10 2
    endloop
  endfacet
  facet normal 0 0 1
    outer loop
      vertex 2.4 6.73205 2
      vertex 3 5 2
      vertex 3.09299 5.58713 2
    endloop
  endfacet
  facet normal 0 0 1
    outer loop
      vertex 6.43713 6.11679 2
      vertex 6.70701 5.58713 2
      vertex 7.4 6.73205 2
    endloop
  endfacet
  facet normal 0 0 1
    outer loop
      vertex 2.4 6.73205 2
      vertex 3.09299 5.58713 2
      vertex 3.36287 6.11679 2
    endloop
  endfacet
  facet normal 0 0 1
    outer loop
      vertex 2.4 6.73205 2
      vertex 3.78321 6.53713 2
      vertex 7.4 10 2
    endloop
  endfacet
  facet normal 0 0 1
    outer loop
      vertex 2.4 6.73205 2
      vertex 3.36287 6.11679 2
      vertex 3.78321 6.53713 2
    endloop
  endfacet
  facet normal 0 0 1
    outer loop
      vertex 7.4 10 2
      vertex 5.48713 6.80701 2
      vertex 7.4 6.73205 2
    endloop
  endfacet
  facet normal 0 0 1
    outer loop
      vertex 5.48713 6.80701 2
      vertex 6.01679 6.53713 2
      vertex 7.4 6.73205 2
    endloop
  endfacet
  facet normal 0 0 1
    outer loop
      vertex 6.01679 6.53713 2
      vertex 6.43713 6.11679 2
      vertex 7.4 6.73205 2
    endloop
  endfacet
  facet normal 0 0 1
    outer loop
      vertex 7.4 6.73205 2
      vertex 6.70701 5.58713 2
      vertex 8.4 5 2
    endloop
  endfacet
  facet normal 0 0 1
    outer loop
      vertex 6.70701 5.58713 2
      vertex 6.8 5 2
      vertex 8.4 5 2
    endloop
  endfacet
  facet normal 0 0 1
    outer loop
      vertex 8.4 5 2
      vertex 6.70701 4.41287 2
      vertex 7.4 3.26795 2
    endloop
  endfacet
  facet normal 0 0 1
    outer loop
      vertex 6.70701 4.41287 2
      vertex 6.43713 3.88321 2
      vertex 7.4 3.26795 2
    endloop
  endfacet
  facet normal 0 0 1
    outer loop
      vertex 6.43713 3.88321 2
      vertex 6.01679 3.46287 2
      vertex 7.4 3.26795 2
    endloop
  endfacet
  facet normal 0 0 1
    outer loop
      vertex 7.4 3.26795 2
      vertex 5.48713 3.19299 2
      vertex 7.4 0 2
    endloop
  endfacet
  facet normal 0 0 1
    outer loop
      vertex 5.48713 3.19299 2
      vertex 4.9 3.1 2
      vertex 7.4 0 2
    endloop
  endfacet
  facet normal 0 0 1
    outer loop
      vertex 4.31287 3.19299 2
      vertex 2.4 3.26795 2
      vertex 4.9 3.1 2
    endloop
  endfacet
  facet normal 0 0 1
    outer loop
      vertex 3.36287 3.88321 2
      vertex 3.09299 4.41287 2
      vertex 2.4 3.26795 2
    endloop
  endfacet
  facet normal 0 0 1
    outer loop
      vertex 6.8 5 2
      vertex 6.70701 4.41287 2
      vertex 8.4 5 2
    endloop
  endfacet
  facet normal 0 0 1
    outer loop
      vertex 3 5 2
      vertex 2.4 3.26795 2
      vertex 3.09299 4.41287 2
    endloop
  endfacet
  facet normal 0 0 1
    outer loop
      vertex 3.78321 6.53713 2
      vertex 4.31287 6.80701 2
      vertex 7.4 10 2
    endloop
  endfacet
  facet normal 0 0 1
    outer loop
      vertex 3.78321 3.46287 2
      vertex 3.36287 3.88321 2
      vertex 2.4 3.26795 2
    endloop
  endfacet
  facet normal -1 0 0
    outer loop
      vertex 7.4 3.26795 2
      vertex 7.4 0 14
      vertex 7.4 3.26795 9
    endloop
  endfacet
  facet normal -1 0 0
    outer loop
      vertex 7.4 10 14
      vertex 7.4 10 2
      vertex 7.4 6.73205 9
    endloop
  endfacet
  facet normal -1 0 0
    outer loop
      vertex 7.4 10 14
      vertex 7.4 6.73205 9
      vertex 7.4 0 14
    endloop
  endfacet
  facet normal -1 0 0
    outer loop
      vertex 7.4 0 14
      vertex 7.4 3.26795 2
      vertex 7.4 0 2
    endloop
  endfacet
  facet normal -1 0 0
    outer loop
      vertex 7.4 6.73205 9
      vertex 7.4 10 2
      vertex 7.4 6.73205 2
    endloop
  endfacet
  facet normal -1 0 0
    outer loop
      vertex 7.4 3.26795 9
      vertex 7.4 0 14
      vertex 7.4 6.73205 9
    endloop
  endfacet
  facet normal 0 0 1
    outer loop
      vertex 7.4 10 14
      vertex 7.4 0 14
      vertex 9.8 0 14
    endloop
  endfacet
  facet normal 0 0 1
    outer loop
      vertex 9.8 10 14
      vertex 7.4 10 14
      vertex 9.8 0 14
    endloop
  endfacet
  facet normal 1 0 0
    outer loop
      vertex 9.8 0 14
      vertex 9.8 0 0
      vertex 9.8 10 0
    endloop
  endfacet
  facet normal 1 0 0
    outer loop
      vertex 9.8 10 14
      vertex 9.8 0 14
      vertex 9.8 10 0
    endloop
  endfacet
  facet normal 0.987688 -0.156435 0
    outer loop
      vertex 3.09299 5.58713 0
      vertex 3.09299 5.58713 2
      vertex 3 5 2
    endloop
  endfacet
  facet normal 0.987688 -0.156435 0
    outer loop
      vertex 3 5 0
      vertex 3.09299 5.58713 0
      vertex 3 5 2
    endloop
  endfacet
  facet normal 0.987688 0.156435 0
    outer loop
      vertex 3 5 2
      vertex 3.09299 4.41287 2
      vertex 3.09299 4.41287 0
    endloop
  endfacet
  facet normal 0.987688 0.156435 0
    outer loop
      vertex 3 5 0
      vertex 3 5 2
      vertex 3.09299 4.41287 0
    endloop
  endfacet
  facet normal 0.891007 -0.45399 0
    outer loop
      vertex 3.36287 6.11679 0
      vertex 3.36287 6.11679 2
      vertex 3.09299 5.58713 2
    endloop
  endfacet
  facet normal 0.891007 -0.45399 0
    outer loop
      vertex 3.09299 5.58713 0
      vertex 3.36287 6.11679 0
      vertex 3.09299 5.58713 2
    endloop
  endfacet
  facet normal 0.707107 -0.707107 0
    outer loop
      vertex 3.78321 6.53713 0
      vertex 3.78321 6.53713 2
      vertex 3.36287 6.11679 2
    endloop
  endfacet
  facet normal 0.707107 -0.707107 0
    outer loop
      vertex 3.36287 6.11679 0
      vertex 3.78321 6.53713 0
      vertex 3.36287 6.11679 2
    endloop
  endfacet
  facet normal 0.45399 -0.891007 0
    outer loop
      vertex 4.31287 6.80701 0
      vertex 4.31287 6.80701 2
      vertex 3.78321 6.53713 2
    endloop
  endfacet
  facet normal 0.45399 -0.891007 0
    outer loop
      vertex 3.78321 6.53713 0
      vertex 4.31287 6.80701 0
      vertex 3.78321 6.53713 2
    endloop
  endfacet
  facet normal 0.156435 -0.987688 0
    outer loop
      vertex 4.9 6.9 0
      vertex 4.9 6.9 2
      vertex 4.31287 6.80701 2
    endloop
  endfacet
  facet normal 0.156435 -0.987688 0
    outer loop
      vertex 4.31287 6.80701 0
      vertex 4.9 6.9 0
      vertex 4.31287 6.80701 2
    endloop
  endfacet
  facet normal -0.156435 -0.987688 0
    outer loop
      vertex 5.48713 6.80701 0
      vertex 5.48713 6.80701 2
      vertex 4.9 6.9 2
    endloop
  endfacet
  facet normal -0.156435 -0.987688 0
    outer loop
      vertex 4.9 6.9 0
      vertex 5.48713 6.80701 0
      vertex 4.9 6.9 2
    endloop
  endfacet
  facet normal -0.45399 -0.891007 0
    outer loop
      vertex 6.01679 6.53713 0
      vertex 6.01679 6.53713 2
      vertex 5.48713 6.80701 2
    endloop
  endfacet
  facet normal -0.45399 -0.891007 0
    outer loop
      vertex 5.48713 6.80701 0
      vertex 6.01679 6.53713 0
      vertex 5.48713 6.80701 2
    endloop
  endfacet
  facet normal -0.707107 -0.707107 0
    outer loop
      vertex 6.43713 6.11679 0
      vertex 6.43713 6.11679 2
      vertex 6.01679 6.53713 2
    endloop
  endfacet
  facet normal -0.707107 -0.707107 0
    outer loop
      vertex 6.01679 6.53713 0
      vertex 6.43713 6.11679 0
      vertex 6.01679 6.53713 2
    endloop
  endfacet
  facet normal -0.891007 -0.45399 0
    outer loop
      vertex 6.70701 5.58713 2
      vertex 6.43713 6.11679 2
      vertex 6.70701 5.58713 0
    endloop
  endfacet
  facet normal -0.891007 -0.45399 0
    outer loop
      vertex 6.70701 5.58713 0
      vertex 6.43713 6.11679 2
      vertex 6.43713 6.11679 0
    endloop
  endfacet
  facet normal -0.987688 -0.156435 0
    outer loop
      vertex 6.8 5 2
      vertex 6.70701 5.58713 2
      vertex 6.8 5 0
    endloop
  endfacet
  facet normal -0.987688 -0.156435 0
    outer loop
      vertex 6.8 5 0
      vertex 6.70701 5.58713 2
      vertex 6.70701 5.58713 0
    endloop
  endfacet
  facet normal -0.987688 0.156435 0
    outer loop
      vertex 6.8 5 2
      vertex 6.8 5 0
      vertex 6.70701 4.41287 2
    endloop
  endfacet
  facet normal -0.987688 0.156435 0
    outer loop
      vertex 6.70701 4.41287 2
      vertex 6.8 5 0
      vertex 6.70701 4.41287 0
    endloop
  endfacet
  facet normal -0.891007 0.45399 0
    outer loop
      vertex 6.70701 4.41287 2
      vertex 6.70701 4.41287 0
      vertex 6.43713 3.88321 2
    endloop
  endfacet
  facet normal -0.891007 0.45399 0
    outer loop
      vertex 6.43713 3.88321 2
      vertex 6.70701 4.41287 0
      vertex 6.43713 3.88321 0
    endloop
  endfacet
  facet normal -0.707107 0.707107 0
    outer loop
      vertex 6.43713 3.88321 2
      vertex 6.43713 3.88321 0
      vertex 6.01679 3.46287 2
    endloop
  endfacet
  facet normal -0.707107 0.707107 0
    outer loop
      vertex 6.01679 3.46287 2
      vertex 6.43713 3.88321 0
      vertex 6.01679 3.46287 0
    endloop
  endfacet
  facet normal -0.45399 0.891007 0
    outer loop
      vertex 6.01679 3.46287 2
      vertex 6.01679 3.46287 0
      vertex 5.48713 3.19299 2
    endloop
  endfacet
  facet normal -0.45399 0.891007 0
    outer loop
      vertex 5.48713 3.19299 2
      vertex 6.01679 3.46287 0
      vertex 5.48713 3.19299 0
    endloop
  endfacet
  facet normal -0.156435 0.987688 0
    outer loop
      vertex 5.48713 3.19299 2
      vertex 5.48713 3.19299 0
      vertex 4.9 3.1 2
    endloop
  endfacet
  facet normal -0.156435 0.987688 0
    outer loop
      vertex 4.9 3.1 2
      vertex 5.48713 3.19299 0
      vertex 4.9 3.1 0
    endloop
  endfacet
  facet normal 0.156435 0.987688 0
    outer loop
      vertex 4.9 3.1 2
      vertex 4.9 3.1 0
      vertex 4.31287 3.19299 2
    endloop
  endfacet
  facet normal 0.156435 0.987688 0
    outer loop
      vertex 4.31287 3.19299 2
      vertex 4.9 3.1 0
      vertex 4.31287 3.19299 0
    endloop
  endfacet
  facet normal 0.45399 0.891007 0
    outer loop
      vertex 4.31287 3.19299 2
      vertex 4.31287 3.19299 0
      vertex 3.78321 3.46287 2
    endloop
  endfacet
  facet normal 0.45399 0.891007 0
    outer loop
      vertex 3.78321 3.46287 2
      vertex 4.31287 3.19299 0
      vertex 3.78321 3.46287 0
    endloop
  endfacet
  facet normal 0.707107 0.707107 0
    outer loop
      vertex 3.78321 3.46287 2
      vertex 3.78321 3.46287 0
      vertex 3.36287 3.88321 2
    endloop
  endfacet
  facet normal 0.707107 0.707107 0
    outer loop
      vertex 3.36287 3.88321 2
      vertex 3.78321 3.46287 0
      vertex 3.36287 3.88321 0
    endloop
  endfacet
  facet normal 0.891007 0.45399 0
    outer loop
      vertex 3.09299 4.41287 2
      vertex 3.36287 3.88321 2
      vertex 3.36287 3.88321 0
    endloop
  endfacet
  facet normal 0.891007 0.45399 0
    outer loop
      vertex 3.09299 4.41287 0
      vertex 3.09299 4.41287 2
      vertex 3.36287 3.88321 0
    endloop
  endfacet
  facet normal 0.866025 0.5 0
    outer loop
      vertex 1.4 5 9
      vertex 2.4 3.26795 9
      vertex 2.4 3.26795 2
    endloop
  endfacet
  facet normal 0.866025 0.5 0
    outer loop
      vertex 1.4 5 2
      vertex 1.4 5 9
      vertex 2.4 3.26795 2
    endloop
  endfacet
  facet normal 0.866025 -0.5 0
    outer loop
      vertex 2.4 6.73205 2
      vertex 2.4 6.73205 9
      vertex 1.4 5 9
    endloop
  endfacet
  facet normal 0.866025 -0.5 0
    outer loop
      vertex 1.4 5 2
      vertex 2.4 6.73205 2
      vertex 1.4 5 9
    endloop
  endfacet
  facet normal 0 0 -1
    outer loop
      vertex 2.4 6.73205 9
      vertex 2.4 3.26795 9
      vertex 1.4 5 9
    endloop
  endfacet
  facet normal -0.866025 -0.5 0
    outer loop
      vertex 8.4 5 9
      vertex 7.4 6.73205 9
      vertex 8.4 5 2
    endloop
  endfacet
  facet normal -0.866025 -0.5 0
    outer loop
      vertex 8.4 5 2
      vertex 7.4 6.73205 9
      vertex 7.4 6.73205 2
    endloop
  endfacet
  facet normal -0.866025 0.5 0
    outer loop
      vertex 8.4 5 9
      vertex 8.4 5 2
      vertex 7.4 3.26795 9
    endloop
  endfacet
  facet normal -0.866025 0.5 0
    outer loop
      vertex 7.4 3.26795 9
      vertex 8.4 5 2
      vertex 7.4 3.26795 2
    endloop
  endfacet
  facet normal 0 0 -1
    outer loop
      vertex 7.4 6.73205 9
      vertex 8.4 5 9
      vertex 7.4 3.26795 9
    endloop
  endfacet
endsolid OpenSCAD_Model
