solid OpenSCAD_Model
  facet normal -1 -0 -0
    outer loop
      vertex -33.7 -15 2.12132
      vertex -33.7 -15 5
      vertex -33.7 -12.8787 0
    endloop
  endfacet
  facet normal -1 0 -0
    outer loop
      vertex -33.7 -12.8787 0
      vertex -33.7 -15 5
      vertex -33.7 15 5
    endloop
  endfacet
  facet normal -1 0 0
    outer loop
      vertex -33.7 -12.8787 0
      vertex -33.7 15 5
      vertex -33.7 15 2.12132
    endloop
  endfacet
  facet normal -1 -0 0
    outer loop
      vertex -33.7 -12.8787 0
      vertex -33.7 15 2.12132
      vertex -33.7 12.8787 0
    endloop
  endfacet
  facet normal 0 -1 0
    outer loop
      vertex -33.7 -15 5
      vertex -33.7 -15 2.12132
      vertex -14.5974 -15 2.12132
    endloop
  endfacet
  facet normal 0 -1 0
    outer loop
      vertex -14.5974 -15 5
      vertex -33.7 -15 5
      vertex -14.5974 -15 2.12132
    endloop
  endfacet
  facet normal 0 -0.707107 -0.707107
    outer loop
      vertex -16.5075 -12.8787 0
      vertex -14.5974 -15 2.12132
      vertex -33.7 -12.8787 0
    endloop
  endfacet
  facet normal 8.73748e-019 -0.707107 -0.707107
    outer loop
      vertex -33.7 -12.8787 0
      vertex -14.5974 -15 2.12132
      vertex -33.7 -15 2.12132
    endloop
  endfacet
  facet normal 0 -0 -1
    outer loop
      vertex -16.9894 12.3435 0
      vertex -33.7 12.8787 0
      vertex -16.5075 12.8787 0
    endloop
  endfacet
  facet normal 0 -0 -1
    outer loop
      vertex -19.1845 8.54147 0
      vertex -33.7 12.8787 0
      vertex -16.9894 12.3435 0
    endloop
  endfacet
  facet normal 0 -0 -1
    outer loop
      vertex -20.5411 4.36615 0
      vertex -33.7 12.8787 0
      vertex -19.1845 8.54147 0
    endloop
  endfacet
  facet normal -0 -0 -1
    outer loop
      vertex -26.2904 6.64841 0
      vertex -33.7 12.8787 0
      vertex -20.5411 4.36615 0
    endloop
  endfacet
  facet normal 0 -0 -1
    outer loop
      vertex -29.0303 6.51167 0
      vertex -33.7 12.8787 0
      vertex -28.1705 6.97992 0
    endloop
  endfacet
  facet normal 0 0 -1
    outer loop
      vertex -26.1189 3.21263 0
      vertex -20.5411 -4.36615 0
      vertex -19.1845 -8.54147 0
    endloop
  endfacet
  facet normal 0 0 -1
    outer loop
      vertex -27.9566 2.69557 0
      vertex -16.9894 -12.3435 0
      vertex -28.8589 3.07588 0
    endloop
  endfacet
  facet normal -0 0 -1
    outer loop
      vertex -33.7 -12.8787 0
      vertex -16.9894 -12.3435 0
      vertex -16.5075 -12.8787 0
    endloop
  endfacet
  facet normal 0 -0 -1
    outer loop
      vertex -33.7 -12.8787 0
      vertex -33.7 12.8787 0
      vertex -29.6019 5.71671 0
    endloop
  endfacet
  facet normal 0 0 -1
    outer loop
      vertex -26.1189 3.21263 0
      vertex -19.1845 -8.54147 0
      vertex -26.9788 2.74438 0
    endloop
  endfacet
  facet normal 0 0 -1
    outer loop
      vertex -33.7 -12.8787 0
      vertex -29.6019 5.71671 0
      vertex -29.7719 4.75249 0
    endloop
  endfacet
  facet normal 0 0 -1
    outer loop
      vertex -33.7 -12.8787 0
      vertex -29.7719 4.75249 0
      vertex -29.5067 3.80999 0
    endloop
  endfacet
  facet normal -0 -0 -1
    outer loop
      vertex -25.5474 -4.00759 0
      vertex -29.5067 3.80999 0
      vertex -16.9894 -12.3435 0
    endloop
  endfacet
  facet normal 0 0 -1
    outer loop
      vertex -29.5067 3.80999 0
      vertex -28.8589 3.07588 0
      vertex -16.9894 -12.3435 0
    endloop
  endfacet
  facet normal 0 0 -1
    outer loop
      vertex -26.9788 2.74438 0
      vertex -16.9894 -12.3435 0
      vertex -27.9566 2.69557 0
    endloop
  endfacet
  facet normal 0 -0 -1
    outer loop
      vertex -29.6019 5.71671 0
      vertex -33.7 12.8787 0
      vertex -29.0303 6.51167 0
    endloop
  endfacet
  facet normal 0 0 -1
    outer loop
      vertex -25.3774 4.97181 0
      vertex -21 0 0
      vertex -25.5474 4.00759 0
    endloop
  endfacet
  facet normal 0 0 -1
    outer loop
      vertex -20.5411 -4.36615 0
      vertex -26.1189 3.21263 0
      vertex -21 0 0
    endloop
  endfacet
  facet normal -0 0 -1
    outer loop
      vertex -26.1189 3.21263 0
      vertex -25.5474 4.00759 0
      vertex -21 0 0
    endloop
  endfacet
  facet normal -0 -0 -1
    outer loop
      vertex -27.1926 7.02873 0
      vertex -33.7 12.8787 0
      vertex -26.2904 6.64841 0
    endloop
  endfacet
  facet normal 0 -0 -1
    outer loop
      vertex -21 0 0
      vertex -25.3774 4.97181 0
      vertex -20.5411 4.36615 0
    endloop
  endfacet
  facet normal 0 -0 -1
    outer loop
      vertex -28.1705 6.97992 0
      vertex -33.7 12.8787 0
      vertex -27.1926 7.02873 0
    endloop
  endfacet
  facet normal -0 -0 -1
    outer loop
      vertex -25.3774 4.97181 0
      vertex -25.6425 5.91431 0
      vertex -20.5411 4.36615 0
    endloop
  endfacet
  facet normal -0 -0 -1
    outer loop
      vertex -25.6425 5.91431 0
      vertex -26.2904 6.64841 0
      vertex -20.5411 4.36615 0
    endloop
  endfacet
  facet normal 0 0 -1
    outer loop
      vertex -33.7 -12.8787 0
      vertex -29.5067 3.80999 0
      vertex -29.7719 -4.75249 0
    endloop
  endfacet
  facet normal 0 0 -1
    outer loop
      vertex -33.7 -12.8787 0
      vertex -29.7719 -4.75249 0
      vertex -29.6019 -5.71671 0
    endloop
  endfacet
  facet normal 0 0 -1
    outer loop
      vertex -33.7 -12.8787 0
      vertex -29.6019 -5.71671 0
      vertex -29.0303 -6.51167 0
    endloop
  endfacet
  facet normal 0 0 -1
    outer loop
      vertex -33.7 -12.8787 0
      vertex -29.0303 -6.51167 0
      vertex -28.1705 -6.97992 0
    endloop
  endfacet
  facet normal 0 0 -1
    outer loop
      vertex -33.7 -12.8787 0
      vertex -28.1705 -6.97992 0
      vertex -16.9894 -12.3435 0
    endloop
  endfacet
  facet normal 0 0 -1
    outer loop
      vertex -26.2904 -6.64841 0
      vertex -16.9894 -12.3435 0
      vertex -27.1926 -7.02873 0
    endloop
  endfacet
  facet normal -0 -0 -1
    outer loop
      vertex -26.9788 -2.74438 0
      vertex -29.5067 3.80999 0
      vertex -26.1189 -3.21263 0
    endloop
  endfacet
  facet normal -0 -0 -1
    outer loop
      vertex -27.9566 -2.69557 0
      vertex -29.5067 3.80999 0
      vertex -26.9788 -2.74438 0
    endloop
  endfacet
  facet normal -0 0 -1
    outer loop
      vertex -26.2904 -6.64841 0
      vertex -25.6425 -5.91431 0
      vertex -16.9894 -12.3435 0
    endloop
  endfacet
  facet normal -0 0 -1
    outer loop
      vertex -25.6425 -5.91431 0
      vertex -25.3774 -4.97181 0
      vertex -16.9894 -12.3435 0
    endloop
  endfacet
  facet normal -0 -0 -1
    outer loop
      vertex -26.1189 -3.21263 0
      vertex -29.5067 3.80999 0
      vertex -25.5474 -4.00759 0
    endloop
  endfacet
  facet normal -0 -0 -1
    outer loop
      vertex -25.3774 -4.97181 0
      vertex -25.5474 -4.00759 0
      vertex -16.9894 -12.3435 0
    endloop
  endfacet
  facet normal 0 -0 -1
    outer loop
      vertex -28.8589 -3.07588 0
      vertex -29.5067 3.80999 0
      vertex -27.9566 -2.69557 0
    endloop
  endfacet
  facet normal 0 -0 -1
    outer loop
      vertex -29.5067 -3.80999 0
      vertex -29.5067 3.80999 0
      vertex -28.8589 -3.07588 0
    endloop
  endfacet
  facet normal 0 0 -1
    outer loop
      vertex -29.7719 -4.75249 0
      vertex -29.5067 3.80999 0
      vertex -29.5067 -3.80999 0
    endloop
  endfacet
  facet normal 0 0 -1
    outer loop
      vertex -27.1926 -7.02873 0
      vertex -16.9894 -12.3435 0
      vertex -28.1705 -6.97992 0
    endloop
  endfacet
  facet normal 0 0 -1
    outer loop
      vertex -16.9894 -12.3435 0
      vertex -26.9788 2.74438 0
      vertex -19.1845 -8.54147 0
    endloop
  endfacet
  facet normal 0 0.707107 -0.707107
    outer loop
      vertex -14.5974 15 2.12132
      vertex -16.5075 12.8787 0
      vertex -33.7 15 2.12132
    endloop
  endfacet
  facet normal 2.71351e-018 0.707107 -0.707107
    outer loop
      vertex -33.7 15 2.12132
      vertex -16.5075 12.8787 0
      vertex -33.7 12.8787 0
    endloop
  endfacet
  facet normal 0 1 0
    outer loop
      vertex -33.7 15 2.12132
      vertex -33.7 15 5
      vertex -14.5974 15 2.12132
    endloop
  endfacet
  facet normal 0 1 0
    outer loop
      vertex -14.5974 15 2.12132
      vertex -33.7 15 5
      vertex -14.5974 15 5
    endloop
  endfacet
  facet normal 0 -0 1
    outer loop
      vertex -16.9894 -12.3435 5
      vertex -33.7 -15 5
      vertex -14.5974 -15 5
    endloop
  endfacet
  facet normal 0 -0 1
    outer loop
      vertex -30.2558 -7.11191 5
      vertex -33.7 -15 5
      vertex -16.9894 -12.3435 5
    endloop
  endfacet
  facet normal 0 0 1
    outer loop
      vertex -24.8935 2.61239 5
      vertex -19.1845 -8.54147 5
      vertex -20.5411 -4.36615 5
    endloop
  endfacet
  facet normal 0 -0 1
    outer loop
      vertex -24.8935 2.61239 5
      vertex -24.8935 -2.61239 5
      vertex -19.1845 -8.54147 5
    endloop
  endfacet
  facet normal -0 0 1
    outer loop
      vertex -19.1845 8.54147 5
      vertex -33.7 15 5
      vertex -20.5411 4.36615 5
    endloop
  endfacet
  facet normal -0 0 1
    outer loop
      vertex -16.9894 12.3435 5
      vertex -33.7 15 5
      vertex -19.1845 8.54147 5
    endloop
  endfacet
  facet normal 0 0 1
    outer loop
      vertex -14.5974 15 5
      vertex -33.7 15 5
      vertex -16.9894 12.3435 5
    endloop
  endfacet
  facet normal 0 0 1
    outer loop
      vertex -24.8935 -2.61239 5
      vertex -24.2857 -6.05922 5
      vertex -16.9894 -12.3435 5
    endloop
  endfacet
  facet normal 0 -0 1
    outer loop
      vertex -33.7 15 5
      vertex -33.7 -15 5
      vertex -30.8635 3.66508 5
    endloop
  endfacet
  facet normal 0 0 1
    outer loop
      vertex -33.7 15 5
      vertex -30.8635 3.66508 5
      vertex -30.2558 7.11191 5
    endloop
  endfacet
  facet normal -0 -0 1
    outer loop
      vertex -19.1845 -8.54147 5
      vertex -24.8935 -2.61239 5
      vertex -16.9894 -12.3435 5
    endloop
  endfacet
  facet normal 0 0 1
    outer loop
      vertex -20.5411 4.36615 5
      vertex -33.7 15 5
      vertex -26.9668 8.30898 5
    endloop
  endfacet
  facet normal -0 0 1
    outer loop
      vertex -20.5411 4.36615 5
      vertex -24.2857 6.05922 5
      vertex -21 0 5
    endloop
  endfacet
  facet normal 0 0 1
    outer loop
      vertex -20.5411 4.36615 5
      vertex -26.9668 8.30898 5
      vertex -24.2857 6.05922 5
    endloop
  endfacet
  facet normal -0 -0 1
    outer loop
      vertex -21 0 5
      vertex -24.8935 2.61239 5
      vertex -20.5411 -4.36615 5
    endloop
  endfacet
  facet normal 0 -0 1
    outer loop
      vertex -24.2857 6.05922 5
      vertex -24.8935 2.61239 5
      vertex -21 0 5
    endloop
  endfacet
  facet normal -0 -0 1
    outer loop
      vertex -26.9668 -8.30898 5
      vertex -30.2558 -7.11191 5
      vertex -16.9894 -12.3435 5
    endloop
  endfacet
  facet normal 0 -0 1
    outer loop
      vertex -30.8635 -3.66508 5
      vertex -33.7 -15 5
      vertex -30.2558 -7.11191 5
    endloop
  endfacet
  facet normal 0 0 1
    outer loop
      vertex -28.1824 -1.41532 5
      vertex -28.1824 1.41532 5
      vertex -30.8635 3.66508 5
    endloop
  endfacet
  facet normal 0 0 1
    outer loop
      vertex -30.8635 3.66508 5
      vertex -33.7 -15 5
      vertex -30.8635 -3.66508 5
    endloop
  endfacet
  facet normal 0 0 1
    outer loop
      vertex -30.8635 -3.66508 5
      vertex -28.1824 -1.41532 5
      vertex -30.8635 3.66508 5
    endloop
  endfacet
  facet normal 0 -0 1
    outer loop
      vertex -24.2857 -6.05922 5
      vertex -26.9668 -8.30898 5
      vertex -16.9894 -12.3435 5
    endloop
  endfacet
  facet normal 0 0 1
    outer loop
      vertex -24.8935 2.61239 5
      vertex -28.1824 1.41532 5
      vertex -24.8935 -2.61239 5
    endloop
  endfacet
  facet normal 0 0 1
    outer loop
      vertex -28.1824 -1.41532 5
      vertex -24.8935 -2.61239 5
      vertex -28.1824 1.41532 5
    endloop
  endfacet
  facet normal 0 0 1
    outer loop
      vertex -30.2558 7.11191 5
      vertex -26.9668 8.30898 5
      vertex -33.7 15 5
    endloop
  endfacet
  facet normal 0.743145 0.669131 0
    outer loop
      vertex -16.9894 -12.3435 5
      vertex -14.5974 -15 5
      vertex -14.5974 -15 2.12132
    endloop
  endfacet
  facet normal 0.743145 0.669131 0
    outer loop
      vertex -16.9894 -12.3435 0
      vertex -16.9894 -12.3435 5
      vertex -16.5075 -12.8787 0
    endloop
  endfacet
  facet normal 0.743145 0.669131 3.23577e-016
    outer loop
      vertex -16.5075 -12.8787 0
      vertex -16.9894 -12.3435 5
      vertex -14.5974 -15 2.12132
    endloop
  endfacet
  facet normal 0.866025 0.5 0
    outer loop
      vertex -19.1845 -8.54147 5
      vertex -16.9894 -12.3435 5
      vertex -16.9894 -12.3435 0
    endloop
  endfacet
  facet normal 0.866025 0.5 0
    outer loop
      vertex -19.1845 -8.54147 0
      vertex -19.1845 -8.54147 5
      vertex -16.9894 -12.3435 0
    endloop
  endfacet
  facet normal 0.951057 0.309017 0
    outer loop
      vertex -20.5411 -4.36615 5
      vertex -19.1845 -8.54147 5
      vertex -19.1845 -8.54147 0
    endloop
  endfacet
  facet normal 0.951057 0.309017 0
    outer loop
      vertex -20.5411 -4.36615 0
      vertex -20.5411 -4.36615 5
      vertex -19.1845 -8.54147 0
    endloop
  endfacet
  facet normal 0.994522 0.104528 0
    outer loop
      vertex -21 0 5
      vertex -20.5411 -4.36615 5
      vertex -20.5411 -4.36615 0
    endloop
  endfacet
  facet normal 0.994522 0.104528 0
    outer loop
      vertex -21 0 0
      vertex -21 0 5
      vertex -20.5411 -4.36615 0
    endloop
  endfacet
  facet normal 0.994522 -0.104528 0
    outer loop
      vertex -20.5411 4.36615 0
      vertex -20.5411 4.36615 5
      vertex -21 0 5
    endloop
  endfacet
  facet normal 0.994522 -0.104528 0
    outer loop
      vertex -21 0 0
      vertex -20.5411 4.36615 0
      vertex -21 0 5
    endloop
  endfacet
  facet normal 0.951057 -0.309017 0
    outer loop
      vertex -19.1845 8.54147 0
      vertex -19.1845 8.54147 5
      vertex -20.5411 4.36615 5
    endloop
  endfacet
  facet normal 0.951057 -0.309017 0
    outer loop
      vertex -20.5411 4.36615 0
      vertex -19.1845 8.54147 0
      vertex -20.5411 4.36615 5
    endloop
  endfacet
  facet normal 0.866025 -0.5 0
    outer loop
      vertex -16.9894 12.3435 0
      vertex -16.9894 12.3435 5
      vertex -19.1845 8.54147 5
    endloop
  endfacet
  facet normal 0.866025 -0.5 0
    outer loop
      vertex -19.1845 8.54147 0
      vertex -16.9894 12.3435 0
      vertex -19.1845 8.54147 5
    endloop
  endfacet
  facet normal 0.743145 -0.669131 0
    outer loop
      vertex -16.5075 12.8787 0
      vertex -14.5974 15 2.12132
      vertex -14.5974 15 5
    endloop
  endfacet
  facet normal 0.743145 -0.669131 0
    outer loop
      vertex -16.9894 12.3435 0
      vertex -16.5075 12.8787 0
      vertex -16.9894 12.3435 5
    endloop
  endfacet
  facet normal 0.743145 -0.669131 2.85836e-016
    outer loop
      vertex -16.9894 12.3435 5
      vertex -16.5075 12.8787 0
      vertex -14.5974 15 5
    endloop
  endfacet
  facet normal 0.811938 -0.583743 0
    outer loop
      vertex -29.0303 6.51167 0
      vertex -29.0303 6.51167 2
      vertex -29.6019 5.71671 2
    endloop
  endfacet
  facet normal 0.811938 -0.583743 0
    outer loop
      vertex -29.6019 5.71671 0
      vertex -29.0303 6.51167 0
      vertex -29.6019 5.71671 2
    endloop
  endfacet
  facet normal 0.984808 -0.173648 0
    outer loop
      vertex -29.6019 5.71671 0
      vertex -29.6019 5.71671 2
      vertex -29.7719 4.75249 2
    endloop
  endfacet
  facet normal 0.984808 -0.173648 0
    outer loop
      vertex -29.7719 4.75249 0
      vertex -29.6019 5.71671 0
      vertex -29.7719 4.75249 2
    endloop
  endfacet
  facet normal 0.478254 -0.878222 0
    outer loop
      vertex -28.1705 6.97992 0
      vertex -28.1705 6.97992 2
      vertex -29.0303 6.51167 2
    endloop
  endfacet
  facet normal 0.478254 -0.878222 0
    outer loop
      vertex -29.0303 6.51167 0
      vertex -28.1705 6.97992 0
      vertex -29.0303 6.51167 2
    endloop
  endfacet
  facet normal 0.0498454 -0.998757 0
    outer loop
      vertex -27.1926 7.02873 0
      vertex -27.1926 7.02873 2
      vertex -28.1705 6.97992 2
    endloop
  endfacet
  facet normal 0.0498454 -0.998757 0
    outer loop
      vertex -28.1705 6.97992 0
      vertex -27.1926 7.02873 0
      vertex -28.1705 6.97992 2
    endloop
  endfacet
  facet normal -0.388434 -0.921476 -0
    outer loop
      vertex -26.2904 6.64841 0
      vertex -26.2904 6.64841 2
      vertex -27.1926 7.02873 2
    endloop
  endfacet
  facet normal -0.388434 -0.921476 -0
    outer loop
      vertex -27.1926 7.02873 0
      vertex -26.2904 6.64841 0
      vertex -27.1926 7.02873 2
    endloop
  endfacet
  facet normal -0.749781 -0.661686 0
    outer loop
      vertex -25.6425 5.91431 2
      vertex -26.2904 6.64841 2
      vertex -25.6425 5.91431 0
    endloop
  endfacet
  facet normal -0.749781 -0.661686 0
    outer loop
      vertex -25.6425 5.91431 0
      vertex -26.2904 6.64841 2
      vertex -26.2904 6.64841 0
    endloop
  endfacet
  facet normal -0.962624 -0.27084 0
    outer loop
      vertex -25.3774 4.97181 2
      vertex -25.6425 5.91431 2
      vertex -25.3774 4.97181 0
    endloop
  endfacet
  facet normal -0.962624 -0.27084 0
    outer loop
      vertex -25.3774 4.97181 0
      vertex -25.6425 5.91431 2
      vertex -25.6425 5.91431 0
    endloop
  endfacet
  facet normal -0.984808 0.173648 0
    outer loop
      vertex -25.3774 4.97181 2
      vertex -25.3774 4.97181 0
      vertex -25.5474 4.00759 2
    endloop
  endfacet
  facet normal -0.984808 0.173648 0
    outer loop
      vertex -25.5474 4.00759 2
      vertex -25.3774 4.97181 0
      vertex -25.5474 4.00759 0
    endloop
  endfacet
  facet normal -0.811938 0.583743 0
    outer loop
      vertex -25.5474 4.00759 2
      vertex -25.5474 4.00759 0
      vertex -26.1189 3.21263 2
    endloop
  endfacet
  facet normal -0.811938 0.583743 0
    outer loop
      vertex -26.1189 3.21263 2
      vertex -25.5474 4.00759 0
      vertex -26.1189 3.21263 0
    endloop
  endfacet
  facet normal -0.478254 0.878222 0
    outer loop
      vertex -26.1189 3.21263 2
      vertex -26.1189 3.21263 0
      vertex -26.9788 2.74438 2
    endloop
  endfacet
  facet normal -0.478254 0.878222 0
    outer loop
      vertex -26.9788 2.74438 2
      vertex -26.1189 3.21263 0
      vertex -26.9788 2.74438 0
    endloop
  endfacet
  facet normal -0.0498454 0.998757 0
    outer loop
      vertex -26.9788 2.74438 2
      vertex -26.9788 2.74438 0
      vertex -27.9566 2.69557 2
    endloop
  endfacet
  facet normal -0.0498454 0.998757 0
    outer loop
      vertex -27.9566 2.69557 2
      vertex -26.9788 2.74438 0
      vertex -27.9566 2.69557 0
    endloop
  endfacet
  facet normal 0.388434 0.921476 -0
    outer loop
      vertex -27.9566 2.69557 2
      vertex -27.9566 2.69557 0
      vertex -28.8589 3.07588 2
    endloop
  endfacet
  facet normal 0.388434 0.921476 -0
    outer loop
      vertex -28.8589 3.07588 2
      vertex -27.9566 2.69557 0
      vertex -28.8589 3.07588 0
    endloop
  endfacet
  facet normal 0.749781 0.661686 0
    outer loop
      vertex -29.5067 3.80999 2
      vertex -28.8589 3.07588 2
      vertex -28.8589 3.07588 0
    endloop
  endfacet
  facet normal 0.749781 0.661686 0
    outer loop
      vertex -29.5067 3.80999 0
      vertex -29.5067 3.80999 2
      vertex -28.8589 3.07588 0
    endloop
  endfacet
  facet normal 0.962624 0.27084 0
    outer loop
      vertex -29.7719 4.75249 2
      vertex -29.5067 3.80999 2
      vertex -29.5067 3.80999 0
    endloop
  endfacet
  facet normal 0.962624 0.27084 0
    outer loop
      vertex -29.7719 4.75249 0
      vertex -29.7719 4.75249 2
      vertex -29.5067 3.80999 0
    endloop
  endfacet
  facet normal 0.962624 -0.27084 0
    outer loop
      vertex -29.5067 -3.80999 0
      vertex -29.5067 -3.80999 2
      vertex -29.7719 -4.75249 2
    endloop
  endfacet
  facet normal 0.962624 -0.27084 0
    outer loop
      vertex -29.7719 -4.75249 0
      vertex -29.5067 -3.80999 0
      vertex -29.7719 -4.75249 2
    endloop
  endfacet
  facet normal 0.984808 0.173648 0
    outer loop
      vertex -29.7719 -4.75249 2
      vertex -29.6019 -5.71671 2
      vertex -29.6019 -5.71671 0
    endloop
  endfacet
  facet normal 0.984808 0.173648 0
    outer loop
      vertex -29.7719 -4.75249 0
      vertex -29.7719 -4.75249 2
      vertex -29.6019 -5.71671 0
    endloop
  endfacet
  facet normal 0.749781 -0.661686 0
    outer loop
      vertex -28.8589 -3.07588 0
      vertex -28.8589 -3.07588 2
      vertex -29.5067 -3.80999 2
    endloop
  endfacet
  facet normal 0.749781 -0.661686 0
    outer loop
      vertex -29.5067 -3.80999 0
      vertex -28.8589 -3.07588 0
      vertex -29.5067 -3.80999 2
    endloop
  endfacet
  facet normal 0.388434 -0.921476 0
    outer loop
      vertex -27.9566 -2.69557 0
      vertex -27.9566 -2.69557 2
      vertex -28.8589 -3.07588 2
    endloop
  endfacet
  facet normal 0.388434 -0.921476 0
    outer loop
      vertex -28.8589 -3.07588 0
      vertex -27.9566 -2.69557 0
      vertex -28.8589 -3.07588 2
    endloop
  endfacet
  facet normal -0.0498454 -0.998757 -0
    outer loop
      vertex -26.9788 -2.74438 0
      vertex -26.9788 -2.74438 2
      vertex -27.9566 -2.69557 2
    endloop
  endfacet
  facet normal -0.0498454 -0.998757 -0
    outer loop
      vertex -27.9566 -2.69557 0
      vertex -26.9788 -2.74438 0
      vertex -27.9566 -2.69557 2
    endloop
  endfacet
  facet normal -0.478254 -0.878222 -0
    outer loop
      vertex -26.1189 -3.21263 0
      vertex -26.1189 -3.21263 2
      vertex -26.9788 -2.74438 2
    endloop
  endfacet
  facet normal -0.478254 -0.878222 -0
    outer loop
      vertex -26.9788 -2.74438 0
      vertex -26.1189 -3.21263 0
      vertex -26.9788 -2.74438 2
    endloop
  endfacet
  facet normal -0.811938 -0.583743 0
    outer loop
      vertex -25.5474 -4.00759 2
      vertex -26.1189 -3.21263 2
      vertex -25.5474 -4.00759 0
    endloop
  endfacet
  facet normal -0.811938 -0.583743 0
    outer loop
      vertex -25.5474 -4.00759 0
      vertex -26.1189 -3.21263 2
      vertex -26.1189 -3.21263 0
    endloop
  endfacet
  facet normal -0.984808 -0.173648 0
    outer loop
      vertex -25.3774 -4.97181 2
      vertex -25.5474 -4.00759 2
      vertex -25.3774 -4.97181 0
    endloop
  endfacet
  facet normal -0.984808 -0.173648 0
    outer loop
      vertex -25.3774 -4.97181 0
      vertex -25.5474 -4.00759 2
      vertex -25.5474 -4.00759 0
    endloop
  endfacet
  facet normal -0.962624 0.27084 0
    outer loop
      vertex -25.3774 -4.97181 2
      vertex -25.3774 -4.97181 0
      vertex -25.6425 -5.91431 2
    endloop
  endfacet
  facet normal -0.962624 0.27084 0
    outer loop
      vertex -25.6425 -5.91431 2
      vertex -25.3774 -4.97181 0
      vertex -25.6425 -5.91431 0
    endloop
  endfacet
  facet normal -0.749781 0.661686 0
    outer loop
      vertex -25.6425 -5.91431 2
      vertex -25.6425 -5.91431 0
      vertex -26.2904 -6.64841 2
    endloop
  endfacet
  facet normal -0.749781 0.661686 0
    outer loop
      vertex -26.2904 -6.64841 2
      vertex -25.6425 -5.91431 0
      vertex -26.2904 -6.64841 0
    endloop
  endfacet
  facet normal -0.388434 0.921476 0
    outer loop
      vertex -26.2904 -6.64841 2
      vertex -26.2904 -6.64841 0
      vertex -27.1926 -7.02873 2
    endloop
  endfacet
  facet normal -0.388434 0.921476 0
    outer loop
      vertex -27.1926 -7.02873 2
      vertex -26.2904 -6.64841 0
      vertex -27.1926 -7.02873 0
    endloop
  endfacet
  facet normal 0.0498454 0.998757 -0
    outer loop
      vertex -27.1926 -7.02873 2
      vertex -27.1926 -7.02873 0
      vertex -28.1705 -6.97992 2
    endloop
  endfacet
  facet normal 0.0498454 0.998757 -0
    outer loop
      vertex -28.1705 -6.97992 2
      vertex -27.1926 -7.02873 0
      vertex -28.1705 -6.97992 0
    endloop
  endfacet
  facet normal 0.478254 0.878222 -0
    outer loop
      vertex -28.1705 -6.97992 2
      vertex -28.1705 -6.97992 0
      vertex -29.0303 -6.51167 2
    endloop
  endfacet
  facet normal 0.478254 0.878222 -0
    outer loop
      vertex -29.0303 -6.51167 2
      vertex -28.1705 -6.97992 0
      vertex -29.0303 -6.51167 0
    endloop
  endfacet
  facet normal 0.811938 0.583743 0
    outer loop
      vertex -29.6019 -5.71671 2
      vertex -29.0303 -6.51167 2
      vertex -29.0303 -6.51167 0
    endloop
  endfacet
  facet normal 0.811938 0.583743 0
    outer loop
      vertex -29.6019 -5.71671 0
      vertex -29.6019 -5.71671 2
      vertex -29.0303 -6.51167 0
    endloop
  endfacet
  facet normal 0.984808 -0.173648 0
    outer loop
      vertex -30.2558 7.11191 2
      vertex -30.2558 7.11191 5
      vertex -30.8635 3.66508 5
    endloop
  endfacet
  facet normal 0.984808 -0.173648 0
    outer loop
      vertex -30.8635 3.66508 2
      vertex -30.2558 7.11191 2
      vertex -30.8635 3.66508 5
    endloop
  endfacet
  facet normal 0.642788 0.766044 -0
    outer loop
      vertex -28.1824 1.41532 5
      vertex -28.1824 1.41532 2
      vertex -30.8635 3.66508 5
    endloop
  endfacet
  facet normal 0.642788 0.766044 -0
    outer loop
      vertex -30.8635 3.66508 5
      vertex -28.1824 1.41532 2
      vertex -30.8635 3.66508 2
    endloop
  endfacet
  facet normal -0.34202 0.939693 0
    outer loop
      vertex -24.8935 2.61239 5
      vertex -24.8935 2.61239 2
      vertex -28.1824 1.41532 5
    endloop
  endfacet
  facet normal -0.34202 0.939693 0
    outer loop
      vertex -28.1824 1.41532 5
      vertex -24.8935 2.61239 2
      vertex -28.1824 1.41532 2
    endloop
  endfacet
  facet normal -0.984808 0.173648 0
    outer loop
      vertex -24.2857 6.05922 5
      vertex -24.2857 6.05922 2
      vertex -24.8935 2.61239 5
    endloop
  endfacet
  facet normal -0.984808 0.173648 0
    outer loop
      vertex -24.8935 2.61239 5
      vertex -24.2857 6.05922 2
      vertex -24.8935 2.61239 2
    endloop
  endfacet
  facet normal -0.642788 -0.766044 -0
    outer loop
      vertex -24.2857 6.05922 2
      vertex -24.2857 6.05922 5
      vertex -26.9668 8.30898 5
    endloop
  endfacet
  facet normal -0.642788 -0.766044 -0
    outer loop
      vertex -26.9668 8.30898 2
      vertex -24.2857 6.05922 2
      vertex -26.9668 8.30898 5
    endloop
  endfacet
  facet normal 0.34202 -0.939693 0
    outer loop
      vertex -26.9668 8.30898 2
      vertex -26.9668 8.30898 5
      vertex -30.2558 7.11191 5
    endloop
  endfacet
  facet normal 0.34202 -0.939693 0
    outer loop
      vertex -30.2558 7.11191 2
      vertex -26.9668 8.30898 2
      vertex -30.2558 7.11191 5
    endloop
  endfacet
  facet normal 0.984808 0.173648 0
    outer loop
      vertex -30.8635 -3.66508 5
      vertex -30.2558 -7.11191 5
      vertex -30.2558 -7.11191 2
    endloop
  endfacet
  facet normal 0.984808 0.173648 0
    outer loop
      vertex -30.8635 -3.66508 2
      vertex -30.8635 -3.66508 5
      vertex -30.2558 -7.11191 2
    endloop
  endfacet
  facet normal 0.34202 0.939693 -0
    outer loop
      vertex -26.9668 -8.30898 5
      vertex -26.9668 -8.30898 2
      vertex -30.2558 -7.11191 5
    endloop
  endfacet
  facet normal 0.34202 0.939693 -0
    outer loop
      vertex -30.2558 -7.11191 5
      vertex -26.9668 -8.30898 2
      vertex -30.2558 -7.11191 2
    endloop
  endfacet
  facet normal -0.642788 0.766044 0
    outer loop
      vertex -24.2857 -6.05922 5
      vertex -24.2857 -6.05922 2
      vertex -26.9668 -8.30898 5
    endloop
  endfacet
  facet normal -0.642788 0.766044 0
    outer loop
      vertex -26.9668 -8.30898 5
      vertex -24.2857 -6.05922 2
      vertex -26.9668 -8.30898 2
    endloop
  endfacet
  facet normal -0.984808 -0.173648 0
    outer loop
      vertex -24.2857 -6.05922 5
      vertex -24.8935 -2.61239 5
      vertex -24.2857 -6.05922 2
    endloop
  endfacet
  facet normal -0.984808 -0.173648 0
    outer loop
      vertex -24.2857 -6.05922 2
      vertex -24.8935 -2.61239 5
      vertex -24.8935 -2.61239 2
    endloop
  endfacet
  facet normal -0.34202 -0.939693 -0
    outer loop
      vertex -24.8935 -2.61239 2
      vertex -24.8935 -2.61239 5
      vertex -28.1824 -1.41532 5
    endloop
  endfacet
  facet normal -0.34202 -0.939693 -0
    outer loop
      vertex -28.1824 -1.41532 2
      vertex -24.8935 -2.61239 2
      vertex -28.1824 -1.41532 5
    endloop
  endfacet
  facet normal 0.642788 -0.766044 0
    outer loop
      vertex -28.1824 -1.41532 2
      vertex -28.1824 -1.41532 5
      vertex -30.8635 -3.66508 5
    endloop
  endfacet
  facet normal 0.642788 -0.766044 0
    outer loop
      vertex -30.8635 -3.66508 2
      vertex -28.1824 -1.41532 2
      vertex -30.8635 -3.66508 5
    endloop
  endfacet
  facet normal 0 0 1
    outer loop
      vertex -25.5474 4.00759 2
      vertex -24.8935 2.61239 2
      vertex -24.2857 6.05922 2
    endloop
  endfacet
  facet normal 0 -0 1
    outer loop
      vertex -26.9668 8.30898 2
      vertex -27.1926 7.02873 2
      vertex -24.2857 6.05922 2
    endloop
  endfacet
  facet normal 0 0 1
    outer loop
      vertex -29.0303 6.51167 2
      vertex -28.1705 6.97992 2
      vertex -26.9668 8.30898 2
    endloop
  endfacet
  facet normal 0 0 1
    outer loop
      vertex -30.2558 7.11191 2
      vertex -29.0303 6.51167 2
      vertex -26.9668 8.30898 2
    endloop
  endfacet
  facet normal 0 0 1
    outer loop
      vertex -30.2558 7.11191 2
      vertex -29.6019 5.71671 2
      vertex -29.0303 6.51167 2
    endloop
  endfacet
  facet normal 0 0 1
    outer loop
      vertex -28.1705 6.97992 2
      vertex -27.1926 7.02873 2
      vertex -26.9668 8.30898 2
    endloop
  endfacet
  facet normal 0 0 1
    outer loop
      vertex -27.1926 7.02873 2
      vertex -26.2904 6.64841 2
      vertex -24.2857 6.05922 2
    endloop
  endfacet
  facet normal 0 0 1
    outer loop
      vertex -26.2904 6.64841 2
      vertex -25.6425 5.91431 2
      vertex -24.2857 6.05922 2
    endloop
  endfacet
  facet normal 0 0 1
    outer loop
      vertex -25.6425 5.91431 2
      vertex -25.3774 4.97181 2
      vertex -24.2857 6.05922 2
    endloop
  endfacet
  facet normal -0 0 1
    outer loop
      vertex -27.9566 2.69557 2
      vertex -28.8589 3.07588 2
      vertex -28.1824 1.41532 2
    endloop
  endfacet
  facet normal 0 0 1
    outer loop
      vertex -26.1189 3.21263 2
      vertex -24.8935 2.61239 2
      vertex -25.5474 4.00759 2
    endloop
  endfacet
  facet normal 0 0 1
    outer loop
      vertex -28.1824 1.41532 2
      vertex -24.8935 2.61239 2
      vertex -26.1189 3.21263 2
    endloop
  endfacet
  facet normal 0 0 1
    outer loop
      vertex -26.1189 3.21263 2
      vertex -26.9788 2.74438 2
      vertex -28.1824 1.41532 2
    endloop
  endfacet
  facet normal 0 -0 1
    outer loop
      vertex -25.3774 4.97181 2
      vertex -25.5474 4.00759 2
      vertex -24.2857 6.05922 2
    endloop
  endfacet
  facet normal 0 0 1
    outer loop
      vertex -30.8635 3.66508 2
      vertex -28.1824 1.41532 2
      vertex -28.8589 3.07588 2
    endloop
  endfacet
  facet normal 0 0 1
    outer loop
      vertex -26.9788 2.74438 2
      vertex -27.9566 2.69557 2
      vertex -28.1824 1.41532 2
    endloop
  endfacet
  facet normal 0 0 1
    outer loop
      vertex -30.8635 3.66508 2
      vertex -28.8589 3.07588 2
      vertex -29.5067 3.80999 2
    endloop
  endfacet
  facet normal 0 0 1
    outer loop
      vertex -30.8635 3.66508 2
      vertex -29.7719 4.75249 2
      vertex -30.2558 7.11191 2
    endloop
  endfacet
  facet normal 0 0 1
    outer loop
      vertex -30.8635 3.66508 2
      vertex -29.5067 3.80999 2
      vertex -29.7719 4.75249 2
    endloop
  endfacet
  facet normal 0 0 1
    outer loop
      vertex -29.7719 4.75249 2
      vertex -29.6019 5.71671 2
      vertex -30.2558 7.11191 2
    endloop
  endfacet
  facet normal 0 -0 1
    outer loop
      vertex -26.2904 -6.64841 2
      vertex -26.9668 -8.30898 2
      vertex -24.2857 -6.05922 2
    endloop
  endfacet
  facet normal 0 -0 1
    outer loop
      vertex -25.6425 -5.91431 2
      vertex -26.2904 -6.64841 2
      vertex -24.2857 -6.05922 2
    endloop
  endfacet
  facet normal 0 0 1
    outer loop
      vertex -29.5067 -3.80999 2
      vertex -28.8589 -3.07588 2
      vertex -28.1824 -1.41532 2
    endloop
  endfacet
  facet normal 0 0 1
    outer loop
      vertex -28.8589 -3.07588 2
      vertex -27.9566 -2.69557 2
      vertex -28.1824 -1.41532 2
    endloop
  endfacet
  facet normal 0 0 1
    outer loop
      vertex -30.8635 -3.66508 2
      vertex -30.2558 -7.11191 2
      vertex -29.7719 -4.75249 2
    endloop
  endfacet
  facet normal 0 0 1
    outer loop
      vertex -30.8635 -3.66508 2
      vertex -29.5067 -3.80999 2
      vertex -28.1824 -1.41532 2
    endloop
  endfacet
  facet normal 0 0 1
    outer loop
      vertex -30.8635 -3.66508 2
      vertex -29.7719 -4.75249 2
      vertex -29.5067 -3.80999 2
    endloop
  endfacet
  facet normal 0 0 1
    outer loop
      vertex -28.1824 -1.41532 2
      vertex -27.9566 -2.69557 2
      vertex -24.8935 -2.61239 2
    endloop
  endfacet
  facet normal 0 0 1
    outer loop
      vertex -27.9566 -2.69557 2
      vertex -26.9788 -2.74438 2
      vertex -24.8935 -2.61239 2
    endloop
  endfacet
  facet normal 0 0 1
    outer loop
      vertex -26.9788 -2.74438 2
      vertex -26.1189 -3.21263 2
      vertex -24.8935 -2.61239 2
    endloop
  endfacet
  facet normal 0 -0 1
    outer loop
      vertex -24.8935 -2.61239 2
      vertex -25.5474 -4.00759 2
      vertex -24.2857 -6.05922 2
    endloop
  endfacet
  facet normal 0 0 1
    outer loop
      vertex -25.5474 -4.00759 2
      vertex -25.3774 -4.97181 2
      vertex -24.2857 -6.05922 2
    endloop
  endfacet
  facet normal 0 -0 1
    outer loop
      vertex -25.3774 -4.97181 2
      vertex -25.6425 -5.91431 2
      vertex -24.2857 -6.05922 2
    endloop
  endfacet
  facet normal 0 0 1
    outer loop
      vertex -27.1926 -7.02873 2
      vertex -26.9668 -8.30898 2
      vertex -26.2904 -6.64841 2
    endloop
  endfacet
  facet normal 0 0 1
    outer loop
      vertex -30.2558 -7.11191 2
      vertex -26.9668 -8.30898 2
      vertex -27.1926 -7.02873 2
    endloop
  endfacet
  facet normal 0 0 1
    outer loop
      vertex -30.2558 -7.11191 2
      vertex -27.1926 -7.02873 2
      vertex -28.1705 -6.97992 2
    endloop
  endfacet
  facet normal 0 0 1
    outer loop
      vertex -26.1189 -3.21263 2
      vertex -25.5474 -4.00759 2
      vertex -24.8935 -2.61239 2
    endloop
  endfacet
  facet normal -0 0 1
    outer loop
      vertex -29.6019 -5.71671 2
      vertex -29.7719 -4.75249 2
      vertex -30.2558 -7.11191 2
    endloop
  endfacet
  facet normal -0 0 1
    outer loop
      vertex -28.1705 -6.97992 2
      vertex -29.0303 -6.51167 2
      vertex -30.2558 -7.11191 2
    endloop
  endfacet
  facet normal -0 0 1
    outer loop
      vertex -29.0303 -6.51167 2
      vertex -29.6019 -5.71671 2
      vertex -30.2558 -7.11191 2
    endloop
  endfacet
  facet normal 0 -1 0
    outer loop
      vertex 14.5974 -15 5
      vertex 14.5974 -15 2.12132
      vertex 33.7 -15 2.12132
    endloop
  endfacet
  facet normal 0 -1 0
    outer loop
      vertex 33.7 -15 5
      vertex 14.5974 -15 5
      vertex 33.7 -15 2.12132
    endloop
  endfacet
  facet normal 0 -0.707107 -0.707107
    outer loop
      vertex 33.7 -12.8787 0
      vertex 33.7 -15 2.12132
      vertex 16.5075 -12.8787 0
    endloop
  endfacet
  facet normal -2.44218e-018 -0.707107 -0.707107
    outer loop
      vertex 16.5075 -12.8787 0
      vertex 33.7 -15 2.12132
      vertex 14.5974 -15 2.12132
    endloop
  endfacet
  facet normal -0.743145 0.669131 0
    outer loop
      vertex 16.9894 -12.3435 5
      vertex 16.9894 -12.3435 0
      vertex 14.5974 -15 5
    endloop
  endfacet
  facet normal -0.743145 0.669131 1.42381e-015
    outer loop
      vertex 14.5974 -15 5
      vertex 16.9894 -12.3435 0
      vertex 16.5075 -12.8787 0
    endloop
  endfacet
  facet normal -0.743145 0.669131 0
    outer loop
      vertex 14.5974 -15 5
      vertex 16.5075 -12.8787 0
      vertex 14.5974 -15 2.12132
    endloop
  endfacet
  facet normal 0 -0 1
    outer loop
      vertex 16.9894 -12.3435 5
      vertex 14.5974 -15 5
      vertex 33.7 -15 5
    endloop
  endfacet
  facet normal -0 0 1
    outer loop
      vertex 24.8935 2.61239 5
      vertex 24.2857 6.05922 5
      vertex 21 0 5
    endloop
  endfacet
  facet normal 0 -0 1
    outer loop
      vertex 24.2857 -6.05922 5
      vertex 16.9894 -12.3435 5
      vertex 33.7 -15 5
    endloop
  endfacet
  facet normal 0 0 1
    outer loop
      vertex 16.9894 12.3435 5
      vertex 33.7 15 5
      vertex 14.5974 15 5
    endloop
  endfacet
  facet normal 0 0 1
    outer loop
      vertex 19.1845 8.54147 5
      vertex 33.7 15 5
      vertex 16.9894 12.3435 5
    endloop
  endfacet
  facet normal 0 0 1
    outer loop
      vertex 20.5411 4.36615 5
      vertex 33.7 15 5
      vertex 19.1845 8.54147 5
    endloop
  endfacet
  facet normal -0 0 1
    outer loop
      vertex 24.2857 6.05922 5
      vertex 33.7 15 5
      vertex 20.5411 4.36615 5
    endloop
  endfacet
  facet normal -0 -0 1
    outer loop
      vertex 26.9668 -8.30898 5
      vertex 24.2857 -6.05922 5
      vertex 33.7 -15 5
    endloop
  endfacet
  facet normal 0 0 1
    outer loop
      vertex 24.8935 -2.61239 5
      vertex 16.9894 -12.3435 5
      vertex 24.2857 -6.05922 5
    endloop
  endfacet
  facet normal 0 0 1
    outer loop
      vertex 28.1824 1.41532 5
      vertex 19.1845 -8.54147 5
      vertex 24.8935 -2.61239 5
    endloop
  endfacet
  facet normal 0 0 1
    outer loop
      vertex 33.7 15 5
      vertex 30.8635 -3.66508 5
      vertex 33.7 -15 5
    endloop
  endfacet
  facet normal 0 0 1
    outer loop
      vertex 30.8635 3.66508 5
      vertex 28.1824 -1.41532 5
      vertex 30.8635 -3.66508 5
    endloop
  endfacet
  facet normal 0 -0 1
    outer loop
      vertex 30.2558 -7.11191 5
      vertex 26.9668 -8.30898 5
      vertex 33.7 -15 5
    endloop
  endfacet
  facet normal 0 0 1
    outer loop
      vertex 20.5411 -4.36615 5
      vertex 24.8935 2.61239 5
      vertex 21 0 5
    endloop
  endfacet
  facet normal 0 0 1
    outer loop
      vertex 30.2558 7.11191 5
      vertex 30.8635 3.66508 5
      vertex 33.7 15 5
    endloop
  endfacet
  facet normal 0 0 1
    outer loop
      vertex 21 0 5
      vertex 24.2857 6.05922 5
      vertex 20.5411 4.36615 5
    endloop
  endfacet
  facet normal -0 0 1
    outer loop
      vertex 26.9668 8.30898 5
      vertex 33.7 15 5
      vertex 24.2857 6.05922 5
    endloop
  endfacet
  facet normal 0 0 1
    outer loop
      vertex 26.9668 8.30898 5
      vertex 30.2558 7.11191 5
      vertex 33.7 15 5
    endloop
  endfacet
  facet normal 0 0 1
    outer loop
      vertex 30.8635 3.66508 5
      vertex 28.1824 1.41532 5
      vertex 28.1824 -1.41532 5
    endloop
  endfacet
  facet normal 0 0 1
    outer loop
      vertex 24.8935 -2.61239 5
      vertex 19.1845 -8.54147 5
      vertex 16.9894 -12.3435 5
    endloop
  endfacet
  facet normal 0 0 1
    outer loop
      vertex 33.7 15 5
      vertex 30.8635 3.66508 5
      vertex 30.8635 -3.66508 5
    endloop
  endfacet
  facet normal 0 -0 1
    outer loop
      vertex 30.8635 -3.66508 5
      vertex 30.2558 -7.11191 5
      vertex 33.7 -15 5
    endloop
  endfacet
  facet normal 0 0 1
    outer loop
      vertex 24.8935 -2.61239 5
      vertex 28.1824 -1.41532 5
      vertex 28.1824 1.41532 5
    endloop
  endfacet
  facet normal 0 0 1
    outer loop
      vertex 28.1824 1.41532 5
      vertex 20.5411 -4.36615 5
      vertex 19.1845 -8.54147 5
    endloop
  endfacet
  facet normal -0 0 1
    outer loop
      vertex 28.1824 1.41532 5
      vertex 24.8935 2.61239 5
      vertex 20.5411 -4.36615 5
    endloop
  endfacet
  facet normal 1 0 -0
    outer loop
      vertex 33.7 -15 5
      vertex 33.7 -15 2.12132
      vertex 33.7 -12.8787 0
    endloop
  endfacet
  facet normal 1 -0 0
    outer loop
      vertex 33.7 15 2.12132
      vertex 33.7 -15 5
      vertex 33.7 12.8787 0
    endloop
  endfacet
  facet normal 1 -0 0
    outer loop
      vertex 33.7 12.8787 0
      vertex 33.7 -15 5
      vertex 33.7 -12.8787 0
    endloop
  endfacet
  facet normal 1 0 0
    outer loop
      vertex 33.7 15 5
      vertex 33.7 -15 5
      vertex 33.7 15 2.12132
    endloop
  endfacet
  facet normal -0 0 -1
    outer loop
      vertex 16.5075 -12.8787 0
      vertex 16.9894 -12.3435 0
      vertex 33.7 -12.8787 0
    endloop
  endfacet
  facet normal 0 0 -1
    outer loop
      vertex 33.7 -12.8787 0
      vertex 16.9894 -12.3435 0
      vertex 19.1845 -8.54147 0
    endloop
  endfacet
  facet normal -0 0 -1
    outer loop
      vertex 19.1845 -8.54147 0
      vertex 20.5411 -4.36615 0
      vertex 33.7 -12.8787 0
    endloop
  endfacet
  facet normal 0 0 -1
    outer loop
      vertex 27.1926 -7.02873 0
      vertex 33.7 -12.8787 0
      vertex 26.2904 -6.64841 0
    endloop
  endfacet
  facet normal 0 -0 -1
    outer loop
      vertex 16.9894 12.3435 0
      vertex 16.5075 12.8787 0
      vertex 33.7 12.8787 0
    endloop
  endfacet
  facet normal -0 0 -1
    outer loop
      vertex 29.6019 -5.71671 0
      vertex 33.7 12.8787 0
      vertex 33.7 -12.8787 0
    endloop
  endfacet
  facet normal -0 -0 -1
    outer loop
      vertex 21 0 0
      vertex 20.5411 4.36615 0
      vertex 25.5474 -4.00759 0
    endloop
  endfacet
  facet normal -0 0 -1
    outer loop
      vertex 20.5411 -4.36615 0
      vertex 21 0 0
      vertex 25.3774 -4.97181 0
    endloop
  endfacet
  facet normal 0 0 -1
    outer loop
      vertex 20.5411 -4.36615 0
      vertex 25.3774 -4.97181 0
      vertex 25.6425 -5.91431 0
    endloop
  endfacet
  facet normal 0 0 -1
    outer loop
      vertex 20.5411 -4.36615 0
      vertex 25.6425 -5.91431 0
      vertex 26.2904 -6.64841 0
    endloop
  endfacet
  facet normal 0 0 -1
    outer loop
      vertex 20.5411 -4.36615 0
      vertex 26.2904 -6.64841 0
      vertex 33.7 -12.8787 0
    endloop
  endfacet
  facet normal 0 0 -1
    outer loop
      vertex 28.1705 -6.97992 0
      vertex 33.7 -12.8787 0
      vertex 27.1926 -7.02873 0
    endloop
  endfacet
  facet normal 0 0 -1
    outer loop
      vertex 26.9788 2.74438 0
      vertex 29.5067 -3.80999 0
      vertex 26.1189 3.21263 0
    endloop
  endfacet
  facet normal 0 0 -1
    outer loop
      vertex 29.6019 -5.71671 0
      vertex 33.7 -12.8787 0
      vertex 29.0303 -6.51167 0
    endloop
  endfacet
  facet normal -0 0 -1
    outer loop
      vertex 29.7719 -4.75249 0
      vertex 33.7 12.8787 0
      vertex 29.6019 -5.71671 0
    endloop
  endfacet
  facet normal -0 -0 -1
    outer loop
      vertex 27.9566 -2.69557 0
      vertex 16.9894 12.3435 0
      vertex 28.8589 -3.07588 0
    endloop
  endfacet
  facet normal -0 0 -1
    outer loop
      vertex 29.5067 -3.80999 0
      vertex 33.7 12.8787 0
      vertex 29.7719 -4.75249 0
    endloop
  endfacet
  facet normal -0 0 -1
    outer loop
      vertex 29.5067 3.80999 0
      vertex 33.7 12.8787 0
      vertex 29.5067 -3.80999 0
    endloop
  endfacet
  facet normal 0 0 -1
    outer loop
      vertex 16.9894 12.3435 0
      vertex 29.5067 -3.80999 0
      vertex 28.8589 -3.07588 0
    endloop
  endfacet
  facet normal 0 -0 -1
    outer loop
      vertex 26.9788 -2.74438 0
      vertex 16.9894 12.3435 0
      vertex 27.9566 -2.69557 0
    endloop
  endfacet
  facet normal 0 -0 -1
    outer loop
      vertex 26.1189 -3.21263 0
      vertex 19.1845 8.54147 0
      vertex 26.9788 -2.74438 0
    endloop
  endfacet
  facet normal -0 -0 -1
    outer loop
      vertex 19.1845 8.54147 0
      vertex 16.9894 12.3435 0
      vertex 26.9788 -2.74438 0
    endloop
  endfacet
  facet normal 0 -0 -1
    outer loop
      vertex 25.5474 -4.00759 0
      vertex 20.5411 4.36615 0
      vertex 26.1189 -3.21263 0
    endloop
  endfacet
  facet normal 0 0 -1
    outer loop
      vertex 26.1189 -3.21263 0
      vertex 20.5411 4.36615 0
      vertex 19.1845 8.54147 0
    endloop
  endfacet
  facet normal 0 0 -1
    outer loop
      vertex 16.9894 12.3435 0
      vertex 25.3774 4.97181 0
      vertex 25.5474 4.00759 0
    endloop
  endfacet
  facet normal 0 0 -1
    outer loop
      vertex 16.9894 12.3435 0
      vertex 25.5474 4.00759 0
      vertex 29.5067 -3.80999 0
    endloop
  endfacet
  facet normal 0 0 -1
    outer loop
      vertex 25.5474 4.00759 0
      vertex 26.1189 3.21263 0
      vertex 29.5067 -3.80999 0
    endloop
  endfacet
  facet normal -0 0 -1
    outer loop
      vertex 27.1926 7.02873 0
      vertex 33.7 12.8787 0
      vertex 28.1705 6.97992 0
    endloop
  endfacet
  facet normal -0 0 -1
    outer loop
      vertex 29.6019 5.71671 0
      vertex 33.7 12.8787 0
      vertex 29.7719 4.75249 0
    endloop
  endfacet
  facet normal -0 0 -1
    outer loop
      vertex 29.0303 6.51167 0
      vertex 33.7 12.8787 0
      vertex 29.6019 5.71671 0
    endloop
  endfacet
  facet normal 0 0 -1
    outer loop
      vertex 26.9788 2.74438 0
      vertex 27.9566 2.69557 0
      vertex 29.5067 -3.80999 0
    endloop
  endfacet
  facet normal -0 0 -1
    outer loop
      vertex 27.9566 2.69557 0
      vertex 28.8589 3.07588 0
      vertex 29.5067 -3.80999 0
    endloop
  endfacet
  facet normal -0 0 -1
    outer loop
      vertex 29.7719 4.75249 0
      vertex 33.7 12.8787 0
      vertex 29.5067 3.80999 0
    endloop
  endfacet
  facet normal -0 0 -1
    outer loop
      vertex 28.8589 3.07588 0
      vertex 29.5067 3.80999 0
      vertex 29.5067 -3.80999 0
    endloop
  endfacet
  facet normal -0 0 -1
    outer loop
      vertex 28.1705 6.97992 0
      vertex 33.7 12.8787 0
      vertex 29.0303 6.51167 0
    endloop
  endfacet
  facet normal -0 0 -1
    outer loop
      vertex 16.9894 12.3435 0
      vertex 33.7 12.8787 0
      vertex 27.1926 7.02873 0
    endloop
  endfacet
  facet normal 0 0 -1
    outer loop
      vertex 16.9894 12.3435 0
      vertex 27.1926 7.02873 0
      vertex 26.2904 6.64841 0
    endloop
  endfacet
  facet normal 0 0 -1
    outer loop
      vertex 16.9894 12.3435 0
      vertex 26.2904 6.64841 0
      vertex 25.6425 5.91431 0
    endloop
  endfacet
  facet normal 0 0 -1
    outer loop
      vertex 16.9894 12.3435 0
      vertex 25.6425 5.91431 0
      vertex 25.3774 4.97181 0
    endloop
  endfacet
  facet normal 0 -0 -1
    outer loop
      vertex 25.3774 -4.97181 0
      vertex 21 0 0
      vertex 25.5474 -4.00759 0
    endloop
  endfacet
  facet normal 0 0 -1
    outer loop
      vertex 29.0303 -6.51167 0
      vertex 33.7 -12.8787 0
      vertex 28.1705 -6.97992 0
    endloop
  endfacet
  facet normal -0.866025 0.5 0
    outer loop
      vertex 19.1845 -8.54147 5
      vertex 19.1845 -8.54147 0
      vertex 16.9894 -12.3435 5
    endloop
  endfacet
  facet normal -0.866025 0.5 0
    outer loop
      vertex 16.9894 -12.3435 5
      vertex 19.1845 -8.54147 0
      vertex 16.9894 -12.3435 0
    endloop
  endfacet
  facet normal -0.951057 0.309017 0
    outer loop
      vertex 20.5411 -4.36615 5
      vertex 20.5411 -4.36615 0
      vertex 19.1845 -8.54147 5
    endloop
  endfacet
  facet normal -0.951057 0.309017 0
    outer loop
      vertex 19.1845 -8.54147 5
      vertex 20.5411 -4.36615 0
      vertex 19.1845 -8.54147 0
    endloop
  endfacet
  facet normal -0.994522 0.104528 0
    outer loop
      vertex 21 0 5
      vertex 21 0 0
      vertex 20.5411 -4.36615 5
    endloop
  endfacet
  facet normal -0.994522 0.104528 0
    outer loop
      vertex 20.5411 -4.36615 5
      vertex 21 0 0
      vertex 20.5411 -4.36615 0
    endloop
  endfacet
  facet normal -0.994522 -0.104528 0
    outer loop
      vertex 21 0 5
      vertex 20.5411 4.36615 5
      vertex 21 0 0
    endloop
  endfacet
  facet normal -0.994522 -0.104528 0
    outer loop
      vertex 21 0 0
      vertex 20.5411 4.36615 5
      vertex 20.5411 4.36615 0
    endloop
  endfacet
  facet normal -0.951057 -0.309017 0
    outer loop
      vertex 20.5411 4.36615 5
      vertex 19.1845 8.54147 5
      vertex 20.5411 4.36615 0
    endloop
  endfacet
  facet normal -0.951057 -0.309017 0
    outer loop
      vertex 20.5411 4.36615 0
      vertex 19.1845 8.54147 5
      vertex 19.1845 8.54147 0
    endloop
  endfacet
  facet normal -0.866025 -0.5 0
    outer loop
      vertex 19.1845 8.54147 5
      vertex 16.9894 12.3435 5
      vertex 19.1845 8.54147 0
    endloop
  endfacet
  facet normal -0.866025 -0.5 0
    outer loop
      vertex 19.1845 8.54147 0
      vertex 16.9894 12.3435 5
      vertex 16.9894 12.3435 0
    endloop
  endfacet
  facet normal -0.743145 -0.669131 -0
    outer loop
      vertex 16.9894 12.3435 0
      vertex 16.9894 12.3435 5
      vertex 16.5075 12.8787 0
    endloop
  endfacet
  facet normal -0.743145 -0.669131 2.86045e-016
    outer loop
      vertex 16.5075 12.8787 0
      vertex 16.9894 12.3435 5
      vertex 14.5974 15 5
    endloop
  endfacet
  facet normal -0.743145 -0.669131 0
    outer loop
      vertex 16.5075 12.8787 0
      vertex 14.5974 15 5
      vertex 14.5974 15 2.12132
    endloop
  endfacet
  facet normal 0 1 0
    outer loop
      vertex 14.5974 15 2.12132
      vertex 14.5974 15 5
      vertex 33.7 15 2.12132
    endloop
  endfacet
  facet normal 0 1 0
    outer loop
      vertex 33.7 15 2.12132
      vertex 14.5974 15 5
      vertex 33.7 15 5
    endloop
  endfacet
  facet normal 0.984808 -0.173648 0
    outer loop
      vertex 24.8935 -2.61239 2
      vertex 24.8935 -2.61239 5
      vertex 24.2857 -6.05922 5
    endloop
  endfacet
  facet normal 0.984808 -0.173648 0
    outer loop
      vertex 24.2857 -6.05922 2
      vertex 24.8935 -2.61239 2
      vertex 24.2857 -6.05922 5
    endloop
  endfacet
  facet normal 0.642788 0.766044 -0
    outer loop
      vertex 26.9668 -8.30898 5
      vertex 26.9668 -8.30898 2
      vertex 24.2857 -6.05922 5
    endloop
  endfacet
  facet normal 0.642788 0.766044 -0
    outer loop
      vertex 24.2857 -6.05922 5
      vertex 26.9668 -8.30898 2
      vertex 24.2857 -6.05922 2
    endloop
  endfacet
  facet normal -0.34202 0.939693 0
    outer loop
      vertex 30.2558 -7.11191 5
      vertex 30.2558 -7.11191 2
      vertex 26.9668 -8.30898 5
    endloop
  endfacet
  facet normal -0.34202 0.939693 0
    outer loop
      vertex 26.9668 -8.30898 5
      vertex 30.2558 -7.11191 2
      vertex 26.9668 -8.30898 2
    endloop
  endfacet
  facet normal -0.984808 0.173648 0
    outer loop
      vertex 30.8635 -3.66508 5
      vertex 30.8635 -3.66508 2
      vertex 30.2558 -7.11191 5
    endloop
  endfacet
  facet normal -0.984808 0.173648 0
    outer loop
      vertex 30.2558 -7.11191 5
      vertex 30.8635 -3.66508 2
      vertex 30.2558 -7.11191 2
    endloop
  endfacet
  facet normal -0.642788 -0.766044 -0
    outer loop
      vertex 30.8635 -3.66508 2
      vertex 30.8635 -3.66508 5
      vertex 28.1824 -1.41532 5
    endloop
  endfacet
  facet normal -0.642788 -0.766044 -0
    outer loop
      vertex 28.1824 -1.41532 2
      vertex 30.8635 -3.66508 2
      vertex 28.1824 -1.41532 5
    endloop
  endfacet
  facet normal 0.34202 -0.939693 0
    outer loop
      vertex 28.1824 -1.41532 2
      vertex 28.1824 -1.41532 5
      vertex 24.8935 -2.61239 5
    endloop
  endfacet
  facet normal 0.34202 -0.939693 0
    outer loop
      vertex 24.8935 -2.61239 2
      vertex 28.1824 -1.41532 2
      vertex 24.8935 -2.61239 5
    endloop
  endfacet
  facet normal 0.984808 0.173648 0
    outer loop
      vertex 24.2857 6.05922 5
      vertex 24.8935 2.61239 5
      vertex 24.8935 2.61239 2
    endloop
  endfacet
  facet normal 0.984808 0.173648 0
    outer loop
      vertex 24.2857 6.05922 2
      vertex 24.2857 6.05922 5
      vertex 24.8935 2.61239 2
    endloop
  endfacet
  facet normal 0.34202 0.939693 -0
    outer loop
      vertex 28.1824 1.41532 5
      vertex 28.1824 1.41532 2
      vertex 24.8935 2.61239 5
    endloop
  endfacet
  facet normal 0.34202 0.939693 -0
    outer loop
      vertex 24.8935 2.61239 5
      vertex 28.1824 1.41532 2
      vertex 24.8935 2.61239 2
    endloop
  endfacet
  facet normal -0.642788 0.766044 0
    outer loop
      vertex 30.8635 3.66508 5
      vertex 30.8635 3.66508 2
      vertex 28.1824 1.41532 5
    endloop
  endfacet
  facet normal -0.642788 0.766044 0
    outer loop
      vertex 28.1824 1.41532 5
      vertex 30.8635 3.66508 2
      vertex 28.1824 1.41532 2
    endloop
  endfacet
  facet normal -0.984808 -0.173648 0
    outer loop
      vertex 30.8635 3.66508 5
      vertex 30.2558 7.11191 5
      vertex 30.8635 3.66508 2
    endloop
  endfacet
  facet normal -0.984808 -0.173648 0
    outer loop
      vertex 30.8635 3.66508 2
      vertex 30.2558 7.11191 5
      vertex 30.2558 7.11191 2
    endloop
  endfacet
  facet normal -0.34202 -0.939693 -0
    outer loop
      vertex 30.2558 7.11191 2
      vertex 30.2558 7.11191 5
      vertex 26.9668 8.30898 5
    endloop
  endfacet
  facet normal -0.34202 -0.939693 -0
    outer loop
      vertex 26.9668 8.30898 2
      vertex 30.2558 7.11191 2
      vertex 26.9668 8.30898 5
    endloop
  endfacet
  facet normal 0.642788 -0.766044 0
    outer loop
      vertex 26.9668 8.30898 2
      vertex 26.9668 8.30898 5
      vertex 24.2857 6.05922 5
    endloop
  endfacet
  facet normal 0.642788 -0.766044 0
    outer loop
      vertex 24.2857 6.05922 2
      vertex 26.9668 8.30898 2
      vertex 24.2857 6.05922 5
    endloop
  endfacet
  facet normal 0 0.707107 -0.707107
    outer loop
      vertex 33.7 12.8787 0
      vertex 16.5075 12.8787 0
      vertex 33.7 15 2.12132
    endloop
  endfacet
  facet normal 0 0.707107 -0.707107
    outer loop
      vertex 33.7 15 2.12132
      vertex 16.5075 12.8787 0
      vertex 14.5974 15 2.12132
    endloop
  endfacet
  facet normal 0.811938 -0.583743 0
    outer loop
      vertex 26.1189 -3.21263 0
      vertex 26.1189 -3.21263 2
      vertex 25.5474 -4.00759 2
    endloop
  endfacet
  facet normal 0.811938 -0.583743 0
    outer loop
      vertex 25.5474 -4.00759 0
      vertex 26.1189 -3.21263 0
      vertex 25.5474 -4.00759 2
    endloop
  endfacet
  facet normal 0.984808 -0.173648 0
    outer loop
      vertex 25.5474 -4.00759 0
      vertex 25.5474 -4.00759 2
      vertex 25.3774 -4.97181 2
    endloop
  endfacet
  facet normal 0.984808 -0.173648 0
    outer loop
      vertex 25.3774 -4.97181 0
      vertex 25.5474 -4.00759 0
      vertex 25.3774 -4.97181 2
    endloop
  endfacet
  facet normal 0.478254 -0.878222 0
    outer loop
      vertex 26.9788 -2.74438 0
      vertex 26.9788 -2.74438 2
      vertex 26.1189 -3.21263 2
    endloop
  endfacet
  facet normal 0.478254 -0.878222 0
    outer loop
      vertex 26.1189 -3.21263 0
      vertex 26.9788 -2.74438 0
      vertex 26.1189 -3.21263 2
    endloop
  endfacet
  facet normal 0.0498454 -0.998757 0
    outer loop
      vertex 27.9566 -2.69557 0
      vertex 27.9566 -2.69557 2
      vertex 26.9788 -2.74438 2
    endloop
  endfacet
  facet normal 0.0498454 -0.998757 0
    outer loop
      vertex 26.9788 -2.74438 0
      vertex 27.9566 -2.69557 0
      vertex 26.9788 -2.74438 2
    endloop
  endfacet
  facet normal -0.388434 -0.921476 -0
    outer loop
      vertex 28.8589 -3.07588 0
      vertex 28.8589 -3.07588 2
      vertex 27.9566 -2.69557 2
    endloop
  endfacet
  facet normal -0.388434 -0.921476 -0
    outer loop
      vertex 27.9566 -2.69557 0
      vertex 28.8589 -3.07588 0
      vertex 27.9566 -2.69557 2
    endloop
  endfacet
  facet normal -0.749781 -0.661686 0
    outer loop
      vertex 29.5067 -3.80999 2
      vertex 28.8589 -3.07588 2
      vertex 29.5067 -3.80999 0
    endloop
  endfacet
  facet normal -0.749781 -0.661686 0
    outer loop
      vertex 29.5067 -3.80999 0
      vertex 28.8589 -3.07588 2
      vertex 28.8589 -3.07588 0
    endloop
  endfacet
  facet normal -0.962624 -0.27084 0
    outer loop
      vertex 29.7719 -4.75249 2
      vertex 29.5067 -3.80999 2
      vertex 29.7719 -4.75249 0
    endloop
  endfacet
  facet normal -0.962624 -0.27084 0
    outer loop
      vertex 29.7719 -4.75249 0
      vertex 29.5067 -3.80999 2
      vertex 29.5067 -3.80999 0
    endloop
  endfacet
  facet normal -0.984808 0.173648 0
    outer loop
      vertex 29.7719 -4.75249 2
      vertex 29.7719 -4.75249 0
      vertex 29.6019 -5.71671 2
    endloop
  endfacet
  facet normal -0.984808 0.173648 0
    outer loop
      vertex 29.6019 -5.71671 2
      vertex 29.7719 -4.75249 0
      vertex 29.6019 -5.71671 0
    endloop
  endfacet
  facet normal -0.811938 0.583743 0
    outer loop
      vertex 29.6019 -5.71671 2
      vertex 29.6019 -5.71671 0
      vertex 29.0303 -6.51167 2
    endloop
  endfacet
  facet normal -0.811938 0.583743 0
    outer loop
      vertex 29.0303 -6.51167 2
      vertex 29.6019 -5.71671 0
      vertex 29.0303 -6.51167 0
    endloop
  endfacet
  facet normal -0.478254 0.878222 0
    outer loop
      vertex 29.0303 -6.51167 2
      vertex 29.0303 -6.51167 0
      vertex 28.1705 -6.97992 2
    endloop
  endfacet
  facet normal -0.478254 0.878222 0
    outer loop
      vertex 28.1705 -6.97992 2
      vertex 29.0303 -6.51167 0
      vertex 28.1705 -6.97992 0
    endloop
  endfacet
  facet normal -0.0498454 0.998757 0
    outer loop
      vertex 28.1705 -6.97992 2
      vertex 28.1705 -6.97992 0
      vertex 27.1926 -7.02873 2
    endloop
  endfacet
  facet normal -0.0498454 0.998757 0
    outer loop
      vertex 27.1926 -7.02873 2
      vertex 28.1705 -6.97992 0
      vertex 27.1926 -7.02873 0
    endloop
  endfacet
  facet normal 0.388434 0.921476 -0
    outer loop
      vertex 27.1926 -7.02873 2
      vertex 27.1926 -7.02873 0
      vertex 26.2904 -6.64841 2
    endloop
  endfacet
  facet normal 0.388434 0.921476 -0
    outer loop
      vertex 26.2904 -6.64841 2
      vertex 27.1926 -7.02873 0
      vertex 26.2904 -6.64841 0
    endloop
  endfacet
  facet normal 0.749781 0.661686 0
    outer loop
      vertex 25.6425 -5.91431 2
      vertex 26.2904 -6.64841 2
      vertex 26.2904 -6.64841 0
    endloop
  endfacet
  facet normal 0.749781 0.661686 0
    outer loop
      vertex 25.6425 -5.91431 0
      vertex 25.6425 -5.91431 2
      vertex 26.2904 -6.64841 0
    endloop
  endfacet
  facet normal 0.962624 0.27084 0
    outer loop
      vertex 25.3774 -4.97181 2
      vertex 25.6425 -5.91431 2
      vertex 25.6425 -5.91431 0
    endloop
  endfacet
  facet normal 0.962624 0.27084 0
    outer loop
      vertex 25.3774 -4.97181 0
      vertex 25.3774 -4.97181 2
      vertex 25.6425 -5.91431 0
    endloop
  endfacet
  facet normal 0.962624 -0.27084 0
    outer loop
      vertex 25.6425 5.91431 0
      vertex 25.6425 5.91431 2
      vertex 25.3774 4.97181 2
    endloop
  endfacet
  facet normal 0.962624 -0.27084 0
    outer loop
      vertex 25.3774 4.97181 0
      vertex 25.6425 5.91431 0
      vertex 25.3774 4.97181 2
    endloop
  endfacet
  facet normal 0.984808 0.173648 0
    outer loop
      vertex 25.3774 4.97181 2
      vertex 25.5474 4.00759 2
      vertex 25.5474 4.00759 0
    endloop
  endfacet
  facet normal 0.984808 0.173648 0
    outer loop
      vertex 25.3774 4.97181 0
      vertex 25.3774 4.97181 2
      vertex 25.5474 4.00759 0
    endloop
  endfacet
  facet normal 0.749781 -0.661686 0
    outer loop
      vertex 26.2904 6.64841 0
      vertex 26.2904 6.64841 2
      vertex 25.6425 5.91431 2
    endloop
  endfacet
  facet normal 0.749781 -0.661686 0
    outer loop
      vertex 25.6425 5.91431 0
      vertex 26.2904 6.64841 0
      vertex 25.6425 5.91431 2
    endloop
  endfacet
  facet normal 0.388434 -0.921476 0
    outer loop
      vertex 27.1926 7.02873 0
      vertex 27.1926 7.02873 2
      vertex 26.2904 6.64841 2
    endloop
  endfacet
  facet normal 0.388434 -0.921476 0
    outer loop
      vertex 26.2904 6.64841 0
      vertex 27.1926 7.02873 0
      vertex 26.2904 6.64841 2
    endloop
  endfacet
  facet normal -0.0498454 -0.998757 -0
    outer loop
      vertex 28.1705 6.97992 0
      vertex 28.1705 6.97992 2
      vertex 27.1926 7.02873 2
    endloop
  endfacet
  facet normal -0.0498454 -0.998757 -0
    outer loop
      vertex 27.1926 7.02873 0
      vertex 28.1705 6.97992 0
      vertex 27.1926 7.02873 2
    endloop
  endfacet
  facet normal -0.478254 -0.878222 -0
    outer loop
      vertex 29.0303 6.51167 0
      vertex 29.0303 6.51167 2
      vertex 28.1705 6.97992 2
    endloop
  endfacet
  facet normal -0.478254 -0.878222 -0
    outer loop
      vertex 28.1705 6.97992 0
      vertex 29.0303 6.51167 0
      vertex 28.1705 6.97992 2
    endloop
  endfacet
  facet normal -0.811938 -0.583743 0
    outer loop
      vertex 29.6019 5.71671 2
      vertex 29.0303 6.51167 2
      vertex 29.6019 5.71671 0
    endloop
  endfacet
  facet normal -0.811938 -0.583743 0
    outer loop
      vertex 29.6019 5.71671 0
      vertex 29.0303 6.51167 2
      vertex 29.0303 6.51167 0
    endloop
  endfacet
  facet normal -0.984808 -0.173648 0
    outer loop
      vertex 29.7719 4.75249 2
      vertex 29.6019 5.71671 2
      vertex 29.7719 4.75249 0
    endloop
  endfacet
  facet normal -0.984808 -0.173648 0
    outer loop
      vertex 29.7719 4.75249 0
      vertex 29.6019 5.71671 2
      vertex 29.6019 5.71671 0
    endloop
  endfacet
  facet normal -0.962624 0.27084 0
    outer loop
      vertex 29.7719 4.75249 2
      vertex 29.7719 4.75249 0
      vertex 29.5067 3.80999 2
    endloop
  endfacet
  facet normal -0.962624 0.27084 0
    outer loop
      vertex 29.5067 3.80999 2
      vertex 29.7719 4.75249 0
      vertex 29.5067 3.80999 0
    endloop
  endfacet
  facet normal -0.749781 0.661686 0
    outer loop
      vertex 29.5067 3.80999 2
      vertex 29.5067 3.80999 0
      vertex 28.8589 3.07588 2
    endloop
  endfacet
  facet normal -0.749781 0.661686 0
    outer loop
      vertex 28.8589 3.07588 2
      vertex 29.5067 3.80999 0
      vertex 28.8589 3.07588 0
    endloop
  endfacet
  facet normal -0.388434 0.921476 0
    outer loop
      vertex 28.8589 3.07588 2
      vertex 28.8589 3.07588 0
      vertex 27.9566 2.69557 2
    endloop
  endfacet
  facet normal -0.388434 0.921476 0
    outer loop
      vertex 27.9566 2.69557 2
      vertex 28.8589 3.07588 0
      vertex 27.9566 2.69557 0
    endloop
  endfacet
  facet normal 0.0498454 0.998757 -0
    outer loop
      vertex 27.9566 2.69557 2
      vertex 27.9566 2.69557 0
      vertex 26.9788 2.74438 2
    endloop
  endfacet
  facet normal 0.0498454 0.998757 -0
    outer loop
      vertex 26.9788 2.74438 2
      vertex 27.9566 2.69557 0
      vertex 26.9788 2.74438 0
    endloop
  endfacet
  facet normal 0.478254 0.878222 -0
    outer loop
      vertex 26.9788 2.74438 2
      vertex 26.9788 2.74438 0
      vertex 26.1189 3.21263 2
    endloop
  endfacet
  facet normal 0.478254 0.878222 -0
    outer loop
      vertex 26.1189 3.21263 2
      vertex 26.9788 2.74438 0
      vertex 26.1189 3.21263 0
    endloop
  endfacet
  facet normal 0.811938 0.583743 0
    outer loop
      vertex 25.5474 4.00759 2
      vertex 26.1189 3.21263 2
      vertex 26.1189 3.21263 0
    endloop
  endfacet
  facet normal 0.811938 0.583743 0
    outer loop
      vertex 25.5474 4.00759 0
      vertex 25.5474 4.00759 2
      vertex 26.1189 3.21263 0
    endloop
  endfacet
  facet normal 0 0 1
    outer loop
      vertex 29.6019 -5.71671 2
      vertex 30.2558 -7.11191 2
      vertex 30.8635 -3.66508 2
    endloop
  endfacet
  facet normal 0 -0 1
    outer loop
      vertex 28.1824 -1.41532 2
      vertex 27.9566 -2.69557 2
      vertex 30.8635 -3.66508 2
    endloop
  endfacet
  facet normal 0 0 1
    outer loop
      vertex 26.1189 -3.21263 2
      vertex 26.9788 -2.74438 2
      vertex 28.1824 -1.41532 2
    endloop
  endfacet
  facet normal 0 0 1
    outer loop
      vertex 24.8935 -2.61239 2
      vertex 26.1189 -3.21263 2
      vertex 28.1824 -1.41532 2
    endloop
  endfacet
  facet normal 0 0 1
    outer loop
      vertex 24.8935 -2.61239 2
      vertex 25.5474 -4.00759 2
      vertex 26.1189 -3.21263 2
    endloop
  endfacet
  facet normal 0 0 1
    outer loop
      vertex 26.9788 -2.74438 2
      vertex 27.9566 -2.69557 2
      vertex 28.1824 -1.41532 2
    endloop
  endfacet
  facet normal 0 0 1
    outer loop
      vertex 27.9566 -2.69557 2
      vertex 28.8589 -3.07588 2
      vertex 30.8635 -3.66508 2
    endloop
  endfacet
  facet normal 0 0 1
    outer loop
      vertex 28.8589 -3.07588 2
      vertex 29.5067 -3.80999 2
      vertex 30.8635 -3.66508 2
    endloop
  endfacet
  facet normal 0 0 1
    outer loop
      vertex 29.5067 -3.80999 2
      vertex 29.7719 -4.75249 2
      vertex 30.8635 -3.66508 2
    endloop
  endfacet
  facet normal -0 0 1
    outer loop
      vertex 27.1926 -7.02873 2
      vertex 26.2904 -6.64841 2
      vertex 26.9668 -8.30898 2
    endloop
  endfacet
  facet normal 0 0 1
    outer loop
      vertex 29.0303 -6.51167 2
      vertex 30.2558 -7.11191 2
      vertex 29.6019 -5.71671 2
    endloop
  endfacet
  facet normal 0 0 1
    outer loop
      vertex 26.9668 -8.30898 2
      vertex 30.2558 -7.11191 2
      vertex 29.0303 -6.51167 2
    endloop
  endfacet
  facet normal 0 0 1
    outer loop
      vertex 29.0303 -6.51167 2
      vertex 28.1705 -6.97992 2
      vertex 26.9668 -8.30898 2
    endloop
  endfacet
  facet normal 0 -0 1
    outer loop
      vertex 29.7719 -4.75249 2
      vertex 29.6019 -5.71671 2
      vertex 30.8635 -3.66508 2
    endloop
  endfacet
  facet normal 0 0 1
    outer loop
      vertex 24.2857 -6.05922 2
      vertex 26.9668 -8.30898 2
      vertex 26.2904 -6.64841 2
    endloop
  endfacet
  facet normal 0 0 1
    outer loop
      vertex 28.1705 -6.97992 2
      vertex 27.1926 -7.02873 2
      vertex 26.9668 -8.30898 2
    endloop
  endfacet
  facet normal 0 0 1
    outer loop
      vertex 24.2857 -6.05922 2
      vertex 26.2904 -6.64841 2
      vertex 25.6425 -5.91431 2
    endloop
  endfacet
  facet normal 0 0 1
    outer loop
      vertex 24.2857 -6.05922 2
      vertex 25.3774 -4.97181 2
      vertex 24.8935 -2.61239 2
    endloop
  endfacet
  facet normal 0 0 1
    outer loop
      vertex 24.2857 -6.05922 2
      vertex 25.6425 -5.91431 2
      vertex 25.3774 -4.97181 2
    endloop
  endfacet
  facet normal 0 0 1
    outer loop
      vertex 25.3774 -4.97181 2
      vertex 25.5474 -4.00759 2
      vertex 24.8935 -2.61239 2
    endloop
  endfacet
  facet normal 0 -0 1
    outer loop
      vertex 28.8589 3.07588 2
      vertex 28.1824 1.41532 2
      vertex 30.8635 3.66508 2
    endloop
  endfacet
  facet normal 0 -0 1
    outer loop
      vertex 29.5067 3.80999 2
      vertex 28.8589 3.07588 2
      vertex 30.8635 3.66508 2
    endloop
  endfacet
  facet normal 0 0 1
    outer loop
      vertex 25.6425 5.91431 2
      vertex 26.2904 6.64841 2
      vertex 26.9668 8.30898 2
    endloop
  endfacet
  facet normal 0 0 1
    outer loop
      vertex 26.2904 6.64841 2
      vertex 27.1926 7.02873 2
      vertex 26.9668 8.30898 2
    endloop
  endfacet
  facet normal 0 0 1
    outer loop
      vertex 24.2857 6.05922 2
      vertex 24.8935 2.61239 2
      vertex 25.3774 4.97181 2
    endloop
  endfacet
  facet normal 0 0 1
    outer loop
      vertex 24.2857 6.05922 2
      vertex 25.6425 5.91431 2
      vertex 26.9668 8.30898 2
    endloop
  endfacet
  facet normal 0 0 1
    outer loop
      vertex 24.2857 6.05922 2
      vertex 25.3774 4.97181 2
      vertex 25.6425 5.91431 2
    endloop
  endfacet
  facet normal 0 0 1
    outer loop
      vertex 26.9668 8.30898 2
      vertex 27.1926 7.02873 2
      vertex 30.2558 7.11191 2
    endloop
  endfacet
  facet normal 0 0 1
    outer loop
      vertex 27.1926 7.02873 2
      vertex 28.1705 6.97992 2
      vertex 30.2558 7.11191 2
    endloop
  endfacet
  facet normal 0 0 1
    outer loop
      vertex 28.1705 6.97992 2
      vertex 29.0303 6.51167 2
      vertex 30.2558 7.11191 2
    endloop
  endfacet
  facet normal 0 -0 1
    outer loop
      vertex 30.2558 7.11191 2
      vertex 29.6019 5.71671 2
      vertex 30.8635 3.66508 2
    endloop
  endfacet
  facet normal 0 0 1
    outer loop
      vertex 29.6019 5.71671 2
      vertex 29.7719 4.75249 2
      vertex 30.8635 3.66508 2
    endloop
  endfacet
  facet normal 0 -0 1
    outer loop
      vertex 29.7719 4.75249 2
      vertex 29.5067 3.80999 2
      vertex 30.8635 3.66508 2
    endloop
  endfacet
  facet normal 0 0 1
    outer loop
      vertex 27.9566 2.69557 2
      vertex 28.1824 1.41532 2
      vertex 28.8589 3.07588 2
    endloop
  endfacet
  facet normal 0 0 1
    outer loop
      vertex 24.8935 2.61239 2
      vertex 28.1824 1.41532 2
      vertex 27.9566 2.69557 2
    endloop
  endfacet
  facet normal 0 0 1
    outer loop
      vertex 24.8935 2.61239 2
      vertex 27.9566 2.69557 2
      vertex 26.9788 2.74438 2
    endloop
  endfacet
  facet normal 0 0 1
    outer loop
      vertex 29.0303 6.51167 2
      vertex 29.6019 5.71671 2
      vertex 30.2558 7.11191 2
    endloop
  endfacet
  facet normal -0 0 1
    outer loop
      vertex 25.5474 4.00759 2
      vertex 25.3774 4.97181 2
      vertex 24.8935 2.61239 2
    endloop
  endfacet
  facet normal -0 0 1
    outer loop
      vertex 26.9788 2.74438 2
      vertex 26.1189 3.21263 2
      vertex 24.8935 2.61239 2
    endloop
  endfacet
  facet normal -0 0 1
    outer loop
      vertex 26.1189 3.21263 2
      vertex 25.5474 4.00759 2
      vertex 24.8935 2.61239 2
    endloop
  endfacet
endsolid OpenSCAD_Model
