solid OpenSCAD_Model
  facet normal -0 0 -1
    outer loop
      vertex 3.8 -5 0
      vertex 3.8 5 0
      vertex 4.10345 -6.9159 0
    endloop
  endfacet
  facet normal 0 -0 -1
    outer loop
      vertex 4.10345 -6.9159 0
      vertex 3.8 5 0
      vertex 4.10345 6.9159 0
    endloop
  endfacet
  facet normal 0 0 -1
    outer loop
      vertex 4.10345 -6.9159 0
      vertex 4.10345 6.9159 0
      vertex 4.98409 8.64427 0
    endloop
  endfacet
  facet normal 0 0 -1
    outer loop
      vertex 4.10345 -6.9159 0
      vertex 4.98409 8.64427 0
      vertex 6.35573 10.0159 0
    endloop
  endfacet
  facet normal 0 0 -1
    outer loop
      vertex 4.10345 -6.9159 0
      vertex 6.35573 10.0159 0
      vertex 8.08409 10.8965 0
    endloop
  endfacet
  facet normal 0 0 -1
    outer loop
      vertex 7.96746 5.8419 0
      vertex 8.08409 10.8965 0
      vertex 10 11.2 0
    endloop
  endfacet
  facet normal 0 0 -1
    outer loop
      vertex 9.1581 7.03253 0
      vertex 10 11.2 0
      vertex 11.9159 10.8965 0
    endloop
  endfacet
  facet normal 0 0 -1
    outer loop
      vertex 10.8419 7.03254 0
      vertex 11.9159 10.8965 0
      vertex 13.6443 10.0159 0
    endloop
  endfacet
  facet normal 0 0 -1
    outer loop
      vertex 12.0325 5.8419 0
      vertex 13.6443 10.0159 0
      vertex 15.0159 8.64427 0
    endloop
  endfacet
  facet normal 0 0 -1
    outer loop
      vertex 12.0325 4.1581 0
      vertex 15.0159 8.64427 0
      vertex 15.8965 6.9159 0
    endloop
  endfacet
  facet normal 0 0 -1
    outer loop
      vertex 4.10345 -6.9159 0
      vertex 15.8965 6.9159 0
      vertex 16.2 5 0
    endloop
  endfacet
  facet normal -0 0 -1
    outer loop
      vertex 12.0325 -4.1581 0
      vertex 16.2 5 0
      vertex 16.2 -5 0
    endloop
  endfacet
  facet normal -0 0 -1
    outer loop
      vertex 12.0325 -5.8419 0
      vertex 16.2 -5 0
      vertex 15.8965 -6.9159 0
    endloop
  endfacet
  facet normal -0 0 -1
    outer loop
      vertex 10.8419 -7.03253 0
      vertex 15.8965 -6.9159 0
      vertex 15.0159 -8.64427 0
    endloop
  endfacet
  facet normal 0 0 -1
    outer loop
      vertex 4.10345 -6.9159 0
      vertex 15.0159 -8.64427 0
      vertex 13.6443 -10.0159 0
    endloop
  endfacet
  facet normal 0 0 -1
    outer loop
      vertex 4.10345 -6.9159 0
      vertex 13.6443 -10.0159 0
      vertex 11.9159 -10.8965 0
    endloop
  endfacet
  facet normal 0 0 -1
    outer loop
      vertex 4.10345 -6.9159 0
      vertex 11.9159 -10.8965 0
      vertex 10 -11.2 0
    endloop
  endfacet
  facet normal 0 0 -1
    outer loop
      vertex 4.10345 -6.9159 0
      vertex 10 -11.2 0
      vertex 8.08409 -10.8965 0
    endloop
  endfacet
  facet normal 0 0 -1
    outer loop
      vertex 4.10345 -6.9159 0
      vertex 8.08409 -10.8965 0
      vertex 6.35573 -10.0159 0
    endloop
  endfacet
  facet normal 0 0 -1
    outer loop
      vertex 4.10345 -6.9159 0
      vertex 6.35573 -10.0159 0
      vertex 4.98409 -8.64427 0
    endloop
  endfacet
  facet normal 0 0 -1
    outer loop
      vertex 4.10345 -6.9159 0
      vertex 16.2 5 0
      vertex 7.96746 -4.1581 0
    endloop
  endfacet
  facet normal 0 0 -1
    outer loop
      vertex 7.96747 4.1581 0
      vertex 4.10345 -6.9159 0
      vertex 7.96746 5.8419 0
    endloop
  endfacet
  facet normal 0 0 -1
    outer loop
      vertex 4.10345 -6.9159 0
      vertex 7.96746 -4.1581 0
      vertex 7.96747 -5.8419 0
    endloop
  endfacet
  facet normal 0 0 -1
    outer loop
      vertex 12.0325 -5.8419 0
      vertex 15.8965 -6.9159 0
      vertex 10.8419 -7.03253 0
    endloop
  endfacet
  facet normal 0 0 -1
    outer loop
      vertex 4.10345 -6.9159 0
      vertex 9.1581 -7.03254 0
      vertex 15.0159 -8.64427 0
    endloop
  endfacet
  facet normal -0 0 -1
    outer loop
      vertex 9.1581 -7.03254 0
      vertex 10.8419 -7.03253 0
      vertex 15.0159 -8.64427 0
    endloop
  endfacet
  facet normal -0 0 -1
    outer loop
      vertex 10.8419 -2.96746 0
      vertex 16.2 5 0
      vertex 12.0325 -4.1581 0
    endloop
  endfacet
  facet normal 0 0 -1
    outer loop
      vertex 7.96746 5.8419 0
      vertex 10 11.2 0
      vertex 9.1581 7.03253 0
    endloop
  endfacet
  facet normal 0 0 -1
    outer loop
      vertex 9.1581 -2.96747 0
      vertex 16.2 5 0
      vertex 10.8419 -2.96746 0
    endloop
  endfacet
  facet normal 0 0 -1
    outer loop
      vertex 7.96746 -4.1581 0
      vertex 16.2 5 0
      vertex 9.1581 -2.96747 0
    endloop
  endfacet
  facet normal 0 0 -1
    outer loop
      vertex 4.10345 -6.9159 0
      vertex 8.08409 10.8965 0
      vertex 7.96746 5.8419 0
    endloop
  endfacet
  facet normal 0 0 -1
    outer loop
      vertex 9.1581 2.96746 0
      vertex 4.10345 -6.9159 0
      vertex 7.96747 4.1581 0
    endloop
  endfacet
  facet normal 0 0 -1
    outer loop
      vertex 10.8419 2.96747 0
      vertex 4.10345 -6.9159 0
      vertex 9.1581 2.96746 0
    endloop
  endfacet
  facet normal 0 0 -1
    outer loop
      vertex 12.0325 4.1581 0
      vertex 4.10345 -6.9159 0
      vertex 10.8419 2.96747 0
    endloop
  endfacet
  facet normal -0 0 -1
    outer loop
      vertex 12.0325 5.8419 0
      vertex 15.0159 8.64427 0
      vertex 12.0325 4.1581 0
    endloop
  endfacet
  facet normal 0 0 -1
    outer loop
      vertex 4.10345 -6.9159 0
      vertex 12.0325 4.1581 0
      vertex 15.8965 6.9159 0
    endloop
  endfacet
  facet normal -0 0 -1
    outer loop
      vertex 10.8419 7.03254 0
      vertex 13.6443 10.0159 0
      vertex 12.0325 5.8419 0
    endloop
  endfacet
  facet normal 0 0 -1
    outer loop
      vertex 9.1581 7.03253 0
      vertex 11.9159 10.8965 0
      vertex 10.8419 7.03254 0
    endloop
  endfacet
  facet normal 0 0 -1
    outer loop
      vertex 9.1581 -7.03254 0
      vertex 4.10345 -6.9159 0
      vertex 7.96747 -5.8419 0
    endloop
  endfacet
  facet normal 0 0 -1
    outer loop
      vertex 12.0325 -4.1581 0
      vertex 16.2 -5 0
      vertex 12.0325 -5.8419 0
    endloop
  endfacet
  facet normal -1 6.34413e-017 2.37905e-017
    outer loop
      vertex 3.8 3.5 4
      vertex 3.8 5 0
      vertex 3.8 -3.5 4
    endloop
  endfacet
  facet normal -1 0 -0
    outer loop
      vertex 3.8 -5 0
      vertex 3.8 -5 7
      vertex 3.8 -3.5 4
    endloop
  endfacet
  facet normal -1 4.44089e-017 -1.66533e-017
    outer loop
      vertex 3.8 -5 0
      vertex 3.8 -3.5 4
      vertex 3.8 5 0
    endloop
  endfacet
  facet normal -1 0 0
    outer loop
      vertex 3.8 5 0
      vertex 3.8 3.5 4
      vertex 3.8 3.5 7
    endloop
  endfacet
  facet normal -1 0 0
    outer loop
      vertex 3.8 5 0
      vertex 3.8 3.5 7
      vertex 3.8 5 7
    endloop
  endfacet
  facet normal -1 0 0
    outer loop
      vertex 3.8 -3.5 4
      vertex 3.8 -5 7
      vertex 3.8 -3.5 7
    endloop
  endfacet
  facet normal -0.987688 -0.156435 -0
    outer loop
      vertex 3.8 -5 0
      vertex 4.10345 -6.9159 0
      vertex 3.8 -5 7
    endloop
  endfacet
  facet normal -0.987688 -0.156435 0
    outer loop
      vertex 3.8 -5 7
      vertex 4.10345 -6.9159 0
      vertex 4.10345 -6.9159 7
    endloop
  endfacet
  facet normal -0.891007 -0.45399 -0
    outer loop
      vertex 4.10345 -6.9159 0
      vertex 4.98409 -8.64427 0
      vertex 4.10345 -6.9159 7
    endloop
  endfacet
  facet normal -0.891007 -0.45399 0
    outer loop
      vertex 4.10345 -6.9159 7
      vertex 4.98409 -8.64427 0
      vertex 4.98409 -8.64427 7
    endloop
  endfacet
  facet normal -0.707107 -0.707107 -0
    outer loop
      vertex 4.98409 -8.64427 0
      vertex 6.35573 -10.0159 0
      vertex 4.98409 -8.64427 7
    endloop
  endfacet
  facet normal -0.707107 -0.707107 0
    outer loop
      vertex 4.98409 -8.64427 7
      vertex 6.35573 -10.0159 0
      vertex 6.35573 -10.0159 7
    endloop
  endfacet
  facet normal -0.45399 -0.891007 0
    outer loop
      vertex 6.35573 -10.0159 7
      vertex 6.35573 -10.0159 0
      vertex 8.08409 -10.8965 0
    endloop
  endfacet
  facet normal -0.45399 -0.891007 0
    outer loop
      vertex 8.08409 -10.8965 7
      vertex 6.35573 -10.0159 7
      vertex 8.08409 -10.8965 0
    endloop
  endfacet
  facet normal -0.156435 -0.987688 0
    outer loop
      vertex 8.08409 -10.8965 7
      vertex 8.08409 -10.8965 0
      vertex 10 -11.2 0
    endloop
  endfacet
  facet normal -0.156435 -0.987688 0
    outer loop
      vertex 10 -11.2 7
      vertex 8.08409 -10.8965 7
      vertex 10 -11.2 0
    endloop
  endfacet
  facet normal 0.156435 -0.987688 0
    outer loop
      vertex 10 -11.2 7
      vertex 10 -11.2 0
      vertex 11.9159 -10.8965 0
    endloop
  endfacet
  facet normal 0.156435 -0.987688 0
    outer loop
      vertex 11.9159 -10.8965 7
      vertex 10 -11.2 7
      vertex 11.9159 -10.8965 0
    endloop
  endfacet
  facet normal 0.45399 -0.891007 0
    outer loop
      vertex 11.9159 -10.8965 7
      vertex 11.9159 -10.8965 0
      vertex 13.6443 -10.0159 0
    endloop
  endfacet
  facet normal 0.45399 -0.891007 0
    outer loop
      vertex 13.6443 -10.0159 7
      vertex 11.9159 -10.8965 7
      vertex 13.6443 -10.0159 0
    endloop
  endfacet
  facet normal 0.707107 -0.707107 0
    outer loop
      vertex 13.6443 -10.0159 7
      vertex 13.6443 -10.0159 0
      vertex 15.0159 -8.64427 0
    endloop
  endfacet
  facet normal 0.707107 -0.707107 0
    outer loop
      vertex 15.0159 -8.64427 7
      vertex 13.6443 -10.0159 7
      vertex 15.0159 -8.64427 0
    endloop
  endfacet
  facet normal 0.891007 -0.45399 0
    outer loop
      vertex 15.0159 -8.64427 7
      vertex 15.0159 -8.64427 0
      vertex 15.8965 -6.9159 0
    endloop
  endfacet
  facet normal 0.891007 -0.45399 0
    outer loop
      vertex 15.8965 -6.9159 7
      vertex 15.0159 -8.64427 7
      vertex 15.8965 -6.9159 0
    endloop
  endfacet
  facet normal 0.987688 -0.156435 0
    outer loop
      vertex 15.8965 -6.9159 7
      vertex 15.8965 -6.9159 0
      vertex 16.2 -5 0
    endloop
  endfacet
  facet normal 0.987688 -0.156435 0
    outer loop
      vertex 16.2 -5 7
      vertex 15.8965 -6.9159 7
      vertex 16.2 -5 0
    endloop
  endfacet
  facet normal 1 -3.55271e-016 1.33227e-016
    outer loop
      vertex 16.2 -3.5 4
      vertex 16.2 -5 0
      vertex 16.2 5 0
    endloop
  endfacet
  facet normal 1 0 0
    outer loop
      vertex 16.2 -3.5 4
      vertex 16.2 -3.5 7
      vertex 16.2 -5 7
    endloop
  endfacet
  facet normal 1 0 0
    outer loop
      vertex 16.2 5 7
      vertex 16.2 3.5 7
      vertex 16.2 5 0
    endloop
  endfacet
  facet normal 1 0 -0
    outer loop
      vertex 16.2 3.5 7
      vertex 16.2 3.5 4
      vertex 16.2 5 0
    endloop
  endfacet
  facet normal 1 0 -0
    outer loop
      vertex 16.2 -5 7
      vertex 16.2 -5 0
      vertex 16.2 -3.5 4
    endloop
  endfacet
  facet normal 1 -5.07531e-016 -1.90324e-016
    outer loop
      vertex 16.2 3.5 4
      vertex 16.2 -3.5 4
      vertex 16.2 5 0
    endloop
  endfacet
  facet normal 0.987688 0.156435 0
    outer loop
      vertex 16.2 5 0
      vertex 15.8965 6.9159 0
      vertex 15.8965 6.9159 7
    endloop
  endfacet
  facet normal 0.987688 0.156435 -0
    outer loop
      vertex 16.2 5 7
      vertex 16.2 5 0
      vertex 15.8965 6.9159 7
    endloop
  endfacet
  facet normal 0.891007 0.45399 0
    outer loop
      vertex 15.8965 6.9159 0
      vertex 15.0159 8.64427 0
      vertex 15.0159 8.64427 7
    endloop
  endfacet
  facet normal 0.891007 0.45399 -0
    outer loop
      vertex 15.8965 6.9159 7
      vertex 15.8965 6.9159 0
      vertex 15.0159 8.64427 7
    endloop
  endfacet
  facet normal 0.707107 0.707107 0
    outer loop
      vertex 15.0159 8.64427 0
      vertex 13.6443 10.0159 0
      vertex 13.6443 10.0159 7
    endloop
  endfacet
  facet normal 0.707107 0.707107 -0
    outer loop
      vertex 15.0159 8.64427 7
      vertex 15.0159 8.64427 0
      vertex 13.6443 10.0159 7
    endloop
  endfacet
  facet normal 0.45399 0.891007 0
    outer loop
      vertex 11.9159 10.8965 0
      vertex 11.9159 10.8965 7
      vertex 13.6443 10.0159 0
    endloop
  endfacet
  facet normal 0.45399 0.891007 0
    outer loop
      vertex 13.6443 10.0159 0
      vertex 11.9159 10.8965 7
      vertex 13.6443 10.0159 7
    endloop
  endfacet
  facet normal 0.156435 0.987688 0
    outer loop
      vertex 10 11.2 0
      vertex 10 11.2 7
      vertex 11.9159 10.8965 0
    endloop
  endfacet
  facet normal 0.156435 0.987688 0
    outer loop
      vertex 11.9159 10.8965 0
      vertex 10 11.2 7
      vertex 11.9159 10.8965 7
    endloop
  endfacet
  facet normal -0.156435 0.987688 0
    outer loop
      vertex 8.08409 10.8965 0
      vertex 8.08409 10.8965 7
      vertex 10 11.2 0
    endloop
  endfacet
  facet normal -0.156435 0.987688 0
    outer loop
      vertex 10 11.2 0
      vertex 8.08409 10.8965 7
      vertex 10 11.2 7
    endloop
  endfacet
  facet normal -0.45399 0.891007 0
    outer loop
      vertex 6.35573 10.0159 0
      vertex 6.35573 10.0159 7
      vertex 8.08409 10.8965 0
    endloop
  endfacet
  facet normal -0.45399 0.891007 0
    outer loop
      vertex 8.08409 10.8965 0
      vertex 6.35573 10.0159 7
      vertex 8.08409 10.8965 7
    endloop
  endfacet
  facet normal -0.707107 0.707107 0
    outer loop
      vertex 4.98409 8.64427 0
      vertex 4.98409 8.64427 7
      vertex 6.35573 10.0159 0
    endloop
  endfacet
  facet normal -0.707107 0.707107 0
    outer loop
      vertex 6.35573 10.0159 0
      vertex 4.98409 8.64427 7
      vertex 6.35573 10.0159 7
    endloop
  endfacet
  facet normal -0.891007 0.45399 0
    outer loop
      vertex 4.10345 6.9159 0
      vertex 4.10345 6.9159 7
      vertex 4.98409 8.64427 0
    endloop
  endfacet
  facet normal -0.891007 0.45399 0
    outer loop
      vertex 4.98409 8.64427 0
      vertex 4.10345 6.9159 7
      vertex 4.98409 8.64427 7
    endloop
  endfacet
  facet normal -0.987688 0.156435 0
    outer loop
      vertex 3.8 5 0
      vertex 3.8 5 7
      vertex 4.10345 6.9159 0
    endloop
  endfacet
  facet normal -0.987688 0.156435 0
    outer loop
      vertex 4.10345 6.9159 0
      vertex 3.8 5 7
      vertex 4.10345 6.9159 7
    endloop
  endfacet
  facet normal 0.707107 -0.707107 0
    outer loop
      vertex 9.1581 -2.96747 0
      vertex 9.1581 -2.96747 4
      vertex 8.62556 -3.5 4
    endloop
  endfacet
  facet normal 0.707107 -0.707107 5.13348e-016
    outer loop
      vertex 7.96746 -4.1581 7
      vertex 9.1581 -2.96747 0
      vertex 8.62556 -3.5 4
    endloop
  endfacet
  facet normal 0.707107 -0.707107 0
    outer loop
      vertex 8.62556 -3.5 7
      vertex 7.96746 -4.1581 7
      vertex 8.62556 -3.5 4
    endloop
  endfacet
  facet normal 0.707107 -0.707107 0
    outer loop
      vertex 7.96746 -4.1581 7
      vertex 7.96746 -4.1581 0
      vertex 9.1581 -2.96747 0
    endloop
  endfacet
  facet normal 1 6.31549e-008 0
    outer loop
      vertex 7.96746 -4.1581 7
      vertex 7.96747 -5.8419 7
      vertex 7.96747 -5.8419 0
    endloop
  endfacet
  facet normal 1 6.31549e-008 0
    outer loop
      vertex 7.96746 -4.1581 0
      vertex 7.96746 -4.1581 7
      vertex 7.96747 -5.8419 0
    endloop
  endfacet
  facet normal 6.31549e-008 -1 0
    outer loop
      vertex 10.8419 -2.96746 0
      vertex 10.8419 -2.96746 4
      vertex 9.1581 -2.96747 4
    endloop
  endfacet
  facet normal 6.31549e-008 -1 0
    outer loop
      vertex 9.1581 -2.96747 0
      vertex 10.8419 -2.96746 0
      vertex 9.1581 -2.96747 4
    endloop
  endfacet
  facet normal -0.707107 -0.707107 0
    outer loop
      vertex 12.0325 -4.1581 7
      vertex 11.3744 -3.5 7
      vertex 12.0325 -4.1581 0
    endloop
  endfacet
  facet normal -0.707107 -0.707107 0
    outer loop
      vertex 12.0325 -4.1581 0
      vertex 11.3744 -3.5 7
      vertex 11.3744 -3.5 4
    endloop
  endfacet
  facet normal -0.707107 -0.707107 2.58411e-017
    outer loop
      vertex 12.0325 -4.1581 0
      vertex 11.3744 -3.5 4
      vertex 10.8419 -2.96746 4
    endloop
  endfacet
  facet normal -0.707107 -0.707107 0
    outer loop
      vertex 12.0325 -4.1581 0
      vertex 10.8419 -2.96746 4
      vertex 10.8419 -2.96746 0
    endloop
  endfacet
  facet normal -1 -6.31549e-008 0
    outer loop
      vertex 12.0325 -5.8419 7
      vertex 12.0325 -4.1581 7
      vertex 12.0325 -5.8419 0
    endloop
  endfacet
  facet normal -1 -6.31549e-008 0
    outer loop
      vertex 12.0325 -5.8419 0
      vertex 12.0325 -4.1581 7
      vertex 12.0325 -4.1581 0
    endloop
  endfacet
  facet normal -0.707107 0.707107 0
    outer loop
      vertex 12.0325 -5.8419 7
      vertex 12.0325 -5.8419 0
      vertex 10.8419 -7.03253 7
    endloop
  endfacet
  facet normal -0.707107 0.707107 0
    outer loop
      vertex 10.8419 -7.03253 7
      vertex 12.0325 -5.8419 0
      vertex 10.8419 -7.03253 0
    endloop
  endfacet
  facet normal -6.31549e-008 1 0
    outer loop
      vertex 10.8419 -7.03253 7
      vertex 10.8419 -7.03253 0
      vertex 9.1581 -7.03254 7
    endloop
  endfacet
  facet normal -6.31549e-008 1 0
    outer loop
      vertex 9.1581 -7.03254 7
      vertex 10.8419 -7.03253 0
      vertex 9.1581 -7.03254 0
    endloop
  endfacet
  facet normal 0.707107 0.707107 0
    outer loop
      vertex 7.96747 -5.8419 7
      vertex 9.1581 -7.03254 7
      vertex 9.1581 -7.03254 0
    endloop
  endfacet
  facet normal 0.707107 0.707107 0
    outer loop
      vertex 7.96747 -5.8419 0
      vertex 7.96747 -5.8419 7
      vertex 9.1581 -7.03254 0
    endloop
  endfacet
  facet normal 0.707107 -0.707107 0
    outer loop
      vertex 9.1581 7.03253 0
      vertex 9.1581 7.03253 7
      vertex 7.96746 5.8419 7
    endloop
  endfacet
  facet normal 0.707107 -0.707107 0
    outer loop
      vertex 7.96746 5.8419 0
      vertex 9.1581 7.03253 0
      vertex 7.96746 5.8419 7
    endloop
  endfacet
  facet normal 1 6.31549e-008 0
    outer loop
      vertex 7.96746 5.8419 7
      vertex 7.96747 4.1581 7
      vertex 7.96747 4.1581 0
    endloop
  endfacet
  facet normal 1 6.31549e-008 0
    outer loop
      vertex 7.96746 5.8419 0
      vertex 7.96746 5.8419 7
      vertex 7.96747 4.1581 0
    endloop
  endfacet
  facet normal 6.31549e-008 -1 0
    outer loop
      vertex 10.8419 7.03254 0
      vertex 10.8419 7.03254 7
      vertex 9.1581 7.03253 7
    endloop
  endfacet
  facet normal 6.31549e-008 -1 0
    outer loop
      vertex 9.1581 7.03253 0
      vertex 10.8419 7.03254 0
      vertex 9.1581 7.03253 7
    endloop
  endfacet
  facet normal -0.707107 -0.707107 0
    outer loop
      vertex 12.0325 5.8419 7
      vertex 10.8419 7.03254 7
      vertex 12.0325 5.8419 0
    endloop
  endfacet
  facet normal -0.707107 -0.707107 0
    outer loop
      vertex 12.0325 5.8419 0
      vertex 10.8419 7.03254 7
      vertex 10.8419 7.03254 0
    endloop
  endfacet
  facet normal -1 -6.31549e-008 0
    outer loop
      vertex 12.0325 4.1581 7
      vertex 12.0325 5.8419 7
      vertex 12.0325 4.1581 0
    endloop
  endfacet
  facet normal -1 -6.31549e-008 0
    outer loop
      vertex 12.0325 4.1581 0
      vertex 12.0325 5.8419 7
      vertex 12.0325 5.8419 0
    endloop
  endfacet
  facet normal -0.707107 0.707107 0
    outer loop
      vertex 11.3744 3.5 4
      vertex 11.3744 3.5 7
      vertex 12.0325 4.1581 7
    endloop
  endfacet
  facet normal -0.707107 0.707107 0
    outer loop
      vertex 11.3744 3.5 4
      vertex 12.0325 4.1581 7
      vertex 12.0325 4.1581 0
    endloop
  endfacet
  facet normal -0.707107 0.707107 2.48226e-016
    outer loop
      vertex 11.3744 3.5 4
      vertex 12.0325 4.1581 0
      vertex 10.8419 2.96747 4
    endloop
  endfacet
  facet normal -0.707107 0.707107 0
    outer loop
      vertex 12.0325 4.1581 0
      vertex 10.8419 2.96747 0
      vertex 10.8419 2.96747 4
    endloop
  endfacet
  facet normal -6.31549e-008 1 0
    outer loop
      vertex 10.8419 2.96747 4
      vertex 10.8419 2.96747 0
      vertex 9.1581 2.96746 4
    endloop
  endfacet
  facet normal -6.31549e-008 1 0
    outer loop
      vertex 9.1581 2.96746 4
      vertex 10.8419 2.96747 0
      vertex 9.1581 2.96746 0
    endloop
  endfacet
  facet normal 0.707107 0.707107 0
    outer loop
      vertex 7.96747 4.1581 7
      vertex 8.62556 3.5 7
      vertex 8.62556 3.5 4
    endloop
  endfacet
  facet normal 0.707107 0.707107 8.70706e-017
    outer loop
      vertex 9.1581 2.96746 0
      vertex 7.96747 4.1581 7
      vertex 8.62556 3.5 4
    endloop
  endfacet
  facet normal 0.707107 0.707107 -0
    outer loop
      vertex 9.1581 2.96746 4
      vertex 9.1581 2.96746 0
      vertex 8.62556 3.5 4
    endloop
  endfacet
  facet normal 0.707107 0.707107 0
    outer loop
      vertex 9.1581 2.96746 0
      vertex 7.96747 4.1581 0
      vertex 7.96747 4.1581 7
    endloop
  endfacet
  facet normal 0 -0 1
    outer loop
      vertex 3.8 5 7
      vertex 3.8 3.5 7
      vertex 8.62556 3.5 7
    endloop
  endfacet
  facet normal 0 -0 1
    outer loop
      vertex 7.96746 5.8419 7
      vertex 3.8 5 7
      vertex 7.96747 4.1581 7
    endloop
  endfacet
  facet normal -0 -0 1
    outer loop
      vertex 7.96747 4.1581 7
      vertex 3.8 5 7
      vertex 8.62556 3.5 7
    endloop
  endfacet
  facet normal 0 0 1
    outer loop
      vertex 9.1581 7.03253 7
      vertex 3.8 5 7
      vertex 7.96746 5.8419 7
    endloop
  endfacet
  facet normal 0 0 1
    outer loop
      vertex 13.6443 10.0159 7
      vertex 3.8 5 7
      vertex 9.1581 7.03253 7
    endloop
  endfacet
  facet normal 0 0 1
    outer loop
      vertex 15.0159 8.64427 7
      vertex 9.1581 7.03253 7
      vertex 10.8419 7.03254 7
    endloop
  endfacet
  facet normal 0 0 1
    outer loop
      vertex 16.2 3.5 7
      vertex 10.8419 7.03254 7
      vertex 12.0325 5.8419 7
    endloop
  endfacet
  facet normal 0 0 1
    outer loop
      vertex 16.2 3.5 7
      vertex 12.0325 5.8419 7
      vertex 12.0325 4.1581 7
    endloop
  endfacet
  facet normal -0 0 1
    outer loop
      vertex 16.2 3.5 7
      vertex 12.0325 4.1581 7
      vertex 11.3744 3.5 7
    endloop
  endfacet
  facet normal -0 0 1
    outer loop
      vertex 16.2 5 7
      vertex 10.8419 7.03254 7
      vertex 16.2 3.5 7
    endloop
  endfacet
  facet normal -0 -0 1
    outer loop
      vertex 15.8965 6.9159 7
      vertex 10.8419 7.03254 7
      vertex 16.2 5 7
    endloop
  endfacet
  facet normal 0 -0 1
    outer loop
      vertex 15.0159 8.64427 7
      vertex 10.8419 7.03254 7
      vertex 15.8965 6.9159 7
    endloop
  endfacet
  facet normal 0 -0 1
    outer loop
      vertex 13.6443 10.0159 7
      vertex 9.1581 7.03253 7
      vertex 15.0159 8.64427 7
    endloop
  endfacet
  facet normal 0 -0 1
    outer loop
      vertex 11.9159 10.8965 7
      vertex 3.8 5 7
      vertex 13.6443 10.0159 7
    endloop
  endfacet
  facet normal 0 -0 1
    outer loop
      vertex 10 11.2 7
      vertex 3.8 5 7
      vertex 11.9159 10.8965 7
    endloop
  endfacet
  facet normal 0 -0 1
    outer loop
      vertex 8.08409 10.8965 7
      vertex 3.8 5 7
      vertex 10 11.2 7
    endloop
  endfacet
  facet normal 0 -0 1
    outer loop
      vertex 6.35573 10.0159 7
      vertex 3.8 5 7
      vertex 8.08409 10.8965 7
    endloop
  endfacet
  facet normal 0 -0 1
    outer loop
      vertex 4.98409 8.64427 7
      vertex 3.8 5 7
      vertex 6.35573 10.0159 7
    endloop
  endfacet
  facet normal 0 -0 1
    outer loop
      vertex 4.10345 6.9159 7
      vertex 3.8 5 7
      vertex 4.98409 8.64427 7
    endloop
  endfacet
  facet normal 0 -1 0
    outer loop
      vertex 8.62556 3.5 4
      vertex 8.62556 3.5 7
      vertex 3.8 3.5 7
    endloop
  endfacet
  facet normal -0 -1 -0
    outer loop
      vertex 3.8 3.5 4
      vertex 8.62556 3.5 4
      vertex 3.8 3.5 7
    endloop
  endfacet
  facet normal 0 0 1
    outer loop
      vertex 16.2 3.5 4
      vertex 9.1581 -2.96747 4
      vertex 10.8419 -2.96746 4
    endloop
  endfacet
  facet normal 0 0 1
    outer loop
      vertex 10.8419 2.96747 4
      vertex 9.1581 2.96746 4
      vertex 8.62556 -3.5 4
    endloop
  endfacet
  facet normal 0 0 1
    outer loop
      vertex 8.62556 -3.5 4
      vertex 9.1581 -2.96747 4
      vertex 11.3744 3.5 4
    endloop
  endfacet
  facet normal 0 0 1
    outer loop
      vertex 11.3744 -3.5 4
      vertex 16.2 -3.5 4
      vertex 10.8419 -2.96746 4
    endloop
  endfacet
  facet normal 0 0 1
    outer loop
      vertex 16.2 -3.5 4
      vertex 16.2 3.5 4
      vertex 10.8419 -2.96746 4
    endloop
  endfacet
  facet normal 0 0 1
    outer loop
      vertex 16.2 3.5 4
      vertex 11.3744 3.5 4
      vertex 9.1581 -2.96747 4
    endloop
  endfacet
  facet normal 0 0 1
    outer loop
      vertex 11.3744 3.5 4
      vertex 10.8419 2.96747 4
      vertex 8.62556 -3.5 4
    endloop
  endfacet
  facet normal -0 0 1
    outer loop
      vertex 9.1581 2.96746 4
      vertex 8.62556 3.5 4
      vertex 8.62556 -3.5 4
    endloop
  endfacet
  facet normal 0 -0 1
    outer loop
      vertex 8.62556 3.5 4
      vertex 3.8 3.5 4
      vertex 8.62556 -3.5 4
    endloop
  endfacet
  facet normal 0 -0 1
    outer loop
      vertex 3.8 3.5 4
      vertex 3.8 -3.5 4
      vertex 8.62556 -3.5 4
    endloop
  endfacet
  facet normal 0 1 0
    outer loop
      vertex 8.62556 -3.5 7
      vertex 8.62556 -3.5 4
      vertex 3.8 -3.5 7
    endloop
  endfacet
  facet normal 0 1 -0
    outer loop
      vertex 3.8 -3.5 7
      vertex 8.62556 -3.5 4
      vertex 3.8 -3.5 4
    endloop
  endfacet
  facet normal 0 -0 1
    outer loop
      vertex 3.8 -3.5 7
      vertex 3.8 -5 7
      vertex 4.10345 -6.9159 7
    endloop
  endfacet
  facet normal 0 0 1
    outer loop
      vertex 6.35573 -10.0159 7
      vertex 3.8 -3.5 7
      vertex 4.98409 -8.64427 7
    endloop
  endfacet
  facet normal 0 0 1
    outer loop
      vertex 4.98409 -8.64427 7
      vertex 3.8 -3.5 7
      vertex 4.10345 -6.9159 7
    endloop
  endfacet
  facet normal 0 0 1
    outer loop
      vertex 8.08409 -10.8965 7
      vertex 3.8 -3.5 7
      vertex 6.35573 -10.0159 7
    endloop
  endfacet
  facet normal 0 0 1
    outer loop
      vertex 10 -11.2 7
      vertex 3.8 -3.5 7
      vertex 8.08409 -10.8965 7
    endloop
  endfacet
  facet normal -0 0 1
    outer loop
      vertex 11.9159 -10.8965 7
      vertex 3.8 -3.5 7
      vertex 10 -11.2 7
    endloop
  endfacet
  facet normal -0 0 1
    outer loop
      vertex 13.6443 -10.0159 7
      vertex 3.8 -3.5 7
      vertex 11.9159 -10.8965 7
    endloop
  endfacet
  facet normal -0 -0 1
    outer loop
      vertex 9.1581 -7.03254 7
      vertex 3.8 -3.5 7
      vertex 13.6443 -10.0159 7
    endloop
  endfacet
  facet normal 0 -0 1
    outer loop
      vertex 12.0325 -5.8419 7
      vertex 10.8419 -7.03253 7
      vertex 15.0159 -8.64427 7
    endloop
  endfacet
  facet normal 0 0 1
    outer loop
      vertex 16.2 -3.5 7
      vertex 11.3744 -3.5 7
      vertex 16.2 -5 7
    endloop
  endfacet
  facet normal 0 0 1
    outer loop
      vertex 11.3744 -3.5 7
      vertex 12.0325 -4.1581 7
      vertex 16.2 -5 7
    endloop
  endfacet
  facet normal -0 0 1
    outer loop
      vertex 15.8965 -6.9159 7
      vertex 12.0325 -5.8419 7
      vertex 15.0159 -8.64427 7
    endloop
  endfacet
  facet normal 0 0 1
    outer loop
      vertex 7.96746 -4.1581 7
      vertex 8.62556 -3.5 7
      vertex 3.8 -3.5 7
    endloop
  endfacet
  facet normal -0 0 1
    outer loop
      vertex 15.0159 -8.64427 7
      vertex 10.8419 -7.03253 7
      vertex 13.6443 -10.0159 7
    endloop
  endfacet
  facet normal 0 -0 1
    outer loop
      vertex 10.8419 -7.03253 7
      vertex 9.1581 -7.03254 7
      vertex 13.6443 -10.0159 7
    endloop
  endfacet
  facet normal -0 -0 1
    outer loop
      vertex 7.96747 -5.8419 7
      vertex 3.8 -3.5 7
      vertex 9.1581 -7.03254 7
    endloop
  endfacet
  facet normal 0 0 1
    outer loop
      vertex 7.96747 -5.8419 7
      vertex 7.96746 -4.1581 7
      vertex 3.8 -3.5 7
    endloop
  endfacet
  facet normal 0 0 1
    outer loop
      vertex 12.0325 -4.1581 7
      vertex 15.8965 -6.9159 7
      vertex 16.2 -5 7
    endloop
  endfacet
  facet normal 0 0 1
    outer loop
      vertex 12.0325 -4.1581 7
      vertex 12.0325 -5.8419 7
      vertex 15.8965 -6.9159 7
    endloop
  endfacet
  facet normal 0 1 0
    outer loop
      vertex 16.2 -3.5 7
      vertex 16.2 -3.5 4
      vertex 11.3744 -3.5 7
    endloop
  endfacet
  facet normal 0 1 -0
    outer loop
      vertex 11.3744 -3.5 7
      vertex 16.2 -3.5 4
      vertex 11.3744 -3.5 4
    endloop
  endfacet
  facet normal 0 -1 0
    outer loop
      vertex 16.2 3.5 4
      vertex 16.2 3.5 7
      vertex 11.3744 3.5 7
    endloop
  endfacet
  facet normal -0 -1 -0
    outer loop
      vertex 11.3744 3.5 4
      vertex 16.2 3.5 4
      vertex 11.3744 3.5 7
    endloop
  endfacet
  facet normal 0 -1 0
    outer loop
      vertex -16.2 -5 5.5
      vertex -16.2 -5 0
      vertex -16.0416 -5 0
    endloop
  endfacet
  facet normal 0 -1 0
    outer loop
      vertex -16.0416 -5 5.5
      vertex -16.2 -5 5.5
      vertex -16.0416 -5 0
    endloop
  endfacet
  facet normal -0 0 -1
    outer loop
      vertex -16.2 -5 0
      vertex -16.2 5 0
      vertex -16.0416 -5 0
    endloop
  endfacet
  facet normal 0 0 -1
    outer loop
      vertex -16.0416 -5 0
      vertex -16.2 5 0
      vertex -16.0416 5 0
    endloop
  endfacet
  facet normal 0 -0 -1
    outer loop
      vertex -16.0416 -5 0
      vertex -16.0416 5 0
      vertex -15.8965 5.9159 0
    endloop
  endfacet
  facet normal 0 0 -1
    outer loop
      vertex -16.0416 -5 0
      vertex -15.8965 5.9159 0
      vertex -15.0159 7.64427 0
    endloop
  endfacet
  facet normal 0 0 -1
    outer loop
      vertex -16.0416 -5 0
      vertex -15.0159 7.64427 0
      vertex -13.6443 9.01591 0
    endloop
  endfacet
  facet normal 0 -0 -1
    outer loop
      vertex -13.0311 6.75 0
      vertex -13.6443 9.01591 0
      vertex -11.9159 9.89655 0
    endloop
  endfacet
  facet normal 0 -0 -1
    outer loop
      vertex -10 8.5 0
      vertex -10 10.2 0
      vertex -8.08409 9.89655 0
    endloop
  endfacet
  facet normal 0 0 -1
    outer loop
      vertex -6.96891 6.75 0
      vertex -6.35573 9.0159 0
      vertex -4.98409 7.64427 0
    endloop
  endfacet
  facet normal 0 0 -1
    outer loop
      vertex -6.96891 3.25 0
      vertex -4.10345 5.9159 0
      vertex -3.95838 5 0
    endloop
  endfacet
  facet normal 0 0 -1
    outer loop
      vertex -16.0416 -5 0
      vertex -3.95838 5 0
      vertex -3.8 5 0
    endloop
  endfacet
  facet normal -0 0 -1
    outer loop
      vertex -3.95838 -5 0
      vertex -3.8 5 0
      vertex -3.8 -5 0
    endloop
  endfacet
  facet normal -0 0 -1
    outer loop
      vertex -6.96891 -3.25 0
      vertex -3.8 5 0
      vertex -3.95838 -5 0
    endloop
  endfacet
  facet normal 0 0 -1
    outer loop
      vertex -13.0311 -6.75 0
      vertex -16.0416 -5 0
      vertex -13.0311 -3.25 0
    endloop
  endfacet
  facet normal 0 0 -1
    outer loop
      vertex -6.96891 -6.75 0
      vertex -4.98409 -7.64427 0
      vertex -6.35573 -9.01591 0
    endloop
  endfacet
  facet normal 0 0 -1
    outer loop
      vertex -6.96891 -3.25 0
      vertex -4.10345 -5.9159 0
      vertex -6.96891 -6.75 0
    endloop
  endfacet
  facet normal 0 0 -1
    outer loop
      vertex -16.0416 -5 0
      vertex -3.8 5 0
      vertex -13.0311 -3.25 0
    endloop
  endfacet
  facet normal -0 0 -1
    outer loop
      vertex -10 8.5 0
      vertex -6.35573 9.0159 0
      vertex -6.96891 6.75 0
    endloop
  endfacet
  facet normal 0 0 -1
    outer loop
      vertex -10 -8.5 0
      vertex -8.08409 -9.89655 0
      vertex -13.0311 -6.75 0
    endloop
  endfacet
  facet normal 0 0 -1
    outer loop
      vertex -6.96891 -3.25 0
      vertex -3.95838 -5 0
      vertex -4.10345 -5.9159 0
    endloop
  endfacet
  facet normal 0 0 -1
    outer loop
      vertex -6.35573 -9.01591 0
      vertex -8.08409 -9.89655 0
      vertex -10 -8.5 0
    endloop
  endfacet
  facet normal 0 0 -1
    outer loop
      vertex -4.10345 -5.9159 0
      vertex -4.98409 -7.64427 0
      vertex -6.96891 -6.75 0
    endloop
  endfacet
  facet normal 0 0 -1
    outer loop
      vertex -13.0311 6.75 0
      vertex -10 10.2 0
      vertex -10 8.5 0
    endloop
  endfacet
  facet normal -0 0 -1
    outer loop
      vertex -10 -1.5 0
      vertex -3.8 5 0
      vertex -6.96891 -3.25 0
    endloop
  endfacet
  facet normal 0 0 -1
    outer loop
      vertex -13.0311 6.75 0
      vertex -11.9159 9.89655 0
      vertex -10 10.2 0
    endloop
  endfacet
  facet normal 0 0 -1
    outer loop
      vertex -13.0311 -3.25 0
      vertex -3.8 5 0
      vertex -10 -1.5 0
    endloop
  endfacet
  facet normal 0 0 -1
    outer loop
      vertex -16.0416 -5 0
      vertex -13.6443 9.01591 0
      vertex -13.0311 6.75 0
    endloop
  endfacet
  facet normal 0 0 -1
    outer loop
      vertex -10 1.5 0
      vertex -16.0416 -5 0
      vertex -13.0311 3.25 0
    endloop
  endfacet
  facet normal 0 0 -1
    outer loop
      vertex -6.96891 3.25 0
      vertex -16.0416 -5 0
      vertex -10 1.5 0
    endloop
  endfacet
  facet normal 0 0 -1
    outer loop
      vertex -6.96891 6.75 0
      vertex -4.10345 5.9159 0
      vertex -6.96891 3.25 0
    endloop
  endfacet
  facet normal -0 0 -1
    outer loop
      vertex -6.96891 6.75 0
      vertex -4.98409 7.64427 0
      vertex -4.10345 5.9159 0
    endloop
  endfacet
  facet normal 0 0 -1
    outer loop
      vertex -16.0416 -5 0
      vertex -6.96891 3.25 0
      vertex -3.95838 5 0
    endloop
  endfacet
  facet normal 0 0 -1
    outer loop
      vertex -10 8.5 0
      vertex -8.08409 9.89655 0
      vertex -6.35573 9.0159 0
    endloop
  endfacet
  facet normal 0 0 -1
    outer loop
      vertex -13.0311 3.25 0
      vertex -16.0416 -5 0
      vertex -13.0311 6.75 0
    endloop
  endfacet
  facet normal 0 0 -1
    outer loop
      vertex -6.96891 -6.75 0
      vertex -6.35573 -9.01591 0
      vertex -10 -8.5 0
    endloop
  endfacet
  facet normal 0 0 -1
    outer loop
      vertex -16.0416 -5 0
      vertex -13.0311 -6.75 0
      vertex -8.08409 -9.89655 0
    endloop
  endfacet
  facet normal 0 0 -1
    outer loop
      vertex -16.0416 -5 0
      vertex -8.08409 -9.89655 0
      vertex -10 -10.2 0
    endloop
  endfacet
  facet normal 0 0 -1
    outer loop
      vertex -16.0416 -5 0
      vertex -10 -10.2 0
      vertex -11.9159 -9.89655 0
    endloop
  endfacet
  facet normal 0 0 -1
    outer loop
      vertex -16.0416 -5 0
      vertex -11.9159 -9.89655 0
      vertex -13.6443 -9.0159 0
    endloop
  endfacet
  facet normal 0 0 -1
    outer loop
      vertex -16.0416 -5 0
      vertex -13.6443 -9.0159 0
      vertex -15.0159 -7.64427 0
    endloop
  endfacet
  facet normal 0 0 -1
    outer loop
      vertex -16.0416 -5 0
      vertex -15.0159 -7.64427 0
      vertex -15.8965 -5.9159 0
    endloop
  endfacet
  facet normal -1 5.07531e-016 1.90324e-016
    outer loop
      vertex -16.2 3.5 4
      vertex -16.2 5 0
      vertex -16.2 -3.5 4
    endloop
  endfacet
  facet normal -1 0 -0
    outer loop
      vertex -16.2 -5 0
      vertex -16.2 -5 5.5
      vertex -16.2 -3.5 4
    endloop
  endfacet
  facet normal -1 3.55271e-016 -1.33227e-016
    outer loop
      vertex -16.2 -5 0
      vertex -16.2 -3.5 4
      vertex -16.2 5 0
    endloop
  endfacet
  facet normal -1 0 0
    outer loop
      vertex -16.2 5 0
      vertex -16.2 3.5 4
      vertex -16.2 3.5 5.5
    endloop
  endfacet
  facet normal -1 0 0
    outer loop
      vertex -16.2 5 0
      vertex -16.2 3.5 5.5
      vertex -16.2 5 5.5
    endloop
  endfacet
  facet normal -1 0 0
    outer loop
      vertex -16.2 -3.5 4
      vertex -16.2 -5 5.5
      vertex -16.2 -3.5 5.5
    endloop
  endfacet
  facet normal 0 -0 1
    outer loop
      vertex -16.2 -3.5 5.5
      vertex -16.2 -5 5.5
      vertex -16.0416 -5 5.5
    endloop
  endfacet
  facet normal 0 0 1
    outer loop
      vertex -15.8965 -5.9159 5.5
      vertex -16.2 -3.5 5.5
      vertex -16.0416 -5 5.5
    endloop
  endfacet
  facet normal 0 0 1
    outer loop
      vertex -15.8965 -5.9159 5.5
      vertex -15.0159 -7.64427 5.5
      vertex -16.2 -3.5 5.5
    endloop
  endfacet
  facet normal 0 0 1
    outer loop
      vertex -15.0159 -7.64427 5.5
      vertex -13.6443 -9.0159 5.5
      vertex -16.2 -3.5 5.5
    endloop
  endfacet
  facet normal 0 0 1
    outer loop
      vertex -13.6443 -9.0159 5.5
      vertex -11.9159 -9.89655 5.5
      vertex -16.2 -3.5 5.5
    endloop
  endfacet
  facet normal 0 0 1
    outer loop
      vertex -11.9159 -9.89655 5.5
      vertex -10 -10.2 5.5
      vertex -16.2 -3.5 5.5
    endloop
  endfacet
  facet normal 0 0 1
    outer loop
      vertex -10 -10.2 5.5
      vertex -8.08409 -9.89655 5.5
      vertex -16.2 -3.5 5.5
    endloop
  endfacet
  facet normal 0 0 1
    outer loop
      vertex -12.0325 -4.1581 5.5
      vertex -14.5 -3.5 5.5
      vertex -15.5 -3.5 5.5
    endloop
  endfacet
  facet normal 0 0 1
    outer loop
      vertex -7.96747 -4.1581 5.5
      vertex -3.95838 -5 5.5
      vertex -3.8 -5 5.5
    endloop
  endfacet
  facet normal -0 0 1
    outer loop
      vertex -9.1581 -2.96746 5.5
      vertex -9.1581 2.96747 5.5
      vertex -9.5 -2.96746 5.5
    endloop
  endfacet
  facet normal 0 0 1
    outer loop
      vertex -7.96747 -4.1581 5.5
      vertex -4.5 -3.5 5.5
      vertex -5.5 -3.5 5.5
    endloop
  endfacet
  facet normal 0 0 1
    outer loop
      vertex -3.8 -5 5.5
      vertex -3.8 -3.5 5.5
      vertex -4.5 -3.5 5.5
    endloop
  endfacet
  facet normal 0 0 1
    outer loop
      vertex -5.5 3.5 5.5
      vertex -4.5 3.5 5.5
      vertex -3.8 5 5.5
    endloop
  endfacet
  facet normal 0 0 1
    outer loop
      vertex -4.5 3.5 5.5
      vertex -3.8 3.5 5.5
      vertex -3.8 5 5.5
    endloop
  endfacet
  facet normal 0 0 1
    outer loop
      vertex -6.5 3.5 5.5
      vertex -3.95838 5 5.5
      vertex -4.10345 5.9159 5.5
    endloop
  endfacet
  facet normal 0 0 1
    outer loop
      vertex -12.0325 -5.8419 5.5
      vertex -12.0325 -4.1581 5.5
      vertex -16.2 -3.5 5.5
    endloop
  endfacet
  facet normal 0 0 1
    outer loop
      vertex -7.96746 4.1581 5.5
      vertex -4.10345 5.9159 5.5
      vertex -4.98409 7.64427 5.5
    endloop
  endfacet
  facet normal 0 0 1
    outer loop
      vertex -7.96747 5.8419 5.5
      vertex -4.98409 7.64427 5.5
      vertex -6.35573 9.0159 5.5
    endloop
  endfacet
  facet normal 0 0 1
    outer loop
      vertex -9.1581 7.03254 5.5
      vertex -6.35573 9.0159 5.5
      vertex -8.08409 9.89655 5.5
    endloop
  endfacet
  facet normal 0 0 1
    outer loop
      vertex -10.8419 7.03253 5.5
      vertex -8.08409 9.89655 5.5
      vertex -10 10.2 5.5
    endloop
  endfacet
  facet normal 0 0 1
    outer loop
      vertex -13.5 3.5 5.5
      vertex -10 10.2 5.5
      vertex -11.9159 9.89655 5.5
    endloop
  endfacet
  facet normal 0 0 1
    outer loop
      vertex -14.5 3.5 5.5
      vertex -11.9159 9.89655 5.5
      vertex -13.6443 9.01591 5.5
    endloop
  endfacet
  facet normal 0 0 1
    outer loop
      vertex -15.5 3.5 5.5
      vertex -15.0159 7.64427 5.5
      vertex -15.8965 5.9159 5.5
    endloop
  endfacet
  facet normal 0 0 1
    outer loop
      vertex -16.2 3.5 5.5
      vertex -16.0416 5 5.5
      vertex -16.2 5 5.5
    endloop
  endfacet
  facet normal 0 0 1
    outer loop
      vertex -15.5 3.5 5.5
      vertex -13.6443 9.01591 5.5
      vertex -15.0159 7.64427 5.5
    endloop
  endfacet
  facet normal 0 0 1
    outer loop
      vertex -15.5 3.5 5.5
      vertex -14.5 3.5 5.5
      vertex -13.6443 9.01591 5.5
    endloop
  endfacet
  facet normal 0 0 1
    outer loop
      vertex -9.1581 -2.96746 5.5
      vertex -7.96747 -4.1581 5.5
      vertex -8.5 -3.5 5.5
    endloop
  endfacet
  facet normal 0 -0 1
    outer loop
      vertex -9.1581 -7.03253 5.5
      vertex -10.8419 -7.03254 5.5
      vertex -6.35573 -9.01591 5.5
    endloop
  endfacet
  facet normal -0 0 1
    outer loop
      vertex -12.0325 5.8419 5.5
      vertex -10 10.2 5.5
      vertex -13.5 3.5 5.5
    endloop
  endfacet
  facet normal 0 -0 1
    outer loop
      vertex -11.5 3.5 5.5
      vertex -11.5 -3.5 5.5
      vertex -10.8419 2.96746 5.5
    endloop
  endfacet
  facet normal -0 0 1
    outer loop
      vertex -10.5 -2.96747 5.5
      vertex -10.5 2.96746 5.5
      vertex -10.8419 -2.96747 5.5
    endloop
  endfacet
  facet normal 0 0 1
    outer loop
      vertex -9.1581 7.03254 5.5
      vertex -7.96747 5.8419 5.5
      vertex -6.35573 9.0159 5.5
    endloop
  endfacet
  facet normal -0 0 1
    outer loop
      vertex -10.8419 -2.96747 5.5
      vertex -10.5 2.96746 5.5
      vertex -11.5 -3.5 5.5
    endloop
  endfacet
  facet normal 0 0 1
    outer loop
      vertex -10.8419 2.96746 5.5
      vertex -12.0325 4.1581 5.5
      vertex -11.5 3.5 5.5
    endloop
  endfacet
  facet normal 0 0 1
    outer loop
      vertex -8.08409 -9.89655 5.5
      vertex -12.0325 -5.8419 5.5
      vertex -16.2 -3.5 5.5
    endloop
  endfacet
  facet normal 0 0 1
    outer loop
      vertex -8.5 3.5 5.5
      vertex -7.5 3.5 5.5
      vertex -4.10345 5.9159 5.5
    endloop
  endfacet
  facet normal 0 -0 1
    outer loop
      vertex -7.96746 -5.8419 5.5
      vertex -9.1581 -7.03253 5.5
      vertex -4.98409 -7.64427 5.5
    endloop
  endfacet
  facet normal 0 0 1
    outer loop
      vertex -6.5 -3.5 5.5
      vertex -6.5 3.5 5.5
      vertex -7.5 3.5 5.5
    endloop
  endfacet
  facet normal 0 0 1
    outer loop
      vertex -8.5 -3.5 5.5
      vertex -8.5 3.5 5.5
      vertex -9.1581 2.96747 5.5
    endloop
  endfacet
  facet normal 0 0 1
    outer loop
      vertex -10.8419 7.03253 5.5
      vertex -9.1581 7.03254 5.5
      vertex -8.08409 9.89655 5.5
    endloop
  endfacet
  facet normal 0 -0 1
    outer loop
      vertex -9.5 2.96747 5.5
      vertex -9.5 -2.96746 5.5
      vertex -9.1581 2.96747 5.5
    endloop
  endfacet
  facet normal 0 0 1
    outer loop
      vertex -8.5 3.5 5.5
      vertex -4.10345 5.9159 5.5
      vertex -7.96746 4.1581 5.5
    endloop
  endfacet
  facet normal 0 0 1
    outer loop
      vertex -12.0325 -4.1581 5.5
      vertex -11.5 -3.5 5.5
      vertex -12.5 -3.5 5.5
    endloop
  endfacet
  facet normal 0 -0 1
    outer loop
      vertex -5.5 3.5 5.5
      vertex -5.5 -3.5 5.5
      vertex -4.5 -3.5 5.5
    endloop
  endfacet
  facet normal 0 0 1
    outer loop
      vertex -8.5 -3.5 5.5
      vertex -9.1581 2.96747 5.5
      vertex -9.1581 -2.96746 5.5
    endloop
  endfacet
  facet normal 0 0 1
    outer loop
      vertex -12.0325 -4.1581 5.5
      vertex -10.8419 -2.96747 5.5
      vertex -11.5 -3.5 5.5
    endloop
  endfacet
  facet normal 0 0 1
    outer loop
      vertex -3.8 -5 5.5
      vertex -4.5 -3.5 5.5
      vertex -7.96747 -4.1581 5.5
    endloop
  endfacet
  facet normal 0 0 1
    outer loop
      vertex -4.98409 -7.64427 5.5
      vertex -4.10345 -5.9159 5.5
      vertex -7.96746 -5.8419 5.5
    endloop
  endfacet
  facet normal 0 0 1
    outer loop
      vertex -12.0325 -4.1581 5.5
      vertex -15.5 -3.5 5.5
      vertex -16.2 -3.5 5.5
    endloop
  endfacet
  facet normal 0 0 1
    outer loop
      vertex -6.35573 -9.01591 5.5
      vertex -4.98409 -7.64427 5.5
      vertex -9.1581 -7.03253 5.5
    endloop
  endfacet
  facet normal 0 0 1
    outer loop
      vertex -8.08409 -9.89655 5.5
      vertex -10.8419 -7.03254 5.5
      vertex -12.0325 -5.8419 5.5
    endloop
  endfacet
  facet normal 0 0 1
    outer loop
      vertex -8.08409 -9.89655 5.5
      vertex -6.35573 -9.01591 5.5
      vertex -10.8419 -7.03254 5.5
    endloop
  endfacet
  facet normal 0 0 1
    outer loop
      vertex -7.96747 -4.1581 5.5
      vertex -4.10345 -5.9159 5.5
      vertex -3.95838 -5 5.5
    endloop
  endfacet
  facet normal 0 0 1
    outer loop
      vertex -9.1581 2.96747 5.5
      vertex -8.5 3.5 5.5
      vertex -7.96746 4.1581 5.5
    endloop
  endfacet
  facet normal 0 0 1
    outer loop
      vertex -12.0325 -4.1581 5.5
      vertex -12.5 -3.5 5.5
      vertex -13.5 -3.5 5.5
    endloop
  endfacet
  facet normal 0 0 1
    outer loop
      vertex -14.5 -3.5 5.5
      vertex -14.5 3.5 5.5
      vertex -15.5 3.5 5.5
    endloop
  endfacet
  facet normal 0 0 1
    outer loop
      vertex -7.96747 -4.1581 5.5
      vertex -7.5 -3.5 5.5
      vertex -8.5 -3.5 5.5
    endloop
  endfacet
  facet normal 0 0 1
    outer loop
      vertex -7.96747 -4.1581 5.5
      vertex -7.96746 -5.8419 5.5
      vertex -4.10345 -5.9159 5.5
    endloop
  endfacet
  facet normal 0 0 1
    outer loop
      vertex -7.96747 -4.1581 5.5
      vertex -6.5 -3.5 5.5
      vertex -7.5 -3.5 5.5
    endloop
  endfacet
  facet normal -0 0 1
    outer loop
      vertex -14.5 -3.5 5.5
      vertex -15.5 3.5 5.5
      vertex -15.5 -3.5 5.5
    endloop
  endfacet
  facet normal -0 0 1
    outer loop
      vertex -12.5 -3.5 5.5
      vertex -13.5 3.5 5.5
      vertex -13.5 -3.5 5.5
    endloop
  endfacet
  facet normal 0 0 1
    outer loop
      vertex -5.5 3.5 5.5
      vertex -4.5 -3.5 5.5
      vertex -4.5 3.5 5.5
    endloop
  endfacet
  facet normal 0 0 1
    outer loop
      vertex -7.96747 -4.1581 5.5
      vertex -5.5 -3.5 5.5
      vertex -6.5 -3.5 5.5
    endloop
  endfacet
  facet normal 0 0 1
    outer loop
      vertex -16.2 3.5 5.5
      vertex -15.8965 5.9159 5.5
      vertex -16.0416 5 5.5
    endloop
  endfacet
  facet normal 0 0 1
    outer loop
      vertex -16.2 3.5 5.5
      vertex -15.5 3.5 5.5
      vertex -15.8965 5.9159 5.5
    endloop
  endfacet
  facet normal 0 0 1
    outer loop
      vertex -14.5 3.5 5.5
      vertex -13.5 3.5 5.5
      vertex -11.9159 9.89655 5.5
    endloop
  endfacet
  facet normal 0 0 1
    outer loop
      vertex -13.5 3.5 5.5
      vertex -12.5 3.5 5.5
      vertex -12.0325 5.8419 5.5
    endloop
  endfacet
  facet normal 0 0 1
    outer loop
      vertex -12.0325 5.8419 5.5
      vertex -10.8419 7.03253 5.5
      vertex -10 10.2 5.5
    endloop
  endfacet
  facet normal 0 0 1
    outer loop
      vertex -12.5 3.5 5.5
      vertex -11.5 3.5 5.5
      vertex -12.0325 4.1581 5.5
    endloop
  endfacet
  facet normal -0 0 1
    outer loop
      vertex -12.0325 4.1581 5.5
      vertex -12.0325 5.8419 5.5
      vertex -12.5 3.5 5.5
    endloop
  endfacet
  facet normal 0 0 1
    outer loop
      vertex -12.0325 -4.1581 5.5
      vertex -13.5 -3.5 5.5
      vertex -14.5 -3.5 5.5
    endloop
  endfacet
  facet normal 0 0 1
    outer loop
      vertex -12.5 -3.5 5.5
      vertex -12.5 3.5 5.5
      vertex -13.5 3.5 5.5
    endloop
  endfacet
  facet normal 0 0 1
    outer loop
      vertex -7.5 3.5 5.5
      vertex -6.5 3.5 5.5
      vertex -4.10345 5.9159 5.5
    endloop
  endfacet
  facet normal 0 0 1
    outer loop
      vertex -6.5 3.5 5.5
      vertex -3.8 5 5.5
      vertex -3.95838 5 5.5
    endloop
  endfacet
  facet normal 0 0 1
    outer loop
      vertex -6.5 3.5 5.5
      vertex -5.5 3.5 5.5
      vertex -3.8 5 5.5
    endloop
  endfacet
  facet normal 0 -0 1
    outer loop
      vertex -7.5 3.5 5.5
      vertex -7.5 -3.5 5.5
      vertex -6.5 -3.5 5.5
    endloop
  endfacet
  facet normal 0 0 1
    outer loop
      vertex -7.96747 5.8419 5.5
      vertex -7.96746 4.1581 5.5
      vertex -4.98409 7.64427 5.5
    endloop
  endfacet
  facet normal 0 -0 1
    outer loop
      vertex -10.8419 2.96746 5.5
      vertex -11.5 -3.5 5.5
      vertex -10.5 2.96746 5.5
    endloop
  endfacet
  facet normal -0.987688 -0.156435 -0
    outer loop
      vertex -16.0416 -5 0
      vertex -15.8965 -5.9159 0
      vertex -16.0416 -5 5.5
    endloop
  endfacet
  facet normal -0.987688 -0.156435 0
    outer loop
      vertex -16.0416 -5 5.5
      vertex -15.8965 -5.9159 0
      vertex -15.8965 -5.9159 5.5
    endloop
  endfacet
  facet normal -0.891007 -0.45399 -0
    outer loop
      vertex -15.8965 -5.9159 0
      vertex -15.0159 -7.64427 0
      vertex -15.8965 -5.9159 5.5
    endloop
  endfacet
  facet normal -0.891007 -0.45399 0
    outer loop
      vertex -15.8965 -5.9159 5.5
      vertex -15.0159 -7.64427 0
      vertex -15.0159 -7.64427 5.5
    endloop
  endfacet
  facet normal -0.707107 -0.707107 -0
    outer loop
      vertex -15.0159 -7.64427 0
      vertex -13.6443 -9.0159 0
      vertex -15.0159 -7.64427 5.5
    endloop
  endfacet
  facet normal -0.707107 -0.707107 0
    outer loop
      vertex -15.0159 -7.64427 5.5
      vertex -13.6443 -9.0159 0
      vertex -13.6443 -9.0159 5.5
    endloop
  endfacet
  facet normal -0.45399 -0.891007 0
    outer loop
      vertex -13.6443 -9.0159 5.5
      vertex -13.6443 -9.0159 0
      vertex -11.9159 -9.89655 0
    endloop
  endfacet
  facet normal -0.45399 -0.891007 0
    outer loop
      vertex -11.9159 -9.89655 5.5
      vertex -13.6443 -9.0159 5.5
      vertex -11.9159 -9.89655 0
    endloop
  endfacet
  facet normal -0.156435 -0.987688 0
    outer loop
      vertex -11.9159 -9.89655 5.5
      vertex -11.9159 -9.89655 0
      vertex -10 -10.2 0
    endloop
  endfacet
  facet normal -0.156435 -0.987688 0
    outer loop
      vertex -10 -10.2 5.5
      vertex -11.9159 -9.89655 5.5
      vertex -10 -10.2 0
    endloop
  endfacet
  facet normal 0.156435 -0.987688 0
    outer loop
      vertex -10 -10.2 5.5
      vertex -10 -10.2 0
      vertex -8.08409 -9.89655 0
    endloop
  endfacet
  facet normal 0.156435 -0.987688 0
    outer loop
      vertex -8.08409 -9.89655 5.5
      vertex -10 -10.2 5.5
      vertex -8.08409 -9.89655 0
    endloop
  endfacet
  facet normal 0.45399 -0.891007 0
    outer loop
      vertex -8.08409 -9.89655 5.5
      vertex -8.08409 -9.89655 0
      vertex -6.35573 -9.01591 0
    endloop
  endfacet
  facet normal 0.45399 -0.891007 0
    outer loop
      vertex -6.35573 -9.01591 5.5
      vertex -8.08409 -9.89655 5.5
      vertex -6.35573 -9.01591 0
    endloop
  endfacet
  facet normal 0.707107 -0.707107 0
    outer loop
      vertex -6.35573 -9.01591 5.5
      vertex -6.35573 -9.01591 0
      vertex -4.98409 -7.64427 0
    endloop
  endfacet
  facet normal 0.707107 -0.707107 0
    outer loop
      vertex -4.98409 -7.64427 5.5
      vertex -6.35573 -9.01591 5.5
      vertex -4.98409 -7.64427 0
    endloop
  endfacet
  facet normal 0.891007 -0.45399 0
    outer loop
      vertex -4.98409 -7.64427 5.5
      vertex -4.98409 -7.64427 0
      vertex -4.10345 -5.9159 0
    endloop
  endfacet
  facet normal 0.891007 -0.45399 0
    outer loop
      vertex -4.10345 -5.9159 5.5
      vertex -4.98409 -7.64427 5.5
      vertex -4.10345 -5.9159 0
    endloop
  endfacet
  facet normal 0.987688 -0.156435 0
    outer loop
      vertex -4.10345 -5.9159 5.5
      vertex -4.10345 -5.9159 0
      vertex -3.95838 -5 0
    endloop
  endfacet
  facet normal 0.987688 -0.156435 0
    outer loop
      vertex -3.95838 -5 5.5
      vertex -4.10345 -5.9159 5.5
      vertex -3.95838 -5 0
    endloop
  endfacet
  facet normal 0 -1 0
    outer loop
      vertex -3.95838 -5 5.5
      vertex -3.95838 -5 0
      vertex -3.8 -5 0
    endloop
  endfacet
  facet normal 0 -1 0
    outer loop
      vertex -3.8 -5 5.5
      vertex -3.95838 -5 5.5
      vertex -3.8 -5 0
    endloop
  endfacet
  facet normal 1 -4.44089e-017 1.66533e-017
    outer loop
      vertex -3.8 -3.5 4
      vertex -3.8 -5 0
      vertex -3.8 5 0
    endloop
  endfacet
  facet normal 1 0 0
    outer loop
      vertex -3.8 -3.5 4
      vertex -3.8 -3.5 5.5
      vertex -3.8 -5 5.5
    endloop
  endfacet
  facet normal 1 0 0
    outer loop
      vertex -3.8 5 5.5
      vertex -3.8 3.5 5.5
      vertex -3.8 5 0
    endloop
  endfacet
  facet normal 1 0 -0
    outer loop
      vertex -3.8 3.5 5.5
      vertex -3.8 3.5 4
      vertex -3.8 5 0
    endloop
  endfacet
  facet normal 1 0 -0
    outer loop
      vertex -3.8 -5 5.5
      vertex -3.8 -5 0
      vertex -3.8 -3.5 4
    endloop
  endfacet
  facet normal 1 -6.34413e-017 -2.37905e-017
    outer loop
      vertex -3.8 3.5 4
      vertex -3.8 -3.5 4
      vertex -3.8 5 0
    endloop
  endfacet
  facet normal 0 1 0
    outer loop
      vertex -3.95838 5 0
      vertex -3.95838 5 5.5
      vertex -3.8 5 0
    endloop
  endfacet
  facet normal 0 1 0
    outer loop
      vertex -3.8 5 0
      vertex -3.95838 5 5.5
      vertex -3.8 5 5.5
    endloop
  endfacet
  facet normal 0.987688 0.156435 0
    outer loop
      vertex -3.95838 5 0
      vertex -4.10345 5.9159 0
      vertex -4.10345 5.9159 5.5
    endloop
  endfacet
  facet normal 0.987688 0.156435 -0
    outer loop
      vertex -3.95838 5 5.5
      vertex -3.95838 5 0
      vertex -4.10345 5.9159 5.5
    endloop
  endfacet
  facet normal 0.891007 0.45399 0
    outer loop
      vertex -4.10345 5.9159 0
      vertex -4.98409 7.64427 0
      vertex -4.98409 7.64427 5.5
    endloop
  endfacet
  facet normal 0.891007 0.45399 -0
    outer loop
      vertex -4.10345 5.9159 5.5
      vertex -4.10345 5.9159 0
      vertex -4.98409 7.64427 5.5
    endloop
  endfacet
  facet normal 0.707107 0.707107 0
    outer loop
      vertex -4.98409 7.64427 0
      vertex -6.35573 9.0159 0
      vertex -6.35573 9.0159 5.5
    endloop
  endfacet
  facet normal 0.707107 0.707107 -0
    outer loop
      vertex -4.98409 7.64427 5.5
      vertex -4.98409 7.64427 0
      vertex -6.35573 9.0159 5.5
    endloop
  endfacet
  facet normal 0.45399 0.891007 0
    outer loop
      vertex -8.08409 9.89655 0
      vertex -8.08409 9.89655 5.5
      vertex -6.35573 9.0159 0
    endloop
  endfacet
  facet normal 0.45399 0.891007 0
    outer loop
      vertex -6.35573 9.0159 0
      vertex -8.08409 9.89655 5.5
      vertex -6.35573 9.0159 5.5
    endloop
  endfacet
  facet normal 0.156435 0.987688 0
    outer loop
      vertex -10 10.2 0
      vertex -10 10.2 5.5
      vertex -8.08409 9.89655 0
    endloop
  endfacet
  facet normal 0.156435 0.987688 0
    outer loop
      vertex -8.08409 9.89655 0
      vertex -10 10.2 5.5
      vertex -8.08409 9.89655 5.5
    endloop
  endfacet
  facet normal -0.156435 0.987688 0
    outer loop
      vertex -11.9159 9.89655 0
      vertex -11.9159 9.89655 5.5
      vertex -10 10.2 0
    endloop
  endfacet
  facet normal -0.156435 0.987688 0
    outer loop
      vertex -10 10.2 0
      vertex -11.9159 9.89655 5.5
      vertex -10 10.2 5.5
    endloop
  endfacet
  facet normal -0.45399 0.891007 0
    outer loop
      vertex -13.6443 9.01591 0
      vertex -13.6443 9.01591 5.5
      vertex -11.9159 9.89655 0
    endloop
  endfacet
  facet normal -0.45399 0.891007 0
    outer loop
      vertex -11.9159 9.89655 0
      vertex -13.6443 9.01591 5.5
      vertex -11.9159 9.89655 5.5
    endloop
  endfacet
  facet normal -0.707107 0.707107 0
    outer loop
      vertex -15.0159 7.64427 0
      vertex -15.0159 7.64427 5.5
      vertex -13.6443 9.01591 0
    endloop
  endfacet
  facet normal -0.707107 0.707107 0
    outer loop
      vertex -13.6443 9.01591 0
      vertex -15.0159 7.64427 5.5
      vertex -13.6443 9.01591 5.5
    endloop
  endfacet
  facet normal -0.891007 0.45399 0
    outer loop
      vertex -15.8965 5.9159 0
      vertex -15.8965 5.9159 5.5
      vertex -15.0159 7.64427 0
    endloop
  endfacet
  facet normal -0.891007 0.45399 0
    outer loop
      vertex -15.0159 7.64427 0
      vertex -15.8965 5.9159 5.5
      vertex -15.0159 7.64427 5.5
    endloop
  endfacet
  facet normal -0.987688 0.156435 0
    outer loop
      vertex -16.0416 5 0
      vertex -16.0416 5 5.5
      vertex -15.8965 5.9159 0
    endloop
  endfacet
  facet normal -0.987688 0.156435 0
    outer loop
      vertex -15.8965 5.9159 0
      vertex -16.0416 5 5.5
      vertex -15.8965 5.9159 5.5
    endloop
  endfacet
  facet normal 0 1 0
    outer loop
      vertex -16.2 5 0
      vertex -16.2 5 5.5
      vertex -16.0416 5 0
    endloop
  endfacet
  facet normal 0 1 0
    outer loop
      vertex -16.0416 5 0
      vertex -16.2 5 5.5
      vertex -16.0416 5 5.5
    endloop
  endfacet
  facet normal 0.5 -0.866025 0
    outer loop
      vertex -10 -1.5 0
      vertex -10 -1.5 2.8
      vertex -13.0311 -3.25 2.8
    endloop
  endfacet
  facet normal 0.5 -0.866025 0
    outer loop
      vertex -13.0311 -3.25 0
      vertex -10 -1.5 0
      vertex -13.0311 -3.25 2.8
    endloop
  endfacet
  facet normal 1 0 0
    outer loop
      vertex -13.0311 -3.25 0
      vertex -13.0311 -3.25 2.8
      vertex -13.0311 -6.75 2.8
    endloop
  endfacet
  facet normal 1 0 0
    outer loop
      vertex -13.0311 -6.75 0
      vertex -13.0311 -3.25 0
      vertex -13.0311 -6.75 2.8
    endloop
  endfacet
  facet normal -0.5 -0.866025 -0
    outer loop
      vertex -6.96891 -3.25 0
      vertex -6.96891 -3.25 2.8
      vertex -10 -1.5 2.8
    endloop
  endfacet
  facet normal -0.5 -0.866025 -0
    outer loop
      vertex -10 -1.5 0
      vertex -6.96891 -3.25 0
      vertex -10 -1.5 2.8
    endloop
  endfacet
  facet normal -1 0 0
    outer loop
      vertex -6.96891 -3.25 2.8
      vertex -6.96891 -3.25 0
      vertex -6.96891 -6.75 2.8
    endloop
  endfacet
  facet normal -1 0 0
    outer loop
      vertex -6.96891 -6.75 2.8
      vertex -6.96891 -3.25 0
      vertex -6.96891 -6.75 0
    endloop
  endfacet
  facet normal -0.5 0.866025 0
    outer loop
      vertex -6.96891 -6.75 2.8
      vertex -6.96891 -6.75 0
      vertex -10 -8.5 2.8
    endloop
  endfacet
  facet normal -0.5 0.866025 0
    outer loop
      vertex -10 -8.5 2.8
      vertex -6.96891 -6.75 0
      vertex -10 -8.5 0
    endloop
  endfacet
  facet normal 0.5 0.866025 -0
    outer loop
      vertex -10 -8.5 2.8
      vertex -10 -8.5 0
      vertex -13.0311 -6.75 2.8
    endloop
  endfacet
  facet normal 0.5 0.866025 -0
    outer loop
      vertex -13.0311 -6.75 2.8
      vertex -10 -8.5 0
      vertex -13.0311 -6.75 0
    endloop
  endfacet
  facet normal 0.5 -0.866025 0
    outer loop
      vertex -10 8.5 0
      vertex -10 8.5 2.8
      vertex -13.0311 6.75 2.8
    endloop
  endfacet
  facet normal 0.5 -0.866025 0
    outer loop
      vertex -13.0311 6.75 0
      vertex -10 8.5 0
      vertex -13.0311 6.75 2.8
    endloop
  endfacet
  facet normal 1 0 0
    outer loop
      vertex -13.0311 6.75 0
      vertex -13.0311 6.75 2.8
      vertex -13.0311 3.25 2.8
    endloop
  endfacet
  facet normal 1 0 0
    outer loop
      vertex -13.0311 3.25 0
      vertex -13.0311 6.75 0
      vertex -13.0311 3.25 2.8
    endloop
  endfacet
  facet normal -0.5 -0.866025 -0
    outer loop
      vertex -6.96891 6.75 0
      vertex -6.96891 6.75 2.8
      vertex -10 8.5 2.8
    endloop
  endfacet
  facet normal -0.5 -0.866025 -0
    outer loop
      vertex -10 8.5 0
      vertex -6.96891 6.75 0
      vertex -10 8.5 2.8
    endloop
  endfacet
  facet normal -1 0 0
    outer loop
      vertex -6.96891 6.75 2.8
      vertex -6.96891 6.75 0
      vertex -6.96891 3.25 2.8
    endloop
  endfacet
  facet normal -1 0 0
    outer loop
      vertex -6.96891 3.25 2.8
      vertex -6.96891 6.75 0
      vertex -6.96891 3.25 0
    endloop
  endfacet
  facet normal -0.5 0.866025 0
    outer loop
      vertex -6.96891 3.25 2.8
      vertex -6.96891 3.25 0
      vertex -10 1.5 2.8
    endloop
  endfacet
  facet normal -0.5 0.866025 0
    outer loop
      vertex -10 1.5 2.8
      vertex -6.96891 3.25 0
      vertex -10 1.5 0
    endloop
  endfacet
  facet normal 0.5 0.866025 -0
    outer loop
      vertex -10 1.5 2.8
      vertex -10 1.5 0
      vertex -13.0311 3.25 2.8
    endloop
  endfacet
  facet normal 0.5 0.866025 -0
    outer loop
      vertex -13.0311 3.25 2.8
      vertex -10 1.5 0
      vertex -13.0311 3.25 0
    endloop
  endfacet
  facet normal 0 -1 0
    outer loop
      vertex -15.5 3.5 4
      vertex -15.5 3.5 5.5
      vertex -16.2 3.5 5.5
    endloop
  endfacet
  facet normal -0 -1 -0
    outer loop
      vertex -16.2 3.5 4
      vertex -15.5 3.5 4
      vertex -16.2 3.5 5.5
    endloop
  endfacet
  facet normal 0 0 1
    outer loop
      vertex -15.5 -3.5 4
      vertex -15.5 3.5 4
      vertex -16.2 3.5 4
    endloop
  endfacet
  facet normal 0 0 1
    outer loop
      vertex -16.2 -3.5 4
      vertex -15.5 -3.5 4
      vertex -16.2 3.5 4
    endloop
  endfacet
  facet normal 0 1 0
    outer loop
      vertex -15.5 -3.5 5.5
      vertex -15.5 -3.5 4
      vertex -16.2 -3.5 5.5
    endloop
  endfacet
  facet normal 0 1 -0
    outer loop
      vertex -16.2 -3.5 5.5
      vertex -15.5 -3.5 4
      vertex -16.2 -3.5 4
    endloop
  endfacet
  facet normal -1 2.53765e-016 0
    outer loop
      vertex -15.5 3.5 5.5
      vertex -15.5 3.5 4
      vertex -15.5 -3.5 5.5
    endloop
  endfacet
  facet normal -1 2.53765e-016 0
    outer loop
      vertex -15.5 -3.5 5.5
      vertex -15.5 3.5 4
      vertex -15.5 -3.5 4
    endloop
  endfacet
  facet normal 0 -1 0
    outer loop
      vertex -3.8 3.5 4
      vertex -3.8 3.5 5.5
      vertex -4.5 3.5 5.5
    endloop
  endfacet
  facet normal -0 -1 -0
    outer loop
      vertex -4.5 3.5 4
      vertex -3.8 3.5 4
      vertex -4.5 3.5 5.5
    endloop
  endfacet
  facet normal 1 -1.26883e-016 0
    outer loop
      vertex -4.5 3.5 4
      vertex -4.5 3.5 5.5
      vertex -4.5 -3.5 5.5
    endloop
  endfacet
  facet normal 1 -1.26883e-016 0
    outer loop
      vertex -4.5 -3.5 4
      vertex -4.5 3.5 4
      vertex -4.5 -3.5 5.5
    endloop
  endfacet
  facet normal 0 1 0
    outer loop
      vertex -3.8 -3.5 5.5
      vertex -3.8 -3.5 4
      vertex -4.5 -3.5 5.5
    endloop
  endfacet
  facet normal 0 1 -0
    outer loop
      vertex -4.5 -3.5 5.5
      vertex -3.8 -3.5 4
      vertex -4.5 -3.5 4
    endloop
  endfacet
  facet normal 0 1 0
    outer loop
      vertex -13.5 -3.5 5.5
      vertex -13.5 -3.5 4
      vertex -14.5 -3.5 5.5
    endloop
  endfacet
  facet normal 0 1 -0
    outer loop
      vertex -14.5 -3.5 5.5
      vertex -13.5 -3.5 4
      vertex -14.5 -3.5 4
    endloop
  endfacet
  facet normal 1 -2.53765e-016 0
    outer loop
      vertex -14.5 3.5 4
      vertex -14.5 3.5 5.5
      vertex -14.5 -3.5 5.5
    endloop
  endfacet
  facet normal 1 -2.53765e-016 0
    outer loop
      vertex -14.5 -3.5 4
      vertex -14.5 3.5 4
      vertex -14.5 -3.5 5.5
    endloop
  endfacet
  facet normal -1 2.53765e-016 0
    outer loop
      vertex -13.5 3.5 5.5
      vertex -13.5 3.5 4
      vertex -13.5 -3.5 5.5
    endloop
  endfacet
  facet normal -1 2.53765e-016 0
    outer loop
      vertex -13.5 -3.5 5.5
      vertex -13.5 3.5 4
      vertex -13.5 -3.5 4
    endloop
  endfacet
  facet normal 0 -1 0
    outer loop
      vertex -13.5 3.5 4
      vertex -13.5 3.5 5.5
      vertex -14.5 3.5 5.5
    endloop
  endfacet
  facet normal -0 -1 -0
    outer loop
      vertex -14.5 3.5 4
      vertex -13.5 3.5 4
      vertex -14.5 3.5 5.5
    endloop
  endfacet
  facet normal 0 1 0
    outer loop
      vertex -11.5 -3.5 5.5
      vertex -11.5 -3.5 4
      vertex -12.5 -3.5 5.5
    endloop
  endfacet
  facet normal 0 1 -0
    outer loop
      vertex -12.5 -3.5 5.5
      vertex -11.5 -3.5 4
      vertex -12.5 -3.5 4
    endloop
  endfacet
  facet normal 1 -2.53765e-016 0
    outer loop
      vertex -12.5 3.5 4
      vertex -12.5 3.5 5.5
      vertex -12.5 -3.5 5.5
    endloop
  endfacet
  facet normal 1 -2.53765e-016 0
    outer loop
      vertex -12.5 -3.5 4
      vertex -12.5 3.5 4
      vertex -12.5 -3.5 5.5
    endloop
  endfacet
  facet normal -1 2.53765e-016 0
    outer loop
      vertex -11.5 3.5 5.5
      vertex -11.5 3.5 4
      vertex -11.5 -3.5 5.5
    endloop
  endfacet
  facet normal -1 2.53765e-016 0
    outer loop
      vertex -11.5 -3.5 5.5
      vertex -11.5 3.5 4
      vertex -11.5 -3.5 4
    endloop
  endfacet
  facet normal 0 -1 0
    outer loop
      vertex -11.5 3.5 4
      vertex -11.5 3.5 5.5
      vertex -12.5 3.5 5.5
    endloop
  endfacet
  facet normal -0 -1 -0
    outer loop
      vertex -12.5 3.5 4
      vertex -11.5 3.5 4
      vertex -12.5 3.5 5.5
    endloop
  endfacet
  facet normal 0.707107 0.707107 0
    outer loop
      vertex -12.0325 -5.8419 5.5
      vertex -10.8419 -7.03254 5.5
      vertex -10.8419 -7.03254 3.2
    endloop
  endfacet
  facet normal 0.707107 0.707107 0
    outer loop
      vertex -12.0325 -5.8419 3.2
      vertex -12.0325 -5.8419 5.5
      vertex -10.8419 -7.03254 3.2
    endloop
  endfacet
  facet normal 1 6.31549e-008 0
    outer loop
      vertex -12.0325 -4.1581 5.5
      vertex -12.0325 -5.8419 5.5
      vertex -12.0325 -5.8419 3.2
    endloop
  endfacet
  facet normal 1 6.31549e-008 0
    outer loop
      vertex -12.0325 -4.1581 3.2
      vertex -12.0325 -4.1581 5.5
      vertex -12.0325 -5.8419 3.2
    endloop
  endfacet
  facet normal -6.31549e-008 1 0
    outer loop
      vertex -9.1581 -7.03253 5.5
      vertex -9.1581 -7.03253 3.2
      vertex -10.8419 -7.03254 5.5
    endloop
  endfacet
  facet normal -6.31549e-008 1 0
    outer loop
      vertex -10.8419 -7.03254 5.5
      vertex -9.1581 -7.03253 3.2
      vertex -10.8419 -7.03254 3.2
    endloop
  endfacet
  facet normal -0.707107 0.707107 0
    outer loop
      vertex -7.96746 -5.8419 5.5
      vertex -7.96746 -5.8419 3.2
      vertex -9.1581 -7.03253 5.5
    endloop
  endfacet
  facet normal -0.707107 0.707107 0
    outer loop
      vertex -9.1581 -7.03253 5.5
      vertex -7.96746 -5.8419 3.2
      vertex -9.1581 -7.03253 3.2
    endloop
  endfacet
  facet normal -1 -6.31549e-008 0
    outer loop
      vertex -7.96746 -5.8419 5.5
      vertex -7.96747 -4.1581 5.5
      vertex -7.96746 -5.8419 3.2
    endloop
  endfacet
  facet normal -1 -6.31549e-008 0
    outer loop
      vertex -7.96746 -5.8419 3.2
      vertex -7.96747 -4.1581 5.5
      vertex -7.96747 -4.1581 3.2
    endloop
  endfacet
  facet normal -0.707107 -0.707107 0
    outer loop
      vertex -7.96747 -4.1581 5.5
      vertex -9.1581 -2.96746 5.5
      vertex -7.96747 -4.1581 3.2
    endloop
  endfacet
  facet normal -0.707107 -0.707107 0
    outer loop
      vertex -7.96747 -4.1581 3.2
      vertex -9.1581 -2.96746 5.5
      vertex -9.1581 -2.96746 3.2
    endloop
  endfacet
  facet normal 6.31549e-008 -1 0
    outer loop
      vertex -9.1581 -2.96746 3.2
      vertex -9.1581 -2.96746 5.5
      vertex -9.5 -2.96746 5.5
    endloop
  endfacet
  facet normal 6.31549e-008 -1 -3.96251e-017
    outer loop
      vertex -10.5 -2.96747 4
      vertex -9.1581 -2.96746 3.2
      vertex -9.5 -2.96746 4
    endloop
  endfacet
  facet normal 6.31549e-008 -1 0
    outer loop
      vertex -9.5 -2.96746 4
      vertex -9.1581 -2.96746 3.2
      vertex -9.5 -2.96746 5.5
    endloop
  endfacet
  facet normal 6.31549e-008 -1 1.40379e-016
    outer loop
      vertex -10.8419 -2.96747 3.2
      vertex -9.1581 -2.96746 3.2
      vertex -10.5 -2.96747 4
    endloop
  endfacet
  facet normal 6.31549e-008 -1 0
    outer loop
      vertex -10.8419 -2.96747 5.5
      vertex -10.5 -2.96747 4
      vertex -10.5 -2.96747 5.5
    endloop
  endfacet
  facet normal 6.31549e-008 -1 0
    outer loop
      vertex -10.8419 -2.96747 3.2
      vertex -10.5 -2.96747 4
      vertex -10.8419 -2.96747 5.5
    endloop
  endfacet
  facet normal -1 2.99305e-016 0
    outer loop
      vertex -9.5 2.96747 5.5
      vertex -9.5 2.96747 4
      vertex -9.5 -2.96746 5.5
    endloop
  endfacet
  facet normal -1 2.99305e-016 0
    outer loop
      vertex -9.5 -2.96746 5.5
      vertex -9.5 2.96747 4
      vertex -9.5 -2.96746 4
    endloop
  endfacet
  facet normal -6.31549e-008 1 0
    outer loop
      vertex -10.5 2.96746 5.5
      vertex -10.5 2.96746 4
      vertex -10.8419 2.96746 5.5
    endloop
  endfacet
  facet normal -6.31549e-008 1 6.23817e-018
    outer loop
      vertex -10.8419 2.96746 3.2
      vertex -10.5 2.96746 4
      vertex -9.1581 2.96747 3.2
    endloop
  endfacet
  facet normal -6.31549e-008 1 0
    outer loop
      vertex -9.1581 2.96747 5.5
      vertex -9.5 2.96747 4
      vertex -9.5 2.96747 5.5
    endloop
  endfacet
  facet normal -6.31549e-008 1 0
    outer loop
      vertex -9.1581 2.96747 3.2
      vertex -9.5 2.96747 4
      vertex -9.1581 2.96747 5.5
    endloop
  endfacet
  facet normal -6.31549e-008 1 1.86242e-016
    outer loop
      vertex -10.5 2.96746 4
      vertex -9.5 2.96747 4
      vertex -9.1581 2.96747 3.2
    endloop
  endfacet
  facet normal -6.31549e-008 1 0
    outer loop
      vertex -10.8419 2.96746 5.5
      vertex -10.5 2.96746 4
      vertex -10.8419 2.96746 3.2
    endloop
  endfacet
  facet normal -0.707107 0.707107 0
    outer loop
      vertex -7.96746 4.1581 5.5
      vertex -7.96746 4.1581 3.2
      vertex -9.1581 2.96747 5.5
    endloop
  endfacet
  facet normal -0.707107 0.707107 0
    outer loop
      vertex -9.1581 2.96747 5.5
      vertex -7.96746 4.1581 3.2
      vertex -9.1581 2.96747 3.2
    endloop
  endfacet
  facet normal -1 -6.31549e-008 0
    outer loop
      vertex -7.96746 4.1581 5.5
      vertex -7.96747 5.8419 5.5
      vertex -7.96746 4.1581 3.2
    endloop
  endfacet
  facet normal -1 -6.31549e-008 0
    outer loop
      vertex -7.96746 4.1581 3.2
      vertex -7.96747 5.8419 5.5
      vertex -7.96747 5.8419 3.2
    endloop
  endfacet
  facet normal -0.707107 -0.707107 0
    outer loop
      vertex -7.96747 5.8419 5.5
      vertex -9.1581 7.03254 5.5
      vertex -7.96747 5.8419 3.2
    endloop
  endfacet
  facet normal -0.707107 -0.707107 0
    outer loop
      vertex -7.96747 5.8419 3.2
      vertex -9.1581 7.03254 5.5
      vertex -9.1581 7.03254 3.2
    endloop
  endfacet
  facet normal 6.31549e-008 -1 0
    outer loop
      vertex -9.1581 7.03254 3.2
      vertex -9.1581 7.03254 5.5
      vertex -10.8419 7.03253 5.5
    endloop
  endfacet
  facet normal 6.31549e-008 -1 0
    outer loop
      vertex -10.8419 7.03253 3.2
      vertex -9.1581 7.03254 3.2
      vertex -10.8419 7.03253 5.5
    endloop
  endfacet
  facet normal 0.707107 -0.707107 0
    outer loop
      vertex -10.8419 7.03253 3.2
      vertex -10.8419 7.03253 5.5
      vertex -12.0325 5.8419 5.5
    endloop
  endfacet
  facet normal 0.707107 -0.707107 0
    outer loop
      vertex -12.0325 5.8419 3.2
      vertex -10.8419 7.03253 3.2
      vertex -12.0325 5.8419 5.5
    endloop
  endfacet
  facet normal 1 6.31549e-008 0
    outer loop
      vertex -12.0325 5.8419 5.5
      vertex -12.0325 4.1581 5.5
      vertex -12.0325 4.1581 3.2
    endloop
  endfacet
  facet normal 1 6.31549e-008 0
    outer loop
      vertex -12.0325 5.8419 3.2
      vertex -12.0325 5.8419 5.5
      vertex -12.0325 4.1581 3.2
    endloop
  endfacet
  facet normal 0.707107 0.707107 0
    outer loop
      vertex -12.0325 4.1581 5.5
      vertex -10.8419 2.96746 5.5
      vertex -10.8419 2.96746 3.2
    endloop
  endfacet
  facet normal 0.707107 0.707107 0
    outer loop
      vertex -12.0325 4.1581 3.2
      vertex -12.0325 4.1581 5.5
      vertex -10.8419 2.96746 3.2
    endloop
  endfacet
  facet normal 1 -2.99305e-016 0
    outer loop
      vertex -10.5 2.96746 4
      vertex -10.5 2.96746 5.5
      vertex -10.5 -2.96747 5.5
    endloop
  endfacet
  facet normal 1 -2.99305e-016 0
    outer loop
      vertex -10.5 -2.96747 4
      vertex -10.5 2.96746 4
      vertex -10.5 -2.96747 5.5
    endloop
  endfacet
  facet normal 0.707107 -0.707107 0
    outer loop
      vertex -10.8419 -2.96747 3.2
      vertex -10.8419 -2.96747 5.5
      vertex -12.0325 -4.1581 5.5
    endloop
  endfacet
  facet normal 0.707107 -0.707107 0
    outer loop
      vertex -12.0325 -4.1581 3.2
      vertex -10.8419 -2.96747 3.2
      vertex -12.0325 -4.1581 5.5
    endloop
  endfacet
  facet normal 0 1 0
    outer loop
      vertex -7.5 -3.5 5.5
      vertex -7.5 -3.5 4
      vertex -8.5 -3.5 5.5
    endloop
  endfacet
  facet normal 0 1 -0
    outer loop
      vertex -8.5 -3.5 5.5
      vertex -7.5 -3.5 4
      vertex -8.5 -3.5 4
    endloop
  endfacet
  facet normal 1 -2.53765e-016 0
    outer loop
      vertex -8.5 3.5 4
      vertex -8.5 3.5 5.5
      vertex -8.5 -3.5 5.5
    endloop
  endfacet
  facet normal 1 -2.53765e-016 0
    outer loop
      vertex -8.5 -3.5 4
      vertex -8.5 3.5 4
      vertex -8.5 -3.5 5.5
    endloop
  endfacet
  facet normal -1 1.26883e-016 0
    outer loop
      vertex -7.5 3.5 5.5
      vertex -7.5 3.5 4
      vertex -7.5 -3.5 5.5
    endloop
  endfacet
  facet normal -1 1.26883e-016 0
    outer loop
      vertex -7.5 -3.5 5.5
      vertex -7.5 3.5 4
      vertex -7.5 -3.5 4
    endloop
  endfacet
  facet normal 0 -1 0
    outer loop
      vertex -7.5 3.5 4
      vertex -7.5 3.5 5.5
      vertex -8.5 3.5 5.5
    endloop
  endfacet
  facet normal -0 -1 -0
    outer loop
      vertex -8.5 3.5 4
      vertex -7.5 3.5 4
      vertex -8.5 3.5 5.5
    endloop
  endfacet
  facet normal 0 1 0
    outer loop
      vertex -5.5 -3.5 5.5
      vertex -5.5 -3.5 4
      vertex -6.5 -3.5 5.5
    endloop
  endfacet
  facet normal 0 1 -0
    outer loop
      vertex -6.5 -3.5 5.5
      vertex -5.5 -3.5 4
      vertex -6.5 -3.5 4
    endloop
  endfacet
  facet normal 1 -1.26883e-016 0
    outer loop
      vertex -6.5 3.5 4
      vertex -6.5 3.5 5.5
      vertex -6.5 -3.5 5.5
    endloop
  endfacet
  facet normal 1 -1.26883e-016 0
    outer loop
      vertex -6.5 -3.5 4
      vertex -6.5 3.5 4
      vertex -6.5 -3.5 5.5
    endloop
  endfacet
  facet normal -1 1.26883e-016 0
    outer loop
      vertex -5.5 3.5 5.5
      vertex -5.5 3.5 4
      vertex -5.5 -3.5 5.5
    endloop
  endfacet
  facet normal -1 1.26883e-016 0
    outer loop
      vertex -5.5 -3.5 5.5
      vertex -5.5 3.5 4
      vertex -5.5 -3.5 4
    endloop
  endfacet
  facet normal 0 -1 0
    outer loop
      vertex -5.5 3.5 4
      vertex -5.5 3.5 5.5
      vertex -6.5 3.5 5.5
    endloop
  endfacet
  facet normal -0 -1 -0
    outer loop
      vertex -6.5 3.5 4
      vertex -5.5 3.5 4
      vertex -6.5 3.5 5.5
    endloop
  endfacet
  facet normal 0 0 1
    outer loop
      vertex -3.8 -3.5 4
      vertex -3.8 3.5 4
      vertex -4.5 3.5 4
    endloop
  endfacet
  facet normal 0 0 1
    outer loop
      vertex -4.5 -3.5 4
      vertex -3.8 -3.5 4
      vertex -4.5 3.5 4
    endloop
  endfacet
  facet normal -0 -0 -1
    outer loop
      vertex -13.0311 -6.75 2.8
      vertex -13.0311 -3.25 2.8
      vertex -10 -8.5 2.8
    endloop
  endfacet
  facet normal 0 0 -1
    outer loop
      vertex -10 -8.5 2.8
      vertex -13.0311 -3.25 2.8
      vertex -10 -1.5 2.8
    endloop
  endfacet
  facet normal 0 -0 -1
    outer loop
      vertex -10 -8.5 2.8
      vertex -10 -1.5 2.8
      vertex -6.96891 -3.25 2.8
    endloop
  endfacet
  facet normal 0 0 -1
    outer loop
      vertex -10 -8.5 2.8
      vertex -6.96891 -3.25 2.8
      vertex -6.96891 -6.75 2.8
    endloop
  endfacet
  facet normal -0 -0 -1
    outer loop
      vertex -13.0311 3.25 2.8
      vertex -13.0311 6.75 2.8
      vertex -10 1.5 2.8
    endloop
  endfacet
  facet normal 0 0 -1
    outer loop
      vertex -10 1.5 2.8
      vertex -13.0311 6.75 2.8
      vertex -10 8.5 2.8
    endloop
  endfacet
  facet normal 0 -0 -1
    outer loop
      vertex -10 1.5 2.8
      vertex -10 8.5 2.8
      vertex -6.96891 6.75 2.8
    endloop
  endfacet
  facet normal 0 0 -1
    outer loop
      vertex -10 1.5 2.8
      vertex -6.96891 6.75 2.8
      vertex -6.96891 3.25 2.8
    endloop
  endfacet
  facet normal 0 0 1
    outer loop
      vertex -13.5 -3.5 4
      vertex -13.5 3.5 4
      vertex -14.5 3.5 4
    endloop
  endfacet
  facet normal 0 0 1
    outer loop
      vertex -14.5 -3.5 4
      vertex -13.5 -3.5 4
      vertex -14.5 3.5 4
    endloop
  endfacet
  facet normal 0 0 1
    outer loop
      vertex -11.5 -3.5 4
      vertex -11.5 3.5 4
      vertex -12.5 3.5 4
    endloop
  endfacet
  facet normal 0 0 1
    outer loop
      vertex -12.5 -3.5 4
      vertex -11.5 -3.5 4
      vertex -12.5 3.5 4
    endloop
  endfacet
  facet normal 0 0 1
    outer loop
      vertex -10.8419 -2.96747 3.2
      vertex -12.0325 -4.1581 3.2
      vertex -12.0325 -5.8419 3.2
    endloop
  endfacet
  facet normal -0 0 1
    outer loop
      vertex -9.1581 -7.03253 3.2
      vertex -10.8419 -2.96747 3.2
      vertex -10.8419 -7.03254 3.2
    endloop
  endfacet
  facet normal 0 0 1
    outer loop
      vertex -10.8419 -7.03254 3.2
      vertex -10.8419 -2.96747 3.2
      vertex -12.0325 -5.8419 3.2
    endloop
  endfacet
  facet normal -0 0 1
    outer loop
      vertex -7.96746 -5.8419 3.2
      vertex -10.8419 -2.96747 3.2
      vertex -9.1581 -7.03253 3.2
    endloop
  endfacet
  facet normal -0 -0 1
    outer loop
      vertex -7.96747 -4.1581 3.2
      vertex -10.8419 -2.96747 3.2
      vertex -7.96746 -5.8419 3.2
    endloop
  endfacet
  facet normal 0 -0 1
    outer loop
      vertex -9.1581 -2.96746 3.2
      vertex -10.8419 -2.96747 3.2
      vertex -7.96747 -4.1581 3.2
    endloop
  endfacet
  facet normal 0 0 1
    outer loop
      vertex -9.5 -2.96746 4
      vertex -9.5 2.96747 4
      vertex -10.5 2.96746 4
    endloop
  endfacet
  facet normal 0 0 1
    outer loop
      vertex -10.5 -2.96747 4
      vertex -9.5 -2.96746 4
      vertex -10.5 2.96746 4
    endloop
  endfacet
  facet normal 0 0 1
    outer loop
      vertex -10.8419 7.03253 3.2
      vertex -12.0325 5.8419 3.2
      vertex -12.0325 4.1581 3.2
    endloop
  endfacet
  facet normal -0 0 1
    outer loop
      vertex -9.1581 2.96747 3.2
      vertex -10.8419 7.03253 3.2
      vertex -10.8419 2.96746 3.2
    endloop
  endfacet
  facet normal 0 0 1
    outer loop
      vertex -10.8419 2.96746 3.2
      vertex -10.8419 7.03253 3.2
      vertex -12.0325 4.1581 3.2
    endloop
  endfacet
  facet normal -0 0 1
    outer loop
      vertex -7.96746 4.1581 3.2
      vertex -10.8419 7.03253 3.2
      vertex -9.1581 2.96747 3.2
    endloop
  endfacet
  facet normal -0 -0 1
    outer loop
      vertex -7.96747 5.8419 3.2
      vertex -10.8419 7.03253 3.2
      vertex -7.96746 4.1581 3.2
    endloop
  endfacet
  facet normal 0 -0 1
    outer loop
      vertex -9.1581 7.03254 3.2
      vertex -10.8419 7.03253 3.2
      vertex -7.96747 5.8419 3.2
    endloop
  endfacet
  facet normal 0 0 1
    outer loop
      vertex -7.5 -3.5 4
      vertex -7.5 3.5 4
      vertex -8.5 3.5 4
    endloop
  endfacet
  facet normal 0 0 1
    outer loop
      vertex -8.5 -3.5 4
      vertex -7.5 -3.5 4
      vertex -8.5 3.5 4
    endloop
  endfacet
  facet normal 0 0 1
    outer loop
      vertex -5.5 -3.5 4
      vertex -5.5 3.5 4
      vertex -6.5 3.5 4
    endloop
  endfacet
  facet normal 0 0 1
    outer loop
      vertex -6.5 -3.5 4
      vertex -5.5 -3.5 4
      vertex -6.5 3.5 4
    endloop
  endfacet
endsolid OpenSCAD_Model
