solid OpenSCAD_Model
  facet normal -1 0 0
    outer loop
      vertex 0 0 0
      vertex 0 0 14
      vertex 0 19 0
    endloop
  endfacet
  facet normal -1 0 0
    outer loop
      vertex 0 19 0
      vertex 0 0 14
      vertex 0 19 14
    endloop
  endfacet
  facet normal 0 -1 0
    outer loop
      vertex 0 0 14
      vertex 0 0 0
      vertex 9.8 0 0
    endloop
  endfacet
  facet normal 0 -1 0
    outer loop
      vertex 9.8 0 14
      vertex 0 0 14
      vertex 9.8 0 0
    endloop
  endfacet
  facet normal 0 0 -1
    outer loop
      vertex 6.43713 10.9168 0
      vertex 0 19 0
      vertex 9.8 19 0
    endloop
  endfacet
  facet normal 0 0 -1
    outer loop
      vertex 0 0 0
      vertex 0 19 0
      vertex 3 9.8 0
    endloop
  endfacet
  facet normal 0 0 -1
    outer loop
      vertex 0 0 0
      vertex 3 9.8 0
      vertex 3.09299 9.21287 0
    endloop
  endfacet
  facet normal 0 0 -1
    outer loop
      vertex 0 0 0
      vertex 3.09299 9.21287 0
      vertex 3.36287 8.68321 0
    endloop
  endfacet
  facet normal 0 0 -1
    outer loop
      vertex 0 0 0
      vertex 3.36287 8.68321 0
      vertex 9.8 0 0
    endloop
  endfacet
  facet normal 0 0 -1
    outer loop
      vertex 3.36287 8.68321 0
      vertex 3.78321 8.26287 0
      vertex 9.8 0 0
    endloop
  endfacet
  facet normal 0 0 -1
    outer loop
      vertex 6.01679 8.26287 0
      vertex 9.8 0 0
      vertex 5.48713 7.99299 0
    endloop
  endfacet
  facet normal 0 0 -1
    outer loop
      vertex 3.09299 10.3871 0
      vertex 0 19 0
      vertex 3.36287 10.9168 0
    endloop
  endfacet
  facet normal 0 0 -1
    outer loop
      vertex 4.31287 7.99299 0
      vertex 4.9 7.9 0
      vertex 9.8 0 0
    endloop
  endfacet
  facet normal 0 0 -1
    outer loop
      vertex 3.36287 10.9168 0
      vertex 0 19 0
      vertex 3.78321 11.3371 0
    endloop
  endfacet
  facet normal 0 0 -1
    outer loop
      vertex 4.9 7.9 0
      vertex 5.48713 7.99299 0
      vertex 9.8 0 0
    endloop
  endfacet
  facet normal 0 0 -1
    outer loop
      vertex 6.8 9.8 0
      vertex 9.8 19 0
      vertex 6.70701 9.21287 0
    endloop
  endfacet
  facet normal 0 0 -1
    outer loop
      vertex 9.8 0 0
      vertex 6.01679 8.26287 0
      vertex 6.43713 8.68321 0
    endloop
  endfacet
  facet normal 0 0 -1
    outer loop
      vertex 9.8 0 0
      vertex 6.43713 8.68321 0
      vertex 6.70701 9.21287 0
    endloop
  endfacet
  facet normal 0 0 -1
    outer loop
      vertex 9.8 0 0
      vertex 6.70701 9.21287 0
      vertex 9.8 19 0
    endloop
  endfacet
  facet normal 0 0 -1
    outer loop
      vertex 6.70701 10.3871 0
      vertex 9.8 19 0
      vertex 6.8 9.8 0
    endloop
  endfacet
  facet normal 0 0 -1
    outer loop
      vertex 3.78321 11.3371 0
      vertex 0 19 0
      vertex 4.31287 11.607 0
    endloop
  endfacet
  facet normal 0 0 -1
    outer loop
      vertex 5.48713 11.607 0
      vertex 0 19 0
      vertex 6.01679 11.3371 0
    endloop
  endfacet
  facet normal 0 0 -1
    outer loop
      vertex 6.01679 11.3371 0
      vertex 0 19 0
      vertex 6.43713 10.9168 0
    endloop
  endfacet
  facet normal 0 0 -1
    outer loop
      vertex 6.70701 10.3871 0
      vertex 6.43713 10.9168 0
      vertex 9.8 19 0
    endloop
  endfacet
  facet normal 0 0 -1
    outer loop
      vertex 4.9 11.7 0
      vertex 0 19 0
      vertex 5.48713 11.607 0
    endloop
  endfacet
  facet normal 0 0 -1
    outer loop
      vertex 4.31287 11.607 0
      vertex 0 19 0
      vertex 4.9 11.7 0
    endloop
  endfacet
  facet normal 0 0 -1
    outer loop
      vertex 3 9.8 0
      vertex 0 19 0
      vertex 3.09299 10.3871 0
    endloop
  endfacet
  facet normal 0 0 -1
    outer loop
      vertex 4.31287 7.99299 0
      vertex 9.8 0 0
      vertex 3.78321 8.26287 0
    endloop
  endfacet
  facet normal 0 1 0
    outer loop
      vertex 0 19 0
      vertex 0 19 14
      vertex 2.4 19 2
    endloop
  endfacet
  facet normal 0 1 0
    outer loop
      vertex 0 19 0
      vertex 2.4 19 2
      vertex 9.8 19 0
    endloop
  endfacet
  facet normal 0 1 0
    outer loop
      vertex 7.4 19 14
      vertex 9.8 19 0
      vertex 7.4 19 2
    endloop
  endfacet
  facet normal 0 1 0
    outer loop
      vertex 2.4 19 2
      vertex 7.4 19 2
      vertex 9.8 19 0
    endloop
  endfacet
  facet normal 0 1 0
    outer loop
      vertex 9.8 19 0
      vertex 7.4 19 14
      vertex 9.8 19 14
    endloop
  endfacet
  facet normal 0 1 0
    outer loop
      vertex 2.4 19 2
      vertex 0 19 14
      vertex 2.4 19 14
    endloop
  endfacet
  facet normal 0 0 1
    outer loop
      vertex 7.4 2 14
      vertex 0 0 14
      vertex 9.8 0 14
    endloop
  endfacet
  facet normal 0 0 1
    outer loop
      vertex 2.4 2 14
      vertex 2.4 19 14
      vertex 0 19 14
    endloop
  endfacet
  facet normal 0 0 1
    outer loop
      vertex 9.8 19 14
      vertex 7.4 19 14
      vertex 9.8 0 14
    endloop
  endfacet
  facet normal 0 0 1
    outer loop
      vertex 2.4 2 14
      vertex 0 0 14
      vertex 7.4 2 14
    endloop
  endfacet
  facet normal 0 0 1
    outer loop
      vertex 0 19 14
      vertex 0 0 14
      vertex 2.4 2 14
    endloop
  endfacet
  facet normal 0 0 1
    outer loop
      vertex 7.4 19 14
      vertex 7.4 2 14
      vertex 9.8 0 14
    endloop
  endfacet
  facet normal 1 0 0
    outer loop
      vertex 9.8 0 14
      vertex 9.8 0 0
      vertex 9.8 19 0
    endloop
  endfacet
  facet normal 1 0 0
    outer loop
      vertex 9.8 19 14
      vertex 9.8 0 14
      vertex 9.8 19 0
    endloop
  endfacet
  facet normal 0.987688 -0.156435 0
    outer loop
      vertex 3.09299 10.3871 0
      vertex 3.09299 10.3871 2
      vertex 3 9.8 2
    endloop
  endfacet
  facet normal 0.987688 -0.156435 0
    outer loop
      vertex 3 9.8 0
      vertex 3.09299 10.3871 0
      vertex 3 9.8 2
    endloop
  endfacet
  facet normal 0.987688 0.156435 0
    outer loop
      vertex 3 9.8 2
      vertex 3.09299 9.21287 2
      vertex 3.09299 9.21287 0
    endloop
  endfacet
  facet normal 0.987688 0.156435 0
    outer loop
      vertex 3 9.8 0
      vertex 3 9.8 2
      vertex 3.09299 9.21287 0
    endloop
  endfacet
  facet normal 0.891007 -0.45399 0
    outer loop
      vertex 3.36287 10.9168 0
      vertex 3.36287 10.9168 2
      vertex 3.09299 10.3871 2
    endloop
  endfacet
  facet normal 0.891007 -0.45399 0
    outer loop
      vertex 3.09299 10.3871 0
      vertex 3.36287 10.9168 0
      vertex 3.09299 10.3871 2
    endloop
  endfacet
  facet normal 0.707107 -0.707107 0
    outer loop
      vertex 3.78321 11.3371 0
      vertex 3.78321 11.3371 2
      vertex 3.36287 10.9168 2
    endloop
  endfacet
  facet normal 0.707107 -0.707107 0
    outer loop
      vertex 3.36287 10.9168 0
      vertex 3.78321 11.3371 0
      vertex 3.36287 10.9168 2
    endloop
  endfacet
  facet normal 0.45399 -0.891007 0
    outer loop
      vertex 4.31287 11.607 0
      vertex 4.31287 11.607 2
      vertex 3.78321 11.3371 2
    endloop
  endfacet
  facet normal 0.45399 -0.891007 0
    outer loop
      vertex 3.78321 11.3371 0
      vertex 4.31287 11.607 0
      vertex 3.78321 11.3371 2
    endloop
  endfacet
  facet normal 0.156435 -0.987688 0
    outer loop
      vertex 4.9 11.7 0
      vertex 4.9 11.7 2
      vertex 4.31287 11.607 2
    endloop
  endfacet
  facet normal 0.156435 -0.987688 0
    outer loop
      vertex 4.31287 11.607 0
      vertex 4.9 11.7 0
      vertex 4.31287 11.607 2
    endloop
  endfacet
  facet normal -0.156435 -0.987688 0
    outer loop
      vertex 5.48713 11.607 0
      vertex 5.48713 11.607 2
      vertex 4.9 11.7 2
    endloop
  endfacet
  facet normal -0.156435 -0.987688 0
    outer loop
      vertex 4.9 11.7 0
      vertex 5.48713 11.607 0
      vertex 4.9 11.7 2
    endloop
  endfacet
  facet normal -0.45399 -0.891007 0
    outer loop
      vertex 6.01679 11.3371 0
      vertex 6.01679 11.3371 2
      vertex 5.48713 11.607 2
    endloop
  endfacet
  facet normal -0.45399 -0.891007 0
    outer loop
      vertex 5.48713 11.607 0
      vertex 6.01679 11.3371 0
      vertex 5.48713 11.607 2
    endloop
  endfacet
  facet normal -0.707107 -0.707107 0
    outer loop
      vertex 6.43713 10.9168 0
      vertex 6.43713 10.9168 2
      vertex 6.01679 11.3371 2
    endloop
  endfacet
  facet normal -0.707107 -0.707107 0
    outer loop
      vertex 6.01679 11.3371 0
      vertex 6.43713 10.9168 0
      vertex 6.01679 11.3371 2
    endloop
  endfacet
  facet normal -0.891007 -0.45399 0
    outer loop
      vertex 6.70701 10.3871 2
      vertex 6.43713 10.9168 2
      vertex 6.70701 10.3871 0
    endloop
  endfacet
  facet normal -0.891007 -0.45399 0
    outer loop
      vertex 6.70701 10.3871 0
      vertex 6.43713 10.9168 2
      vertex 6.43713 10.9168 0
    endloop
  endfacet
  facet normal -0.987688 -0.156435 0
    outer loop
      vertex 6.8 9.8 2
      vertex 6.70701 10.3871 2
      vertex 6.8 9.8 0
    endloop
  endfacet
  facet normal -0.987688 -0.156435 0
    outer loop
      vertex 6.8 9.8 0
      vertex 6.70701 10.3871 2
      vertex 6.70701 10.3871 0
    endloop
  endfacet
  facet normal -0.987688 0.156435 0
    outer loop
      vertex 6.8 9.8 2
      vertex 6.8 9.8 0
      vertex 6.70701 9.21287 2
    endloop
  endfacet
  facet normal -0.987688 0.156435 0
    outer loop
      vertex 6.70701 9.21287 2
      vertex 6.8 9.8 0
      vertex 6.70701 9.21287 0
    endloop
  endfacet
  facet normal -0.891007 0.45399 0
    outer loop
      vertex 6.70701 9.21287 2
      vertex 6.70701 9.21287 0
      vertex 6.43713 8.68321 2
    endloop
  endfacet
  facet normal -0.891007 0.45399 0
    outer loop
      vertex 6.43713 8.68321 2
      vertex 6.70701 9.21287 0
      vertex 6.43713 8.68321 0
    endloop
  endfacet
  facet normal -0.707107 0.707107 0
    outer loop
      vertex 6.43713 8.68321 2
      vertex 6.43713 8.68321 0
      vertex 6.01679 8.26287 2
    endloop
  endfacet
  facet normal -0.707107 0.707107 0
    outer loop
      vertex 6.01679 8.26287 2
      vertex 6.43713 8.68321 0
      vertex 6.01679 8.26287 0
    endloop
  endfacet
  facet normal -0.45399 0.891007 0
    outer loop
      vertex 6.01679 8.26287 2
      vertex 6.01679 8.26287 0
      vertex 5.48713 7.99299 2
    endloop
  endfacet
  facet normal -0.45399 0.891007 0
    outer loop
      vertex 5.48713 7.99299 2
      vertex 6.01679 8.26287 0
      vertex 5.48713 7.99299 0
    endloop
  endfacet
  facet normal -0.156435 0.987688 0
    outer loop
      vertex 5.48713 7.99299 2
      vertex 5.48713 7.99299 0
      vertex 4.9 7.9 2
    endloop
  endfacet
  facet normal -0.156435 0.987688 0
    outer loop
      vertex 4.9 7.9 2
      vertex 5.48713 7.99299 0
      vertex 4.9 7.9 0
    endloop
  endfacet
  facet normal 0.156435 0.987688 0
    outer loop
      vertex 4.9 7.9 2
      vertex 4.9 7.9 0
      vertex 4.31287 7.99299 2
    endloop
  endfacet
  facet normal 0.156435 0.987688 0
    outer loop
      vertex 4.31287 7.99299 2
      vertex 4.9 7.9 0
      vertex 4.31287 7.99299 0
    endloop
  endfacet
  facet normal 0.45399 0.891007 0
    outer loop
      vertex 4.31287 7.99299 2
      vertex 4.31287 7.99299 0
      vertex 3.78321 8.26287 2
    endloop
  endfacet
  facet normal 0.45399 0.891007 0
    outer loop
      vertex 3.78321 8.26287 2
      vertex 4.31287 7.99299 0
      vertex 3.78321 8.26287 0
    endloop
  endfacet
  facet normal 0.707107 0.707107 0
    outer loop
      vertex 3.78321 8.26287 2
      vertex 3.78321 8.26287 0
      vertex 3.36287 8.68321 2
    endloop
  endfacet
  facet normal 0.707107 0.707107 0
    outer loop
      vertex 3.36287 8.68321 2
      vertex 3.78321 8.26287 0
      vertex 3.36287 8.68321 0
    endloop
  endfacet
  facet normal 0.891007 0.45399 0
    outer loop
      vertex 3.09299 9.21287 2
      vertex 3.36287 8.68321 2
      vertex 3.36287 8.68321 0
    endloop
  endfacet
  facet normal 0.891007 0.45399 0
    outer loop
      vertex 3.09299 9.21287 0
      vertex 3.09299 9.21287 2
      vertex 3.36287 8.68321 0
    endloop
  endfacet
  facet normal -1 0 0
    outer loop
      vertex 7.4 8.06795 2
      vertex 7.4 2 14
      vertex 7.4 8.06795 9
    endloop
  endfacet
  facet normal -1 0 0
    outer loop
      vertex 7.4 19 14
      vertex 7.4 19 2
      vertex 7.4 11.5321 9
    endloop
  endfacet
  facet normal -1 0 0
    outer loop
      vertex 7.4 19 14
      vertex 7.4 11.5321 9
      vertex 7.4 2 14
    endloop
  endfacet
  facet normal -1 0 0
    outer loop
      vertex 7.4 2 14
      vertex 7.4 8.06795 2
      vertex 7.4 2 2
    endloop
  endfacet
  facet normal -1 0 0
    outer loop
      vertex 7.4 11.5321 9
      vertex 7.4 19 2
      vertex 7.4 11.5321 2
    endloop
  endfacet
  facet normal -1 0 0
    outer loop
      vertex 7.4 8.06795 9
      vertex 7.4 2 14
      vertex 7.4 11.5321 9
    endloop
  endfacet
  facet normal 0 0 1
    outer loop
      vertex 2.4 8.06795 2
      vertex 2.4 2 2
      vertex 7.4 2 2
    endloop
  endfacet
  facet normal 0 0 1
    outer loop
      vertex 4.9 7.9 2
      vertex 2.4 8.06795 2
      vertex 7.4 2 2
    endloop
  endfacet
  facet normal 0 0 1
    outer loop
      vertex 6.01679 8.26287 2
      vertex 5.48713 7.99299 2
      vertex 7.4 8.06795 2
    endloop
  endfacet
  facet normal 0 0 1
    outer loop
      vertex 4.31287 7.99299 2
      vertex 3.78321 8.26287 2
      vertex 2.4 8.06795 2
    endloop
  endfacet
  facet normal 0 0 1
    outer loop
      vertex 3.36287 10.9168 2
      vertex 3.78321 11.3371 2
      vertex 7.4 19 2
    endloop
  endfacet
  facet normal 0 0 1
    outer loop
      vertex 1.4 9.8 2
      vertex 2.4 8.06795 2
      vertex 2.4 11.5321 2
    endloop
  endfacet
  facet normal 0 0 1
    outer loop
      vertex 2.4 19 2
      vertex 2.4 11.5321 2
      vertex 7.4 19 2
    endloop
  endfacet
  facet normal 0 0 1
    outer loop
      vertex 5.48713 11.607 2
      vertex 6.01679 11.3371 2
      vertex 7.4 11.5321 2
    endloop
  endfacet
  facet normal 0 0 1
    outer loop
      vertex 2.4 11.5321 2
      vertex 2.4 8.06795 2
      vertex 3 9.8 2
    endloop
  endfacet
  facet normal 0 0 1
    outer loop
      vertex 2.4 11.5321 2
      vertex 3.09299 10.3871 2
      vertex 7.4 19 2
    endloop
  endfacet
  facet normal 0 0 1
    outer loop
      vertex 2.4 11.5321 2
      vertex 3 9.8 2
      vertex 3.09299 10.3871 2
    endloop
  endfacet
  facet normal 0 0 1
    outer loop
      vertex 3.09299 10.3871 2
      vertex 3.36287 10.9168 2
      vertex 7.4 19 2
    endloop
  endfacet
  facet normal 0 0 1
    outer loop
      vertex 6.43713 10.9168 2
      vertex 6.70701 10.3871 2
      vertex 7.4 11.5321 2
    endloop
  endfacet
  facet normal 0 0 1
    outer loop
      vertex 7.4 19 2
      vertex 4.9 11.7 2
      vertex 7.4 11.5321 2
    endloop
  endfacet
  facet normal 0 0 1
    outer loop
      vertex 7.4 19 2
      vertex 4.31287 11.607 2
      vertex 4.9 11.7 2
    endloop
  endfacet
  facet normal 0 0 1
    outer loop
      vertex 4.9 11.7 2
      vertex 5.48713 11.607 2
      vertex 7.4 11.5321 2
    endloop
  endfacet
  facet normal 0 0 1
    outer loop
      vertex 6.01679 11.3371 2
      vertex 6.43713 10.9168 2
      vertex 7.4 11.5321 2
    endloop
  endfacet
  facet normal 0 0 1
    outer loop
      vertex 7.4 11.5321 2
      vertex 6.70701 10.3871 2
      vertex 8.4 9.8 2
    endloop
  endfacet
  facet normal 0 0 1
    outer loop
      vertex 6.70701 10.3871 2
      vertex 6.8 9.8 2
      vertex 8.4 9.8 2
    endloop
  endfacet
  facet normal 0 0 1
    outer loop
      vertex 8.4 9.8 2
      vertex 6.70701 9.21287 2
      vertex 7.4 8.06795 2
    endloop
  endfacet
  facet normal 0 0 1
    outer loop
      vertex 6.70701 9.21287 2
      vertex 6.43713 8.68321 2
      vertex 7.4 8.06795 2
    endloop
  endfacet
  facet normal 0 0 1
    outer loop
      vertex 6.43713 8.68321 2
      vertex 6.01679 8.26287 2
      vertex 7.4 8.06795 2
    endloop
  endfacet
  facet normal 0 0 1
    outer loop
      vertex 7.4 8.06795 2
      vertex 5.48713 7.99299 2
      vertex 7.4 2 2
    endloop
  endfacet
  facet normal 0 0 1
    outer loop
      vertex 5.48713 7.99299 2
      vertex 4.9 7.9 2
      vertex 7.4 2 2
    endloop
  endfacet
  facet normal 0 0 1
    outer loop
      vertex 4.31287 7.99299 2
      vertex 2.4 8.06795 2
      vertex 4.9 7.9 2
    endloop
  endfacet
  facet normal 0 0 1
    outer loop
      vertex 3.36287 8.68321 2
      vertex 3.09299 9.21287 2
      vertex 2.4 8.06795 2
    endloop
  endfacet
  facet normal 0 0 1
    outer loop
      vertex 6.8 9.8 2
      vertex 6.70701 9.21287 2
      vertex 8.4 9.8 2
    endloop
  endfacet
  facet normal 0 0 1
    outer loop
      vertex 3.78321 11.3371 2
      vertex 4.31287 11.607 2
      vertex 7.4 19 2
    endloop
  endfacet
  facet normal 0 0 1
    outer loop
      vertex 3.09299 9.21287 2
      vertex 3 9.8 2
      vertex 2.4 8.06795 2
    endloop
  endfacet
  facet normal 0 0 1
    outer loop
      vertex 3.78321 8.26287 2
      vertex 3.36287 8.68321 2
      vertex 2.4 8.06795 2
    endloop
  endfacet
  facet normal 1 0 0
    outer loop
      vertex 2.4 19 14
      vertex 2.4 8.06795 9
      vertex 2.4 11.5321 9
    endloop
  endfacet
  facet normal 1 0 0
    outer loop
      vertex 2.4 8.06795 2
      vertex 2.4 8.06795 9
      vertex 2.4 2 14
    endloop
  endfacet
  facet normal 1 0 0
    outer loop
      vertex 2.4 11.5321 2
      vertex 2.4 19 2
      vertex 2.4 11.5321 9
    endloop
  endfacet
  facet normal 1 0 0
    outer loop
      vertex 2.4 19 2
      vertex 2.4 19 14
      vertex 2.4 11.5321 9
    endloop
  endfacet
  facet normal 1 0 0
    outer loop
      vertex 2.4 19 14
      vertex 2.4 2 14
      vertex 2.4 8.06795 9
    endloop
  endfacet
  facet normal 1 0 0
    outer loop
      vertex 2.4 2 14
      vertex 2.4 2 2
      vertex 2.4 8.06795 2
    endloop
  endfacet
  facet normal 0 1 0
    outer loop
      vertex 7.4 2 14
      vertex 7.4 2 2
      vertex 2.4 2 14
    endloop
  endfacet
  facet normal 0 1 0
    outer loop
      vertex 2.4 2 14
      vertex 7.4 2 2
      vertex 2.4 2 2
    endloop
  endfacet
  facet normal -0.866025 0.5 0
    outer loop
      vertex 8.4 9.8 9
      vertex 8.4 9.8 2
      vertex 7.4 8.06795 9
    endloop
  endfacet
  facet normal -0.866025 0.5 0
    outer loop
      vertex 7.4 8.06795 9
      vertex 8.4 9.8 2
      vertex 7.4 8.06795 2
    endloop
  endfacet
  facet normal 0 0 -1
    outer loop
      vertex 7.4 11.5321 9
      vertex 8.4 9.8 9
      vertex 7.4 8.06795 9
    endloop
  endfacet
  facet normal -0.866025 -0.5 0
    outer loop
      vertex 8.4 9.8 9
      vertex 7.4 11.5321 9
      vertex 8.4 9.8 2
    endloop
  endfacet
  facet normal -0.866025 -0.5 0
    outer loop
      vertex 8.4 9.8 2
      vertex 7.4 11.5321 9
      vertex 7.4 11.5321 2
    endloop
  endfacet
  facet normal 0.866025 0.5 0
    outer loop
      vertex 1.4 9.8 9
      vertex 2.4 8.06795 9
      vertex 2.4 8.06795 2
    endloop
  endfacet
  facet normal 0.866025 0.5 0
    outer loop
      vertex 1.4 9.8 2
      vertex 1.4 9.8 9
      vertex 2.4 8.06795 2
    endloop
  endfacet
  facet normal 0.866025 -0.5 0
    outer loop
      vertex 2.4 11.5321 2
      vertex 2.4 11.5321 9
      vertex 1.4 9.8 9
    endloop
  endfacet
  facet normal 0.866025 -0.5 0
    outer loop
      vertex 1.4 9.8 2
      vertex 2.4 11.5321 2
      vertex 1.4 9.8 9
    endloop
  endfacet
  facet normal 0 0 -1
    outer loop
      vertex 2.4 11.5321 9
      vertex 2.4 8.06795 9
      vertex 1.4 9.8 9
    endloop
  endfacet
endsolid OpenSCAD_Model
