solid OpenSCAD_Model
  facet normal -1 0 0
    outer loop
      vertex 0 0 0
      vertex 0 0 8
      vertex 0 19 0
    endloop
  endfacet
  facet normal -1 0 0
    outer loop
      vertex 0 19 0
      vertex 0 0 8
      vertex 0 2 8
    endloop
  endfacet
  facet normal -1 0 0
    outer loop
      vertex 0 19 0
      vertex 0 2 8
      vertex 0 2 14
    endloop
  endfacet
  facet normal -1 0 0
    outer loop
      vertex 0 19 0
      vertex 0 2 14
      vertex 0 19 14
    endloop
  endfacet
  facet normal 0 -1 0
    outer loop
      vertex 0 0 8
      vertex 0 0 0
      vertex 8.8 0 0
    endloop
  endfacet
  facet normal 0 -1 0
    outer loop
      vertex 8.8 0 8
      vertex 0 0 8
      vertex 8.8 0 0
    endloop
  endfacet
  facet normal 0 0 -1
    outer loop
      vertex 5.85623 10.858 0
      vertex 0 19 0
      vertex 8.8 19 0
    endloop
  endfacet
  facet normal 0 0 -1
    outer loop
      vertex 0 0 0
      vertex 0 19 0
      vertex 2.6 9.8 0
    endloop
  endfacet
  facet normal 0 0 -1
    outer loop
      vertex 0 0 0
      vertex 2.6 9.8 0
      vertex 2.6881 9.24377 0
    endloop
  endfacet
  facet normal 0 0 -1
    outer loop
      vertex 0 0 0
      vertex 2.6881 9.24377 0
      vertex 2.94377 8.74199 0
    endloop
  endfacet
  facet normal 0 0 -1
    outer loop
      vertex 0 0 0
      vertex 2.94377 8.74199 0
      vertex 8.8 0 0
    endloop
  endfacet
  facet normal 0 0 -1
    outer loop
      vertex 3.84377 8.0881 0
      vertex 8.8 0 0
      vertex 3.34199 8.34377 0
    endloop
  endfacet
  facet normal 0 0 -1
    outer loop
      vertex 5.45801 8.34377 0
      vertex 8.8 0 0
      vertex 4.95623 8.0881 0
    endloop
  endfacet
  facet normal 0 0 -1
    outer loop
      vertex 2.6881 10.3562 0
      vertex 0 19 0
      vertex 2.94377 10.858 0
    endloop
  endfacet
  facet normal 0 0 -1
    outer loop
      vertex 3.84377 8.0881 0
      vertex 4.4 8 0
      vertex 8.8 0 0
    endloop
  endfacet
  facet normal 0 0 -1
    outer loop
      vertex 2.94377 10.858 0
      vertex 0 19 0
      vertex 3.34199 11.2562 0
    endloop
  endfacet
  facet normal 0 0 -1
    outer loop
      vertex 4.4 8 0
      vertex 4.95623 8.0881 0
      vertex 8.8 0 0
    endloop
  endfacet
  facet normal 0 0 -1
    outer loop
      vertex 6.1119 10.3562 0
      vertex 8.8 19 0
      vertex 6.2 9.8 0
    endloop
  endfacet
  facet normal 0 0 -1
    outer loop
      vertex 8.8 0 0
      vertex 5.45801 8.34377 0
      vertex 5.85623 8.74199 0
    endloop
  endfacet
  facet normal 0 0 -1
    outer loop
      vertex 8.8 0 0
      vertex 5.85623 8.74199 0
      vertex 6.1119 9.24377 0
    endloop
  endfacet
  facet normal 0 0 -1
    outer loop
      vertex 8.8 0 0
      vertex 6.1119 9.24377 0
      vertex 8.8 19 0
    endloop
  endfacet
  facet normal 0 0 -1
    outer loop
      vertex 6.1119 9.24377 0
      vertex 6.2 9.8 0
      vertex 8.8 19 0
    endloop
  endfacet
  facet normal 0 0 -1
    outer loop
      vertex 5.85623 10.858 0
      vertex 8.8 19 0
      vertex 6.1119 10.3562 0
    endloop
  endfacet
  facet normal 0 0 -1
    outer loop
      vertex 5.45801 11.2562 0
      vertex 0 19 0
      vertex 5.85623 10.858 0
    endloop
  endfacet
  facet normal 0 0 -1
    outer loop
      vertex 3.34199 11.2562 0
      vertex 0 19 0
      vertex 3.84377 11.5119 0
    endloop
  endfacet
  facet normal 0 0 -1
    outer loop
      vertex 4.95623 11.5119 0
      vertex 0 19 0
      vertex 5.45801 11.2562 0
    endloop
  endfacet
  facet normal 0 0 -1
    outer loop
      vertex 4.4 11.6 0
      vertex 0 19 0
      vertex 4.95623 11.5119 0
    endloop
  endfacet
  facet normal 0 0 -1
    outer loop
      vertex 3.84377 11.5119 0
      vertex 0 19 0
      vertex 4.4 11.6 0
    endloop
  endfacet
  facet normal 0 0 -1
    outer loop
      vertex 2.6 9.8 0
      vertex 0 19 0
      vertex 2.6881 10.3562 0
    endloop
  endfacet
  facet normal 0 0 -1
    outer loop
      vertex 3.34199 8.34377 0
      vertex 8.8 0 0
      vertex 2.94377 8.74199 0
    endloop
  endfacet
  facet normal 0 1 0
    outer loop
      vertex 0 19 0
      vertex 0 19 14
      vertex 2 19 2
    endloop
  endfacet
  facet normal 0 1 0
    outer loop
      vertex 0 19 0
      vertex 2 19 2
      vertex 8.8 19 0
    endloop
  endfacet
  facet normal 0 1 0
    outer loop
      vertex 6.8 19 14
      vertex 8.8 19 0
      vertex 6.8 19 2
    endloop
  endfacet
  facet normal 0 1 0
    outer loop
      vertex 2 19 2
      vertex 6.8 19 2
      vertex 8.8 19 0
    endloop
  endfacet
  facet normal 0 1 0
    outer loop
      vertex 8.8 19 0
      vertex 6.8 19 14
      vertex 8.8 19 14
    endloop
  endfacet
  facet normal 0 1 0
    outer loop
      vertex 2 19 2
      vertex 0 19 14
      vertex 2 19 14
    endloop
  endfacet
  facet normal 0 0 1
    outer loop
      vertex 0 19 14
      vertex 0 2 14
      vertex 2 2 14
    endloop
  endfacet
  facet normal 0 0 1
    outer loop
      vertex 2 19 14
      vertex 0 19 14
      vertex 2 2 14
    endloop
  endfacet
  facet normal 0 -1 0
    outer loop
      vertex 0 2 14
      vertex 0 2 8
      vertex 2 2 8
    endloop
  endfacet
  facet normal 0 -1 0
    outer loop
      vertex 2 2 14
      vertex 0 2 14
      vertex 2 2 8
    endloop
  endfacet
  facet normal 0 0 1
    outer loop
      vertex 8.8 0 8
      vertex 8.8 2 8
      vertex 6.8 2 8
    endloop
  endfacet
  facet normal 0 0 1
    outer loop
      vertex 0 2 8
      vertex 8.8 0 8
      vertex 2 2 8
    endloop
  endfacet
  facet normal 0 0 1
    outer loop
      vertex 2 2 8
      vertex 8.8 0 8
      vertex 6.8 2 8
    endloop
  endfacet
  facet normal 0 0 1
    outer loop
      vertex 0 0 8
      vertex 8.8 0 8
      vertex 0 2 8
    endloop
  endfacet
  facet normal 1 0 0
    outer loop
      vertex 8.8 0 8
      vertex 8.8 0 0
      vertex 8.8 19 0
    endloop
  endfacet
  facet normal 1 0 0
    outer loop
      vertex 8.8 2 8
      vertex 8.8 0 8
      vertex 8.8 19 0
    endloop
  endfacet
  facet normal 1 0 0
    outer loop
      vertex 8.8 19 14
      vertex 8.8 2 8
      vertex 8.8 19 0
    endloop
  endfacet
  facet normal 1 0 0
    outer loop
      vertex 8.8 2 14
      vertex 8.8 2 8
      vertex 8.8 19 14
    endloop
  endfacet
  facet normal 0.987688 -0.156434 0
    outer loop
      vertex 2.6881 10.3562 0
      vertex 2.6881 10.3562 2
      vertex 2.6 9.8 2
    endloop
  endfacet
  facet normal 0.987688 -0.156434 0
    outer loop
      vertex 2.6 9.8 0
      vertex 2.6881 10.3562 0
      vertex 2.6 9.8 2
    endloop
  endfacet
  facet normal 0.987688 0.156434 0
    outer loop
      vertex 2.6 9.8 2
      vertex 2.6881 9.24377 2
      vertex 2.6881 9.24377 0
    endloop
  endfacet
  facet normal 0.987688 0.156434 0
    outer loop
      vertex 2.6 9.8 0
      vertex 2.6 9.8 2
      vertex 2.6881 9.24377 0
    endloop
  endfacet
  facet normal 0.891006 -0.453991 0
    outer loop
      vertex 2.94377 10.858 0
      vertex 2.94377 10.858 2
      vertex 2.6881 10.3562 2
    endloop
  endfacet
  facet normal 0.891006 -0.453991 0
    outer loop
      vertex 2.6881 10.3562 0
      vertex 2.94377 10.858 0
      vertex 2.6881 10.3562 2
    endloop
  endfacet
  facet normal 0.707107 -0.707107 0
    outer loop
      vertex 3.34199 11.2562 0
      vertex 3.34199 11.2562 2
      vertex 2.94377 10.858 2
    endloop
  endfacet
  facet normal 0.707107 -0.707107 0
    outer loop
      vertex 2.94377 10.858 0
      vertex 3.34199 11.2562 0
      vertex 2.94377 10.858 2
    endloop
  endfacet
  facet normal 0.453991 -0.891006 0
    outer loop
      vertex 3.84377 11.5119 0
      vertex 3.84377 11.5119 2
      vertex 3.34199 11.2562 2
    endloop
  endfacet
  facet normal 0.453991 -0.891006 0
    outer loop
      vertex 3.34199 11.2562 0
      vertex 3.84377 11.5119 0
      vertex 3.34199 11.2562 2
    endloop
  endfacet
  facet normal 0.156434 -0.987688 0
    outer loop
      vertex 4.4 11.6 0
      vertex 4.4 11.6 2
      vertex 3.84377 11.5119 2
    endloop
  endfacet
  facet normal 0.156434 -0.987688 0
    outer loop
      vertex 3.84377 11.5119 0
      vertex 4.4 11.6 0
      vertex 3.84377 11.5119 2
    endloop
  endfacet
  facet normal -0.156434 -0.987688 0
    outer loop
      vertex 4.95623 11.5119 0
      vertex 4.95623 11.5119 2
      vertex 4.4 11.6 2
    endloop
  endfacet
  facet normal -0.156434 -0.987688 0
    outer loop
      vertex 4.4 11.6 0
      vertex 4.95623 11.5119 0
      vertex 4.4 11.6 2
    endloop
  endfacet
  facet normal -0.453991 -0.891006 0
    outer loop
      vertex 5.45801 11.2562 0
      vertex 5.45801 11.2562 2
      vertex 4.95623 11.5119 2
    endloop
  endfacet
  facet normal -0.453991 -0.891006 0
    outer loop
      vertex 4.95623 11.5119 0
      vertex 5.45801 11.2562 0
      vertex 4.95623 11.5119 2
    endloop
  endfacet
  facet normal -0.707107 -0.707107 0
    outer loop
      vertex 5.85623 10.858 0
      vertex 5.85623 10.858 2
      vertex 5.45801 11.2562 2
    endloop
  endfacet
  facet normal -0.707107 -0.707107 0
    outer loop
      vertex 5.45801 11.2562 0
      vertex 5.85623 10.858 0
      vertex 5.45801 11.2562 2
    endloop
  endfacet
  facet normal -0.891006 -0.453991 0
    outer loop
      vertex 6.1119 10.3562 2
      vertex 5.85623 10.858 2
      vertex 6.1119 10.3562 0
    endloop
  endfacet
  facet normal -0.891006 -0.453991 0
    outer loop
      vertex 6.1119 10.3562 0
      vertex 5.85623 10.858 2
      vertex 5.85623 10.858 0
    endloop
  endfacet
  facet normal -0.987688 -0.156434 0
    outer loop
      vertex 6.2 9.8 2
      vertex 6.1119 10.3562 2
      vertex 6.2 9.8 0
    endloop
  endfacet
  facet normal -0.987688 -0.156434 0
    outer loop
      vertex 6.2 9.8 0
      vertex 6.1119 10.3562 2
      vertex 6.1119 10.3562 0
    endloop
  endfacet
  facet normal -0.987688 0.156434 0
    outer loop
      vertex 6.2 9.8 2
      vertex 6.2 9.8 0
      vertex 6.1119 9.24377 2
    endloop
  endfacet
  facet normal -0.987688 0.156434 0
    outer loop
      vertex 6.1119 9.24377 2
      vertex 6.2 9.8 0
      vertex 6.1119 9.24377 0
    endloop
  endfacet
  facet normal -0.891006 0.453991 0
    outer loop
      vertex 6.1119 9.24377 2
      vertex 6.1119 9.24377 0
      vertex 5.85623 8.74199 2
    endloop
  endfacet
  facet normal -0.891006 0.453991 0
    outer loop
      vertex 5.85623 8.74199 2
      vertex 6.1119 9.24377 0
      vertex 5.85623 8.74199 0
    endloop
  endfacet
  facet normal -0.707107 0.707107 0
    outer loop
      vertex 5.85623 8.74199 2
      vertex 5.85623 8.74199 0
      vertex 5.45801 8.34377 2
    endloop
  endfacet
  facet normal -0.707107 0.707107 0
    outer loop
      vertex 5.45801 8.34377 2
      vertex 5.85623 8.74199 0
      vertex 5.45801 8.34377 0
    endloop
  endfacet
  facet normal -0.453991 0.891006 0
    outer loop
      vertex 5.45801 8.34377 2
      vertex 5.45801 8.34377 0
      vertex 4.95623 8.0881 2
    endloop
  endfacet
  facet normal -0.453991 0.891006 0
    outer loop
      vertex 4.95623 8.0881 2
      vertex 5.45801 8.34377 0
      vertex 4.95623 8.0881 0
    endloop
  endfacet
  facet normal -0.156434 0.987688 0
    outer loop
      vertex 4.95623 8.0881 2
      vertex 4.95623 8.0881 0
      vertex 4.4 8 2
    endloop
  endfacet
  facet normal -0.156434 0.987688 0
    outer loop
      vertex 4.4 8 2
      vertex 4.95623 8.0881 0
      vertex 4.4 8 0
    endloop
  endfacet
  facet normal 0.156434 0.987688 0
    outer loop
      vertex 4.4 8 2
      vertex 4.4 8 0
      vertex 3.84377 8.0881 2
    endloop
  endfacet
  facet normal 0.156434 0.987688 0
    outer loop
      vertex 3.84377 8.0881 2
      vertex 4.4 8 0
      vertex 3.84377 8.0881 0
    endloop
  endfacet
  facet normal 0.453991 0.891006 0
    outer loop
      vertex 3.84377 8.0881 2
      vertex 3.84377 8.0881 0
      vertex 3.34199 8.34377 2
    endloop
  endfacet
  facet normal 0.453991 0.891006 0
    outer loop
      vertex 3.34199 8.34377 2
      vertex 3.84377 8.0881 0
      vertex 3.34199 8.34377 0
    endloop
  endfacet
  facet normal 0.707107 0.707107 0
    outer loop
      vertex 3.34199 8.34377 2
      vertex 3.34199 8.34377 0
      vertex 2.94377 8.74199 2
    endloop
  endfacet
  facet normal 0.707107 0.707107 0
    outer loop
      vertex 2.94377 8.74199 2
      vertex 3.34199 8.34377 0
      vertex 2.94377 8.74199 0
    endloop
  endfacet
  facet normal 0.891006 0.453991 0
    outer loop
      vertex 2.6881 9.24377 2
      vertex 2.94377 8.74199 2
      vertex 2.94377 8.74199 0
    endloop
  endfacet
  facet normal 0.891006 0.453991 0
    outer loop
      vertex 2.6881 9.24377 0
      vertex 2.6881 9.24377 2
      vertex 2.94377 8.74199 0
    endloop
  endfacet
  facet normal 0 0 1
    outer loop
      vertex 6.8 19 14
      vertex 6.8 2 14
      vertex 8.8 2 14
    endloop
  endfacet
  facet normal 0 0 1
    outer loop
      vertex 8.8 19 14
      vertex 6.8 19 14
      vertex 8.8 2 14
    endloop
  endfacet
  facet normal -1 0 0
    outer loop
      vertex 6.8 2 14
      vertex 6.8 19 14
      vertex 6.8 2 8
    endloop
  endfacet
  facet normal -1 0 0
    outer loop
      vertex 6.8 10.8392 9
      vertex 6.8 19 14
      vertex 6.8 19 2
    endloop
  endfacet
  facet normal -1 0 0
    outer loop
      vertex 6.8 8.76077 9
      vertex 6.8 19 14
      vertex 6.8 10.8392 9
    endloop
  endfacet
  facet normal -1 0 0
    outer loop
      vertex 6.8 8.76077 2
      vertex 6.8 2 8
      vertex 6.8 8.76077 9
    endloop
  endfacet
  facet normal -1 0 0
    outer loop
      vertex 6.8 2 8
      vertex 6.8 19 14
      vertex 6.8 8.76077 9
    endloop
  endfacet
  facet normal -1 0 0
    outer loop
      vertex 6.8 2 8
      vertex 6.8 8.76077 2
      vertex 6.8 2 2
    endloop
  endfacet
  facet normal -1 0 0
    outer loop
      vertex 6.8 10.8392 9
      vertex 6.8 19 2
      vertex 6.8 10.8392 2
    endloop
  endfacet
  facet normal 0 0 1
    outer loop
      vertex 2 8.76077 2
      vertex 2 2 2
      vertex 6.8 2 2
    endloop
  endfacet
  facet normal 0 0 1
    outer loop
      vertex 3.84377 8.0881 2
      vertex 3.34199 8.34377 2
      vertex 2 8.76077 2
    endloop
  endfacet
  facet normal 0 0 1
    outer loop
      vertex 3.84377 8.0881 2
      vertex 2 8.76077 2
      vertex 6.8 2 2
    endloop
  endfacet
  facet normal 0 0 1
    outer loop
      vertex 6.1119 9.24377 2
      vertex 5.85623 8.74199 2
      vertex 6.8 8.76077 2
    endloop
  endfacet
  facet normal 0 0 1
    outer loop
      vertex 6.2 9.8 2
      vertex 6.1119 9.24377 2
      vertex 7.4 9.8 2
    endloop
  endfacet
  facet normal 0 0 1
    outer loop
      vertex 2.94377 10.858 2
      vertex 3.34199 11.2562 2
      vertex 6.8 19 2
    endloop
  endfacet
  facet normal 0 0 1
    outer loop
      vertex 1.4 9.8 2
      vertex 2 8.76077 2
      vertex 2 10.8392 2
    endloop
  endfacet
  facet normal 0 0 1
    outer loop
      vertex 2 19 2
      vertex 2 10.8392 2
      vertex 6.8 19 2
    endloop
  endfacet
  facet normal 0 0 1
    outer loop
      vertex 5.45801 11.2562 2
      vertex 5.85623 10.858 2
      vertex 6.8 10.8392 2
    endloop
  endfacet
  facet normal 0 0 1
    outer loop
      vertex 2 10.8392 2
      vertex 2.6881 10.3562 2
      vertex 6.8 19 2
    endloop
  endfacet
  facet normal 0 0 1
    outer loop
      vertex 2 10.8392 2
      vertex 2 8.76077 2
      vertex 2.6881 10.3562 2
    endloop
  endfacet
  facet normal 0 0 1
    outer loop
      vertex 2.6881 10.3562 2
      vertex 2.94377 10.858 2
      vertex 6.8 19 2
    endloop
  endfacet
  facet normal 0 0 1
    outer loop
      vertex 6.8 19 2
      vertex 3.34199 11.2562 2
      vertex 3.84377 11.5119 2
    endloop
  endfacet
  facet normal 0 0 1
    outer loop
      vertex 6.8 19 2
      vertex 3.84377 11.5119 2
      vertex 4.4 11.6 2
    endloop
  endfacet
  facet normal 0 0 1
    outer loop
      vertex 6.8 19 2
      vertex 4.95623 11.5119 2
      vertex 6.8 10.8392 2
    endloop
  endfacet
  facet normal 0 0 1
    outer loop
      vertex 6.8 19 2
      vertex 4.4 11.6 2
      vertex 4.95623 11.5119 2
    endloop
  endfacet
  facet normal 0 0 1
    outer loop
      vertex 6.8 10.8392 2
      vertex 6.1119 10.3562 2
      vertex 7.4 9.8 2
    endloop
  endfacet
  facet normal 0 0 1
    outer loop
      vertex 6.1119 10.3562 2
      vertex 6.2 9.8 2
      vertex 7.4 9.8 2
    endloop
  endfacet
  facet normal 0 0 1
    outer loop
      vertex 7.4 9.8 2
      vertex 6.1119 9.24377 2
      vertex 6.8 8.76077 2
    endloop
  endfacet
  facet normal 0 0 1
    outer loop
      vertex 6.8 8.76077 2
      vertex 5.85623 8.74199 2
      vertex 6.8 2 2
    endloop
  endfacet
  facet normal 0 0 1
    outer loop
      vertex 5.85623 8.74199 2
      vertex 5.45801 8.34377 2
      vertex 6.8 2 2
    endloop
  endfacet
  facet normal 0 0 1
    outer loop
      vertex 5.45801 8.34377 2
      vertex 4.95623 8.0881 2
      vertex 6.8 2 2
    endloop
  endfacet
  facet normal 0 0 1
    outer loop
      vertex 4.95623 8.0881 2
      vertex 4.4 8 2
      vertex 6.8 2 2
    endloop
  endfacet
  facet normal 0 0 1
    outer loop
      vertex 4.4 8 2
      vertex 3.84377 8.0881 2
      vertex 6.8 2 2
    endloop
  endfacet
  facet normal 0 0 1
    outer loop
      vertex 3.34199 8.34377 2
      vertex 2.94377 8.74199 2
      vertex 2 8.76077 2
    endloop
  endfacet
  facet normal 0 0 1
    outer loop
      vertex 2.6 9.8 2
      vertex 2 8.76077 2
      vertex 2.6881 9.24377 2
    endloop
  endfacet
  facet normal 0 0 1
    outer loop
      vertex 4.95623 11.5119 2
      vertex 5.45801 11.2562 2
      vertex 6.8 10.8392 2
    endloop
  endfacet
  facet normal 0 0 1
    outer loop
      vertex 2.6 9.8 2
      vertex 2.6881 10.3562 2
      vertex 2 8.76077 2
    endloop
  endfacet
  facet normal 0 0 1
    outer loop
      vertex 5.85623 10.858 2
      vertex 6.1119 10.3562 2
      vertex 6.8 10.8392 2
    endloop
  endfacet
  facet normal 0 0 1
    outer loop
      vertex 2.94377 8.74199 2
      vertex 2.6881 9.24377 2
      vertex 2 8.76077 2
    endloop
  endfacet
  facet normal 1 0 0
    outer loop
      vertex 2 19 14
      vertex 2 8.76077 9
      vertex 2 10.8392 9
    endloop
  endfacet
  facet normal 1 0 0
    outer loop
      vertex 2 8.76077 2
      vertex 2 8.76077 9
      vertex 2 2 14
    endloop
  endfacet
  facet normal 1 0 0
    outer loop
      vertex 2 10.8392 2
      vertex 2 19 2
      vertex 2 10.8392 9
    endloop
  endfacet
  facet normal 1 0 0
    outer loop
      vertex 2 19 2
      vertex 2 19 14
      vertex 2 10.8392 9
    endloop
  endfacet
  facet normal 1 0 0
    outer loop
      vertex 2 19 14
      vertex 2 2 14
      vertex 2 8.76077 9
    endloop
  endfacet
  facet normal 1 0 0
    outer loop
      vertex 2 2 14
      vertex 2 2 8
      vertex 2 8.76077 2
    endloop
  endfacet
  facet normal 1 0 0
    outer loop
      vertex 2 2 8
      vertex 2 2 2
      vertex 2 8.76077 2
    endloop
  endfacet
  facet normal 0 1 0
    outer loop
      vertex 6.8 2 8
      vertex 6.8 2 2
      vertex 2 2 8
    endloop
  endfacet
  facet normal 0 1 0
    outer loop
      vertex 2 2 8
      vertex 6.8 2 2
      vertex 2 2 2
    endloop
  endfacet
  facet normal 0 -1 0
    outer loop
      vertex 6.8 2 14
      vertex 6.8 2 8
      vertex 8.8 2 8
    endloop
  endfacet
  facet normal 0 -1 0
    outer loop
      vertex 8.8 2 14
      vertex 6.8 2 14
      vertex 8.8 2 8
    endloop
  endfacet
  facet normal -0.866025 0.5 0
    outer loop
      vertex 7.4 9.8 9
      vertex 7.4 9.8 2
      vertex 6.8 8.76077 9
    endloop
  endfacet
  facet normal -0.866025 0.5 0
    outer loop
      vertex 6.8 8.76077 9
      vertex 7.4 9.8 2
      vertex 6.8 8.76077 2
    endloop
  endfacet
  facet normal 0 0 -1
    outer loop
      vertex 6.8 10.8392 9
      vertex 7.4 9.8 9
      vertex 6.8 8.76077 9
    endloop
  endfacet
  facet normal -0.866025 -0.5 0
    outer loop
      vertex 7.4 9.8 9
      vertex 6.8 10.8392 9
      vertex 7.4 9.8 2
    endloop
  endfacet
  facet normal -0.866025 -0.5 0
    outer loop
      vertex 7.4 9.8 2
      vertex 6.8 10.8392 9
      vertex 6.8 10.8392 2
    endloop
  endfacet
  facet normal 0.866025 0.5 0
    outer loop
      vertex 1.4 9.8 9
      vertex 2 8.76077 9
      vertex 2 8.76077 2
    endloop
  endfacet
  facet normal 0.866025 0.5 0
    outer loop
      vertex 1.4 9.8 2
      vertex 1.4 9.8 9
      vertex 2 8.76077 2
    endloop
  endfacet
  facet normal 0.866025 -0.5 0
    outer loop
      vertex 2 10.8392 2
      vertex 2 10.8392 9
      vertex 1.4 9.8 9
    endloop
  endfacet
  facet normal 0.866025 -0.5 0
    outer loop
      vertex 1.4 9.8 2
      vertex 2 10.8392 2
      vertex 1.4 9.8 9
    endloop
  endfacet
  facet normal 0 0 -1
    outer loop
      vertex 2 10.8392 9
      vertex 2 8.76077 9
      vertex 1.4 9.8 9
    endloop
  endfacet
endsolid OpenSCAD_Model
